<?xml version="1.0" encoding="UTF-8"?>
<svg id="Layer_1" xmlns="http://www.w3.org/2000/svg" xmlns:xlink="http://www.w3.org/1999/xlink" version="1.1" viewBox="0 0 1012 699">
  <!-- Generator: Adobe Illustrator 29.4.0, SVG Export Plug-In . SVG Version: 2.1.0 Build 152)  -->
  <defs>
    <style>
      .st0, .st1, .st2 {
        fill: none;
      }

      .st3, .st4, .st5 {
        fill: #fff;
      }

      .st3, .st5, .st1, .st2 {
        stroke: #000;
        stroke-miterlimit: 10;
      }

      .st3, .st2 {
        stroke-width: 3.27px;
      }

      .st5, .st1 {
        stroke-width: .82px;
      }

      .st6 {
        clip-path: url(#clippath);
      }
    </style>
    <clipPath id="clippath">
      <rect class="st0" x="144.84" width="867.16" height="684.74"/>
    </clipPath>
  </defs>
  <g class="st6">
    <g>
      <path class="st3" d="M1002.34,683.2h8.12V1.54h-495.01v681.66h486.89Z"/>
      <path class="st4" d="M754.83,34h-231.28v649.2h231.28"/>
      <path class="st1" d="M754.83,34h-231.28v649.2h231.28"/>
      <path class="st2" d="M497.83,515.77H146.38v8.3h4.61v154.52h12.72v-35.31h316.66v35.31h12.72v-154.52h4.74v-8.3h0Z"/>
      <path class="st5" d="M497.89,515.77H146.44v8.3h351.45v-8.3Z"/>
      <path class="st5" d="M163.77,524.07h-12.72v154.52h12.72v-154.52Z"/>
      <path class="st5" d="M493.15,524.07h-12.72v154.52h12.72v-154.52Z"/>
      <path class="st5" d="M480.43,577.81H163.77v5.35h316.65v-5.35Z"/>
      <path class="st5" d="M480.43,636.14H163.77v7.14h316.65v-7.14Z"/>
      <path class="st5" d="M350.2,546.4h-3.03c-1.33,0-2.45,1.03-2.53,2.35-.22,3.59-1.32,10.38-6.42,14,0,0-3.92,2.76-3.92,6.68s1.15,8.29,5.07,8.29h14.49c1.05,0,1.99-.65,2.37-1.63.55-1.4,1.12-3.92,1.12-8.28v-18.89c0-1.4-1.13-2.53-2.53-2.53h-4.61Z"/>
      <path class="st5" d="M406.08,550.53c-1.74.69-3.7.75-5.45.07-2.93-1.13-7.78-1.9-9.59,4.27-2.66,9.09-3.95,12.4-3.95,12.4,0,0-4.13,10.45,3.86,10.45h18.54s3.58-.17,4.13-4.94c.55-4.78,0-13.68,0-13.68,0,0-.92-11.19-5.79-9.26l-1.77.7h0Z"/>
      <path class="st5" d="M304.96,577.72h19.3s2.73-.36,2.73-6.13v-11.62c0-2.05-.82-4.06-2.38-5.39-.79-.68-1.76-1.19-2.83-1.13-3.07.17-7.85-3.16-7.85-3.16,0,0-10.07-3.59-12.38,6.83v17.08s-.25,3.53,3.42,3.53h0Z"/>
      <path class="st5" d="M318.72,621.53l-1.17-6.49s-1.38-6.06-5.31-6.06-12.33-1.6-13.51,4.47c-1.17,6.06-2.23,16.48-2.23,16.48,0,0-1.17,5.74,4.89,5.74h14.63c2.02,0,3.78-1.38,4.25-3.35.24-1.01.42-2.33.46-4.04,0-.46-.07-.91-.21-1.34l-1.8-5.41h0Z"/>
      <path class="st5" d="M212.24,585.88h-3.15c-.66,0-1.2.55-1.19,1.21.12,5.4.43,27.19-2.61,31.22-3.48,4.6-5.38,7.74-5.5,10.88-.05,1.33-.05,2.78-.05,4,0,1.64,1.33,2.95,2.97,2.95h14.77c1.5,0,2.77-1.12,2.95-2.61.54-4.59,1.51-14.27,1.02-21.07-.67-9.2-.62-20.31.14-24.35.76-4.04-5.06-2.06-5.06-2.06l-4.28-.18h0Z"/>
      <path class="st5" d="M367.31,546.4h3.03c1.33,0,2.44,1.03,2.53,2.35.22,3.59,1.32,10.38,6.42,14,0,0,3.92,2.76,3.92,6.68s-1.15,8.29-5.07,8.29h-14.49c-1.05,0-1.99-.65-2.37-1.63-.55-1.4-1.12-3.92-1.12-8.28v-18.89c0-1.4,1.13-2.53,2.53-2.53h4.61Z"/>
      <path class="st5" d="M424.51,550.57c1.74.69,3.69.75,5.45.07,2.93-1.13,7.78-1.9,9.59,4.27,2.66,9.09,3.95,12.4,3.95,12.4,0,0,4.14,10.45-3.86,10.45h-18.54s-3.58-.17-4.14-4.94c-.55-4.77,0-13.68,0-13.68,0,0,.92-11.19,5.79-9.26l1.77.7h0Z"/>
      <path class="st5" d="M295.33,577.68h-19.3s-2.73-.36-2.73-6.13v-11.62c0-2.05.82-4.06,2.38-5.39.79-.68,1.76-1.19,2.83-1.13,3.07.17,7.85-3.16,7.85-3.16,0,0,10.07-3.59,12.38,6.83v17.08s.25,3.53-3.42,3.53h0Z"/>
      <path class="st5" d="M326.44,621.53l1.17-6.49s1.38-6.06,5.32-6.06,12.33-1.6,13.51,4.47c1.17,6.06,2.23,16.48,2.23,16.48,0,0,1.17,5.74-4.89,5.74h-14.63c-2.02,0-3.78-1.38-4.25-3.35-.24-1-.42-2.31-.45-4,0-.48.07-.97.22-1.42l1.79-5.37h0Z"/>
      <path class="st5" d="M235.16,585.88h3.15c.66,0,1.2.55,1.19,1.21-.12,5.4-.43,27.19,2.62,31.22,3.48,4.6,5.38,7.74,5.5,10.88.05,1.33.05,2.78.05,4,0,1.64-1.33,2.95-2.97,2.95h-14.77c-1.5,0-2.77-1.12-2.95-2.61-.54-4.59-1.51-14.27-1.02-21.07.67-9.2.62-20.31-.14-24.35-.76-4.04,5.06-2.06,5.06-2.06l4.28-.18h0Z"/>
      <path class="st5" d="M1002.34,646.68h-239.39v36.51h239.39v-36.51Z"/>
      <path class="st5" d="M1002.34,150.05h-239.39v28.4h239.39v-28.4Z"/>
      <path class="st5" d="M1002.34,274.2h-239.39v28.4h239.39v-28.4Z"/>
      <path class="st5" d="M1002.34,398.36h-239.39v28.4h239.39v-28.4Z"/>
      <path class="st5" d="M1002.34,522.53h-239.39v28.4h239.39v-28.4Z"/>
      <path class="st1" d="M767.01,150.05V54.29"/>
      <path class="st1" d="M767.01,274.2v-95.75"/>
      <path class="st1" d="M767.01,398.36v-95.76"/>
      <path class="st1" d="M767.01,522.53v-95.76"/>
      <path class="st1" d="M767.01,646.68v-95.75"/>
      <path class="st5" d="M552.71,389.67c0-1.99-.68-3.97-1.91-5.55-1.22-1.57-2.98-2.72-4.9-3.21-5.67-1.43-11.18,2.83-11.24,8.67-.05,5.91,5.51,10.27,11.24,8.83,1.93-.49,3.69-1.64,4.9-3.21,1.23-1.57,1.91-3.56,1.91-5.55h0Z"/>
      <path class="st5" d="M1010.46,1.54h-495.01v12.17h495.01V1.54Z"/>
      <path class="st5" d="M523.56,13.71h-8.11v669.49h8.11V13.71Z"/>
      <path class="st5" d="M762.94,13.71h-8.11v669.49h8.11V13.71Z"/>
      <path class="st5" d="M1010.46,13.71h-8.12v669.49h8.12V13.71Z"/>
      <path class="st5" d="M1002.34,13.71h-239.39v40.57h239.39V13.71Z"/>
      <path class="st5" d="M570.22,31.05h10.14v2.95h-36.52v-2.95h10.14v-2.95h16.23v2.95Z"/>
      <path class="st5" d="M563.7,24.1h-3.19v4.01h3.19v-4.01Z"/>
      <path class="st1" d="M754.83,24.1h-231.28"/>
      <path class="st5" d="M720.34,31.05h-10.14v2.95h36.52v-2.95h-10.14v-2.95h-16.23v2.95Z"/>
      <path class="st5" d="M730.05,24.1h-3.19v4.01h3.19v-4.01Z"/>
    </g>
  </g>
</svg>