<svg width="628" height="699" viewBox="0 0 628 699" fill="none" xmlns="http://www.w3.org/2000/svg">
<g clip-path="url(#clip0_3_135)">
<path d="M303.837 503.959C300.594 503.886 300.588 500.012 300.588 500.012C300.588 500.012 296.375 505.351 298.903 511.111" stroke="black" stroke-width="2.79795" stroke-linecap="round" stroke-linejoin="round"/>
<path d="M300.4 507.793C300.4 507.793 303.984 510.502 308.102 509.077" stroke="black" stroke-width="2.79795" stroke-linecap="round" stroke-linejoin="round"/>
<path d="M295.132 486.672C295.132 486.672 295.426 489.234 292.063 489.161" stroke="black" stroke-width="2.79795" stroke-linecap="round" stroke-linejoin="round"/>
<path d="M284.447 490.459L289.241 488.351" stroke="black" stroke-width="2.79795" stroke-linecap="round" stroke-linejoin="round"/>
<path d="M293.413 493.55C295.718 493.55 297.586 491.477 297.586 488.92C297.586 486.363 295.718 484.291 293.413 484.291C291.109 484.291 289.241 486.363 289.241 488.92C289.241 491.477 291.109 493.55 293.413 493.55Z" stroke="black" stroke-width="2.79795" stroke-linecap="round" stroke-linejoin="round"/>
<path d="M294.028 483.628C294.028 483.628 298.895 481.153 297.578 477.587C296.261 474.021 293.406 472.623 293.406 472.623C293.406 472.623 290.892 471.272 288.592 473.975C286.292 476.677 284.941 479.34 282.508 480.016C280.074 480.691 270.519 483.809 270.386 487.91C270.252 492.011 268.627 492.513 271.375 497.242C271.375 497.242 281.311 504.153 283.109 499.45" stroke="black" stroke-width="2.79795" stroke-linecap="round" stroke-linejoin="round"/>
<path d="M297.732 596.783H304.378C304.378 596.783 305.976 596.783 309.914 590.996C313.852 585.209 314.835 584.346 314.835 584.346" stroke="black" stroke-width="2.79795" stroke-linecap="round" stroke-linejoin="round"/>
<path d="M309.915 590.996L317.537 635.679L332.059 631.866L330.949 595.432" stroke="black" stroke-width="2.79795" stroke-linecap="round" stroke-linejoin="round"/>
<path d="M366.259 615C366.259 615 366.138 623.369 357.527 622.754L356.176 622.787L356.791 623.864L350.025 627.062L348.915 622.138L366.259 615Z" stroke="black" stroke-width="2.79795" stroke-linecap="round" stroke-linejoin="round"/>
<path d="M323.635 634.08C323.635 634.08 325.661 637.405 332.059 637.405C332.059 637.405 335.503 639.251 335.503 641.345C335.503 643.439 328.001 643.56 324.31 640.85V642.898H318.039V635.679L323.642 634.08H323.635Z" stroke="black" stroke-width="2.79795" stroke-linecap="round" stroke-linejoin="round"/>
<path d="M319.509 576.472C319.509 576.472 331.076 575.362 330.949 595.432L348.908 622.145L355.427 615.007C355.427 615.007 332.393 565.273 328.93 559.821C325.467 554.368 317.149 560.262 317.149 560.262C317.149 560.262 294.911 575.001 295.352 574.258C295.794 573.515 295.279 572.565 295.279 572.565L279.52 569.843L275.983 577.135L272.813 578.901C265.378 581.998 259.414 577.061 261.768 567.555C264.121 558.048 288.265 542.989 288.265 542.989L284.434 503.176C284.434 503.176 283.972 499.343 283.097 499.464C282.227 499.577 280.369 500.019 280.369 500.019C276.711 498.714 277.815 494.533 277.815 494.065C277.815 493.603 278.276 493.369 279.673 493.309C281.071 493.248 281.412 492.205 281.412 492.205C282.107 492.379 282.575 491.797 282.575 491.971C282.575 492.145 282.288 492.84 282.923 494.232C283.558 495.623 284.895 494.754 284.895 494.754C285.998 494.754 286.232 493.65 286.286 493.362C286.339 493.075 285.069 492.553 285.122 491.85C285.176 491.148 284.427 490.86 284.427 490.459C284.427 490.051 284.541 489.529 285.878 488.077C287.215 486.625 287.503 483.2 287.503 483.2C289.589 483.722 293.059 482.886 293.059 482.886C293.059 482.886 304.225 491.369 304.786 493.402C305.348 495.443 307.033 497.269 307.033 497.269C307.033 497.269 310.262 502.4 305.415 503.732C304.806 503.899 304.278 503.966 303.817 503.952C303.817 503.952 303.663 507.592 308.083 509.07C308.083 509.07 313.485 517.5 307.661 519.119C307.661 519.119 303.376 521.507 298.675 516.309L306.892 528.458L311.031 534.472C311.031 534.472 324.41 534.854 329.445 546.059C332.032 551.826 334.834 565.073 333.751 569.18" stroke="black" stroke-width="2.79795" stroke-linecap="round" stroke-linejoin="round"/>
<path d="M275.99 577.135L274.238 582.734" stroke="black" stroke-width="2.79795" stroke-linecap="round" stroke-linejoin="round"/>
<path d="M280.476 575.074L276.979 582.734" stroke="black" stroke-width="2.79795" stroke-linecap="round" stroke-linejoin="round"/>
<path d="M283.786 574.505L280.476 581.978" stroke="black" stroke-width="2.79795" stroke-linecap="round" stroke-linejoin="round"/>
<path d="M285.483 575.074L283.123 581.222" stroke="black" stroke-width="2.79795" stroke-linecap="round" stroke-linejoin="round"/>
<path d="M295.359 574.258C295.359 574.258 293.052 576.68 288.8 574.505L285.116 581.222" stroke="black" stroke-width="2.79795" stroke-linecap="round" stroke-linejoin="round"/>
<path d="M292.196 576.017C292.196 576.017 300.988 583.677 298.621 592.662C296.261 601.647 289.261 605.427 289.261 605.427V644.316" stroke="black" stroke-width="2.79795" stroke-linecap="round" stroke-linejoin="round"/>
<path d="M271.59 579.931C271.59 579.931 266.662 587.15 267.932 592.923C269.196 598.697 271.957 602.216 276.979 603.206V645.333L357.58 644.322V622.761" stroke="black" stroke-width="2.79795" stroke-linecap="round" stroke-linejoin="round"/>
<path d="M285.484 527.816C285.484 527.816 282.522 528.05 281.251 529.321C279.981 530.592 279.934 548.669 279.934 548.669" stroke="black" stroke-width="2.79795" stroke-linecap="round" stroke-linejoin="round"/>
<path d="M306.913 528.458L346.407 529.261C346.407 529.261 350.927 530.331 352.024 534.472C353.12 538.613 352.024 570.833 352.024 570.833" stroke="black" stroke-width="2.79795" stroke-linecap="round" stroke-linejoin="round"/>
<path d="M340.885 577.737C340.885 577.737 345.699 570.425 353.408 570.833C361.111 571.247 364.139 579.918 364.688 583.497C365.236 587.076 363.177 595.88 358.911 596.777L357.58 616.947V618.566" stroke="black" stroke-width="2.79795" stroke-linecap="round" stroke-linejoin="round"/>
<path d="M331.396 610.17H340.857" stroke="black" stroke-width="2.79795" stroke-linecap="round" stroke-linejoin="round"/>
<path d="M289.267 610.17H313.184" stroke="black" stroke-width="2.79795" stroke-linecap="round" stroke-linejoin="round"/>
<path d="M341.847 611.642V643.526" stroke="black" stroke-width="2.79795" stroke-linecap="round" stroke-linejoin="round"/>
<path d="M327.693 636.776H340.885" stroke="black" stroke-width="2.79795" stroke-linecap="round" stroke-linejoin="round"/>
<path d="M290.231 636.776H318.032" stroke="black" stroke-width="2.79795" stroke-linecap="round" stroke-linejoin="round"/>
<path d="M286.473 524.243L303.837 523.909" stroke="black" stroke-width="2.79795" stroke-linecap="round" stroke-linejoin="round"/>
<path d="M558.931 178.858L573.574 161.022C575.593 158.567 575.239 154.934 572.778 152.92C570.325 150.9 566.694 151.255 564.681 153.717L516.802 212.027C514.783 214.482 515.137 218.115 517.598 220.128C520.052 222.149 523.682 221.794 525.695 219.332L535.49 207.404" stroke="black" stroke-width="2.79795" stroke-linecap="round" stroke-linejoin="round"/>
<path d="M546.616 175.713L503.096 164.521L529.419 196.66" stroke="black" stroke-width="2.79795" stroke-linecap="round" stroke-linejoin="round"/>
<path d="M558.931 178.858L565.45 180.584C565.45 180.584 574.724 183.393 574.724 189.14C574.724 194.887 565.892 195.77 565.892 195.77C565.892 195.77 569.723 199.008 567.657 202.105C565.591 205.203 558.972 203.43 558.972 203.43" stroke="black" stroke-width="2.79795" stroke-linecap="round" stroke-linejoin="round"/>
<path d="M546.616 175.713L558.932 178.858" stroke="black" stroke-width="2.79795" stroke-linecap="round" stroke-linejoin="round"/>
<path d="M563.859 203.939C563.859 203.939 569.562 204.139 572.257 205.277C572.738 205.477 573.233 205.731 573.728 206.039C576.977 208.073 584.024 215.934 583.142 220.811C582.259 225.688 574.403 220.811 574.403 220.811C574.403 220.811 570.88 236.332 561.399 225.621C561.399 225.621 557.333 208.341 546.295 212.067V208.066C546.295 208.066 537.222 211.592 537.222 214.643C537.222 217.693 539.502 313.976 539.502 313.976L530.068 320.198H607.058C607.058 320.198 593.332 310.972 591.834 307.105C590.336 303.238 577.251 269.34 577.251 269.34C577.251 269.34 581.323 268.156 580.467 262.309C579.612 256.462 574.985 252.602 574.724 244.875" stroke="black" stroke-width="2.79795" stroke-linecap="round" stroke-linejoin="round"/>
<path d="M570.84 204.822C570.84 204.822 577.74 204.099 580.555 199.376C583.37 194.653 603.709 158.58 603.709 158.58C603.709 158.58 606.343 150.224 605.708 148.405C605.073 146.585 608.884 149.676 609.158 151.582C609.432 153.489 609.158 162.942 609.158 162.942L618.171 153.924" stroke="black" stroke-width="2.79795" stroke-linecap="round" stroke-linejoin="round"/>
<path d="M596.046 174.77H597.838V210.274C597.838 210.274 599.917 216.931 603.294 212.649C604.858 210.662 605.299 208.013 604.624 205.571L599.335 186.524L604.277 176.336L624.79 174.262C624.79 174.262 625.986 172.656 621.647 171.887H614.62L627.009 160.875" stroke="black" stroke-width="2.79795" stroke-linecap="round" stroke-linejoin="round"/>
<path d="M575.894 267.233C575.894 267.233 565.885 243.463 565.645 240.934C565.404 238.406 562.435 233.649 568.56 229.267" stroke="black" stroke-width="2.79795" stroke-linecap="round" stroke-linejoin="round"/>
<path d="M542.859 239.603C542.859 239.603 557.381 270.37 577.245 269.347" stroke="black" stroke-width="2.79795" stroke-linecap="round" stroke-linejoin="round"/>
<path d="M538.024 250.816H548.287" stroke="black" stroke-width="2.79795" stroke-linecap="round" stroke-linejoin="round"/>
<path d="M535.436 207.404C535.971 207.973 536.666 208.468 537.555 208.862C537.555 208.862 540.183 210.481 545.559 208.381" stroke="black" stroke-width="2.79795" stroke-linecap="round" stroke-linejoin="round"/>
<path d="M533.164 192.097C533.15 195.195 535.825 196.024 535.825 196.024C535.825 196.024 531.693 203.43 535.437 207.397" stroke="black" stroke-width="2.79795" stroke-linecap="round" stroke-linejoin="round"/>
<path d="M581.531 222.831H585.516C585.516 222.831 583.29 227.153 581.531 227.153C579.773 227.153 575.901 226.731 575.901 226.731L576.824 227.153V232.344H582.648C582.648 232.344 582.16 229.006 583.978 227.588C585.803 226.169 587.976 225.467 587.976 225.467L585.87 234.592C585.87 234.592 585.509 236.981 581.939 237.543L578.369 238.104L585.242 245.336" stroke="black" stroke-width="2.79795" stroke-linecap="round" stroke-linejoin="round"/>
<path d="M574.571 239.603L583.129 247.718" stroke="black" stroke-width="2.79795" stroke-miterlimit="10" stroke-linecap="round"/>
<path d="M566.714 239.603L580.816 249.123" stroke="black" stroke-width="2.79795" stroke-miterlimit="10" stroke-linecap="round"/>
<path d="M585.515 222.831L601.315 214.081" stroke="black" stroke-width="2.79795" stroke-miterlimit="10" stroke-linecap="round"/>
<path d="M620.43 156.787L612.193 164.641" stroke="black" stroke-width="2.79795" stroke-linecap="round" stroke-linejoin="round"/>
<path d="M623.467 159.149L615.229 167.003" stroke="black" stroke-width="2.79795" stroke-linecap="round" stroke-linejoin="round"/>
<path d="M552.774 180.59C552.246 180.664 550.875 180.938 549.725 182.069C547.833 183.942 548.221 186.524 548.267 186.812" stroke="black" stroke-width="2.79795" stroke-linecap="round" stroke-linejoin="round"/>
<path d="M68.3854 229.755C69.8898 229.347 70.0302 223.995 70.0302 223.995C70.0302 223.995 64.5543 232.09 48.9355 227.421C33.3234 222.758 28.8036 203.417 28.8036 203.417H15.5183V210C15.5183 210 3.29611 206.708 1.65132 222.778C0.00653996 238.847 1.88534 244.955 2.90163 245.27C3.91792 245.584 8.76535 248.119 12.7971 245.751" stroke="black" stroke-width="2.79795" stroke-linecap="round" stroke-linejoin="round"/>
<path d="M74.369 230.311H70.0297" stroke="black" stroke-width="2.79795" stroke-linecap="round" stroke-linejoin="round"/>
<path d="M70.0297 232.525L74.369 233.027" stroke="black" stroke-width="2.79795" stroke-linecap="round" stroke-linejoin="round"/>
<path d="M69.7293 234.378L74.3695 234.806" stroke="black" stroke-width="2.79795" stroke-linecap="round" stroke-linejoin="round"/>
<path d="M70.0297 236.312L73.794 236.887" stroke="black" stroke-width="2.79795" stroke-linecap="round" stroke-linejoin="round"/>
<path d="M59.8203 234.024C59.8203 234.024 67.3756 239.81 74.3626 238.954" stroke="black" stroke-width="2.79795" stroke-linecap="round" stroke-linejoin="round"/>
<path d="M60.248 229.314L58.5363 239.041C58.5363 239.041 39.7149 240.025 33.0087 227.601L30.1538 241.095L36.2849 300.636H5.72938L13.0707 243.657L7.90906 224.122" stroke="black" stroke-width="2.79795" stroke-linecap="round" stroke-linejoin="round"/>
<path d="M22.8865 208.822C23.5751 208.822 24.1301 208.267 24.1301 207.578C24.1301 206.889 23.5751 206.334 22.8865 206.334C22.1978 206.334 21.6429 206.889 21.6429 207.578C21.6429 208.267 22.1978 208.822 22.8865 208.822Z" stroke="black" stroke-width="2.79795" stroke-linecap="round" stroke-linejoin="round"/>
<path d="M22.8865 220.142C23.5751 220.142 24.1301 219.587 24.1301 218.897C24.1301 218.208 23.5751 217.653 22.8865 217.653C22.1978 217.653 21.6429 218.208 21.6429 218.897C21.6429 219.587 22.1978 220.142 22.8865 220.142Z" stroke="black" stroke-width="2.79795" stroke-linecap="round" stroke-linejoin="round"/>
<path d="M22.5182 232.525C23.2069 232.525 23.7618 231.97 23.7618 231.281C23.7618 230.592 23.2069 230.036 22.5182 230.036C21.8295 230.036 21.2746 230.592 21.2746 231.281C21.2746 231.97 21.8295 232.525 22.5182 232.525Z" stroke="black" stroke-width="2.79795" stroke-linecap="round" stroke-linejoin="round"/>
<path d="M22.5182 245.925C23.2069 245.925 23.7618 245.37 23.7618 244.681C23.7618 243.992 23.2069 243.436 22.5182 243.436C21.8295 243.436 21.2746 243.992 21.2746 244.681C21.2746 245.37 21.8295 245.925 22.5182 245.925Z" stroke="black" stroke-width="2.79795" stroke-linecap="round" stroke-linejoin="round"/>
<path d="M22.5182 259.151C23.2069 259.151 23.7618 258.596 23.7618 257.907C23.7618 257.218 23.2069 256.663 22.5182 256.663C21.8295 256.663 21.2746 257.218 21.2746 257.907C21.2746 258.596 21.8295 259.151 22.5182 259.151Z" stroke="black" stroke-width="2.79795" stroke-linecap="round" stroke-linejoin="round"/>
<path d="M22.5182 271.541C23.2069 271.541 23.7618 270.986 23.7618 270.297C23.7618 269.608 23.2069 269.053 22.5182 269.053C21.8295 269.053 21.2746 269.608 21.2746 270.297C21.2746 270.986 21.8295 271.541 22.5182 271.541Z" stroke="black" stroke-width="2.79795" stroke-linecap="round" stroke-linejoin="round"/>
<path d="M22.5182 284.767C23.2069 284.767 23.7618 284.212 23.7618 283.523C23.7618 282.834 23.2069 282.279 22.5182 282.279C21.8295 282.279 21.2746 282.834 21.2746 283.523C21.2746 284.212 21.8295 284.767 22.5182 284.767Z" stroke="black" stroke-width="2.79795" stroke-linecap="round" stroke-linejoin="round"/>
<path d="M11.8683 301.666C11.8683 301.666 9.17378 309.741 16.1808 325.851H20.7073V301.238H22.2184V325.851H26.5309C26.5309 325.851 34.2935 304.369 32.3545 301.238" stroke="black" stroke-width="2.79795" stroke-linecap="round" stroke-linejoin="round"/>
<path d="M26.5299 325.851C26.5299 325.851 28.0477 328.125 30.9428 329.497C33.8378 330.862 34.9277 333.27 32.1997 333.444C29.4651 333.618 24.8851 329.443 24.8851 329.443V333.444H18.1188V329.229C18.1188 329.229 14.8025 334.407 9.27974 333.437C8.44398 333.29 8.51753 331.196 10.8644 330.433C13.2112 329.671 16.1865 325.858 16.1865 325.858H26.5366L26.5299 325.851Z" stroke="black" stroke-width="2.79795" stroke-linecap="round" stroke-linejoin="round"/>
<path d="M21.2811 325.851V333.437" stroke="black" stroke-width="2.79795" stroke-linecap="round" stroke-linejoin="round"/>
<path d="M15.3711 194.305L15.1505 190.659C15.0836 189.609 14.4551 188.672 13.4923 188.237C7.78904 185.661 11.0585 183.072 14.0406 180.296C16.7819 177.74 14.5353 173.653 13.8065 172.495C13.5525 172.087 13.3853 171.632 13.3653 171.151C13.3185 170.013 13.9603 168.281 18.0389 167.846C24.2569 167.177 28.5829 172.957 31.2506 176.851C32.2803 178.356 31.839 179.293 30.9029 179.875C28.9707 181.092 29.1512 183.976 31.2372 184.905C31.7186 185.12 32.18 185.293 32.5745 185.434C33.4169 185.735 34.0655 186.404 34.3329 187.26C34.7809 188.685 35.5565 190.933 36.4658 192.746C37.2013 194.225 37.4754 195.549 37.569 196.499C37.6626 197.449 37.2815 198.359 36.5594 198.948C33.437 201.497 30.4082 199.978 28.7567 198.707L28.8035 203.417" stroke="black" stroke-width="2.79795" stroke-linecap="round" stroke-linejoin="round"/>
<path d="M21.6832 168.194C21.6832 168.194 22.5858 162.574 18.1061 161.725C17.3038 161.571 16.4747 161.785 15.8328 162.293C15.3247 162.695 14.6427 163.243 13.9273 163.845C12.4831 165.07 10.5976 166.515 9.929 166.515C9.32725 166.515 7.43508 168.441 7.59554 173.88C7.62229 174.87 7.1342 175.794 6.3185 176.356C4.9679 177.286 3.26294 179.206 4.25249 182.691C4.38621 183.153 4.64697 183.567 4.99465 183.909L7.32141 186.17C7.87636 186.712 8.19061 187.448 8.18392 188.224C8.18392 190.144 8.74556 193.863 13.1651 194.332C14.4756 194.472 15.5119 195.509 15.6657 196.82L15.9666 199.282L15.5052 203.423" stroke="black" stroke-width="2.79795" stroke-linecap="round" stroke-linejoin="round"/>
<path d="M28.4687 188.264C28.4687 188.264 30.6885 189.488 33.1289 186.484" stroke="black" stroke-width="2.79795" stroke-linecap="round" stroke-linejoin="round"/>
<path d="M21.2547 170.696C21.2547 170.696 21.3684 175.513 17.925 175.513" stroke="black" stroke-width="2.79795" stroke-linecap="round" stroke-linejoin="round"/>
<path d="M247.386 165.725C247.386 165.725 247.386 188.277 249.265 191.803C251.144 195.329 258.184 191.803 258.184 191.803L263.112 219.754C263.112 219.754 264.048 224.45 270.627 219.754C277.2 215.057 284.247 199.55 278.142 190.625C272.038 181.701 263.934 174.884 263.934 174.884C263.934 174.884 270.634 170.187 265.466 165.725C260.304 161.263 257.716 165.725 257.716 165.725V160.56L247.386 165.725Z" stroke="black" stroke-width="2.79795" stroke-linecap="round" stroke-linejoin="round"/>
<path d="M270.327 181.039C279.888 166.053 268.047 159.376 268.047 159.376C268.047 159.376 267.579 151.623 258.653 150.452C249.733 149.274 245.976 159.376 245.976 159.376C245.976 159.376 242.927 163.37 247.387 165.718" stroke="black" stroke-width="2.79795" stroke-linecap="round" stroke-linejoin="round"/>
<path d="M279.527 224.999L275.067 215.004" stroke="black" stroke-width="2.79795" stroke-linecap="round" stroke-linejoin="round"/>
<path d="M296.703 262.49H287.002V248.755L261.936 270.257L259.509 267.273C259.509 267.273 258.125 279.817 244.96 278.92L250.001 270.859C250.001 270.859 241.048 270.558 242.539 269.367C244.03 268.169 255.076 260.108 255.076 260.108L283.726 234.425L282.743 232.224" stroke="black" stroke-width="2.79795" stroke-linecap="round" stroke-linejoin="round"/>
<path d="M280.476 196.198C280.476 196.198 307.16 223.969 309.467 239.496C311.774 255.024 309.467 262.49 309.467 262.49H302.594" stroke="black" stroke-width="2.79795" stroke-linecap="round" stroke-linejoin="round"/>
<path d="M309.467 262.49L287.904 323.409H278.952L280.483 318.037C280.483 318.037 270.053 324.339 269.103 313.856L276.438 315.053L287.009 262.496" stroke="black" stroke-width="2.79795" stroke-linecap="round" stroke-linejoin="round"/>
<path d="M276.432 315.04L290.011 317.441" stroke="black" stroke-width="2.79795" stroke-linecap="round" stroke-linejoin="round"/>
<path d="M294.905 303.627C294.905 303.627 300.534 315.762 310.497 314.799L313.218 307.199C313.218 307.199 300.568 297.88 301.531 284.921" stroke="black" stroke-width="2.79795" stroke-linecap="round" stroke-linejoin="round"/>
<path d="M313.218 307.199L319.008 309.614L317.196 313.956L314.301 313.474C314.301 313.474 318.159 321.195 311.526 322.767H308.511L310.49 314.806" stroke="black" stroke-width="2.79795" stroke-linecap="round" stroke-linejoin="round"/>
<path d="M255.075 260.101L259.508 267.266" stroke="black" stroke-width="2.79795" stroke-linecap="round" stroke-linejoin="round"/>
<path d="M275.963 217.018L289.522 206.374" stroke="black" stroke-width="2.79795" stroke-linecap="round" stroke-linejoin="round"/>
<path d="M258.185 191.796C258.185 191.796 267.532 186.177 267.445 178.115" stroke="black" stroke-width="2.79795" stroke-linecap="round" stroke-linejoin="round"/>
<path d="M259.629 199.998C263.935 199.028 268.114 201.651 269.096 205.444C270.18 209.632 267.137 214.368 262.283 215.037" stroke="black" stroke-width="2.79795" stroke-linecap="round" stroke-linejoin="round"/>
<path d="M261.206 208.923C261.387 208.943 263.593 209.163 265.084 207.417C266.448 205.825 266.094 203.898 266.047 203.664" stroke="black" stroke-width="2.79795" stroke-linecap="round" stroke-linejoin="round"/>
<path d="M251.92 170.595C252.596 170.562 254.835 170.522 256.721 172.107C257.436 172.71 257.898 173.372 258.185 173.894" stroke="black" stroke-width="2.79795" stroke-linecap="round" stroke-linejoin="round"/>
<path d="M302.593 262.49C302.58 262.724 302.039 265.125 302.025 265.346C301.657 271.708 305.408 277.663 311.406 279.817C312.937 280.365 315.036 280.171 317.069 280.486C327.111 282.051 329.298 292.528 329.759 297.666C330 300.308 330.983 302.844 332.721 304.851C334.226 306.59 336.164 308.009 338.157 307.206L336.398 313.28C336.398 313.28 327.533 310.45 325.407 298.402C323.28 286.36 319.469 284.928 310.503 284.928C301.537 284.928 297.138 275.408 296.683 261.633C296.222 247.865 294.49 242.834 293.928 241.282C292.103 236.205 287.904 232.492 282.602 231.889" stroke="black" stroke-width="2.79795" stroke-linecap="round" stroke-linejoin="round"/>
<path d="M282.596 231.883C278.082 231.374 272.767 233.12 267.452 238.212L224.46 314.979C224.46 314.979 220.936 320.766 218.128 314.852L261.213 237.576C261.213 237.576 278.116 213.398 294.911 231.796C302.46 240.058 303.002 254.348 302.6 262.49" stroke="black" stroke-width="2.79795" stroke-linecap="round" stroke-linejoin="round"/>
<path d="M218.122 314.933C216.724 314.953 215.808 314.98 215.808 314.98C215.808 314.98 207.638 314.391 205.137 322.76H235.044C235.044 322.76 234.543 316.545 230.691 315.548C229.388 315.214 226.974 315.046 224.467 314.973" stroke="black" stroke-width="2.79795" stroke-linecap="round" stroke-linejoin="round"/>
<path d="M336.386 313.274L343.506 284.393C343.533 284.286 343.567 284.179 343.607 284.078C344.028 283.041 346.562 277.295 350.734 277.295H387.835C391.934 277.295 395.544 279.951 396.808 283.858C399.315 291.631 402.164 304.523 396.895 312.384C395.096 315.066 392.007 316.605 388.771 316.605H338.545C336.927 316.605 335.797 315.013 336.325 313.481C336.352 313.414 336.372 313.347 336.386 313.274Z" stroke="black" stroke-width="2.79795" stroke-linecap="round" stroke-linejoin="round"/>
<path d="M342.978 322.767C346.494 322.767 349.344 319.915 349.344 316.398C349.344 312.88 346.494 310.029 342.978 310.029C339.463 310.029 336.613 312.88 336.613 316.398C336.613 319.915 339.463 322.767 342.978 322.767Z" stroke="black" stroke-width="2.79795" stroke-linecap="round" stroke-linejoin="round"/>
<path d="M378.381 323.402C384.359 323.402 389.206 318.553 389.206 312.571C389.206 306.589 384.359 301.74 378.381 301.74C372.403 301.74 367.556 306.589 367.556 312.571C367.556 318.553 372.403 323.402 378.381 323.402Z" stroke="black" stroke-width="2.79795" stroke-linecap="round" stroke-linejoin="round"/>
<path d="M343.613 284.078H396.808" stroke="black" stroke-width="2.79795" stroke-linecap="round" stroke-linejoin="round"/>
<path d="M261.206 237.576L267.451 238.212" stroke="black" stroke-width="2.79795" stroke-linecap="round" stroke-linejoin="round"/>
<path d="M199.208 536.232C103.175 536.232 25.1258 459.182 23.4376 363.494" stroke="black" stroke-width="3.7306" stroke-linecap="round" stroke-linejoin="round"/>
<path d="M36.5484 381.134C35.9506 381.542 35.1296 381.377 34.7223 380.779L23.503 364.092L13.1377 381.325C12.7633 381.949 11.9553 382.146 11.3313 381.772C10.7139 381.397 10.5102 380.582 10.8847 379.964L22.3141 360.963C22.544 360.582 22.9578 360.339 23.4045 360.326C23.8512 360.313 24.2781 360.536 24.5277 360.904L36.9031 379.3C37.0476 379.517 37.1199 379.761 37.1264 379.997C37.1396 380.431 36.9359 380.858 36.5484 381.121V381.134Z" fill="black"/>
<path d="M559 370.393C559 465.389 482.872 542.594 388.328 544.264" stroke="black" stroke-width="3.7306" stroke-linecap="round" stroke-linejoin="round"/>
<path d="M405.751 531.295C406.154 531.886 405.992 532.698 405.401 533.101L388.913 544.199L405.94 554.453C406.556 554.823 406.751 555.622 406.381 556.239C406.011 556.85 405.206 557.052 404.595 556.681L385.822 545.375C385.438 545.148 385.205 544.739 385.192 544.297C385.179 543.855 385.399 543.432 385.763 543.186L403.939 530.944C404.154 530.801 404.394 530.73 404.628 530.723C405.056 530.71 405.479 530.911 405.738 531.295H405.751Z" fill="black"/>
<path d="M354.626 523.602C354.626 428.605 430.753 351.4 525.298 349.73" stroke="black" stroke-width="3.7306" stroke-linecap="round" stroke-linejoin="round"/>
<path d="M507.869 362.706C507.466 362.115 507.629 361.302 508.22 360.9L524.708 349.802L507.681 339.548C507.064 339.178 506.869 338.379 507.239 337.761C507.609 337.151 508.415 336.949 509.025 337.319L527.799 348.625C528.175 348.853 528.416 349.262 528.429 349.704C528.442 350.146 528.221 350.568 527.857 350.815L509.681 363.057C509.467 363.2 509.226 363.271 508.992 363.278C508.564 363.291 508.142 363.089 507.882 362.706H507.869Z" fill="black"/>
<path d="M312.743 340.964V443.495" stroke="black" stroke-width="3.7306" stroke-linecap="round" stroke-linejoin="round"/>
<path d="M299.906 425.204C300.528 424.81 301.357 424.99 301.752 425.612L312.744 442.879L323.736 425.612C324.13 424.99 324.959 424.803 325.581 425.204C326.203 425.599 326.383 426.435 325.989 427.051L313.874 446.091C313.626 446.479 313.205 446.713 312.744 446.713C312.282 446.713 311.861 446.479 311.614 446.091L299.498 427.051C299.358 426.83 299.291 426.576 299.291 426.335C299.291 425.893 299.512 425.459 299.913 425.204H299.906Z" fill="black"/>
<path d="M273.81 344.181V446.713" stroke="black" stroke-width="3.7306" stroke-linecap="round" stroke-linejoin="round"/>
<path d="M260.973 362.472C261.594 362.867 262.424 362.686 262.818 362.064L273.81 344.797L284.802 362.064C285.196 362.686 286.026 362.873 286.647 362.472C287.269 362.071 287.45 361.241 287.055 360.626L274.94 341.586C274.693 341.198 274.271 340.964 273.81 340.964C273.349 340.964 272.927 341.198 272.68 341.586L260.565 360.626C260.424 360.846 260.358 361.101 260.358 361.341C260.358 361.783 260.578 362.218 260.979 362.472H260.973Z" fill="black"/>
<path d="M493.722 260.235H391.258" stroke="black" stroke-width="3.7306" stroke-linecap="round" stroke-linejoin="round"/>
<path d="M475.443 247.397C475.048 248.019 475.229 248.849 475.851 249.243L493.107 260.242L475.851 271.24C475.229 271.635 475.042 272.464 475.443 273.087C475.844 273.709 476.673 273.889 477.288 273.495L496.317 261.372C496.705 261.125 496.939 260.703 496.939 260.242C496.939 259.78 496.705 259.359 496.317 259.111L477.288 246.989C477.067 246.848 476.813 246.781 476.573 246.781C476.131 246.781 475.697 247.002 475.443 247.404V247.397Z" fill="black"/>
<path d="M496.939 221.286H394.474" stroke="black" stroke-width="3.7306" stroke-linecap="round" stroke-linejoin="round"/>
<path d="M412.747 208.441C413.142 209.063 412.961 209.893 412.34 210.287L395.083 221.286L412.34 232.284C412.961 232.679 413.149 233.508 412.747 234.131C412.346 234.753 411.517 234.933 410.902 234.539L391.873 222.416C391.486 222.169 391.252 221.747 391.252 221.286C391.252 220.824 391.486 220.403 391.873 220.155L410.902 208.033C411.123 207.892 411.377 207.825 411.617 207.825C412.059 207.825 412.493 208.046 412.747 208.448V208.441Z" fill="black"/>
<path d="M190.962 260.235H88.4904" stroke="black" stroke-width="3.7306" stroke-linecap="round" stroke-linejoin="round"/>
<path d="M106.77 247.397C107.164 248.019 106.984 248.849 106.362 249.243L89.1052 260.242L106.362 271.24C106.984 271.635 107.171 272.464 106.77 273.087C106.375 273.709 105.54 273.889 104.925 273.495L85.8959 261.372C85.5081 261.125 85.2741 260.703 85.2741 260.242C85.2741 259.78 85.5081 259.359 85.8959 259.111L104.925 246.982C105.145 246.842 105.399 246.775 105.64 246.775C106.081 246.775 106.516 246.996 106.77 247.397Z" fill="black"/>
<path d="M187.746 221.279H85.2813" stroke="black" stroke-width="3.7306" stroke-linecap="round" stroke-linejoin="round"/>
<path d="M169.466 208.441C169.072 209.063 169.252 209.893 169.874 210.287L187.131 221.286L169.874 232.284C169.252 232.679 169.065 233.508 169.466 234.131C169.868 234.753 170.697 234.933 171.312 234.539L190.34 222.41C190.728 222.162 190.962 221.741 190.962 221.279C190.962 220.817 190.728 220.396 190.34 220.148L171.312 208.026C171.091 207.886 170.837 207.819 170.596 207.819C170.155 207.819 169.721 208.04 169.466 208.441Z" fill="black"/>
<path d="M26.3501 501.798C72.6782 624.406 193.075 703.71 322.873 697.301C450.009 691.026 560.464 603.774 596.776 480.457" stroke="black" stroke-width="3.7306" stroke-linecap="round" stroke-linejoin="round"/>
<path d="M21.0674 523.487C21.7895 523.635 22.4982 523.16 22.6386 522.437L26.6236 502.354L43.1249 514.456C43.72 514.891 44.5624 514.764 44.997 514.168C45.4316 513.573 45.2979 512.73 44.7095 512.295L26.5166 498.948C26.1489 498.681 25.6675 498.614 25.2395 498.781C24.8116 498.948 24.5041 499.316 24.4105 499.765L20.0177 521.909C19.9642 522.169 19.9909 522.424 20.0845 522.651C20.245 523.059 20.6061 523.387 21.0741 523.481L21.0674 523.487Z" fill="black"/>
<path d="M547.894 131.251C531.62 109.743 444.393 3.59924 295.56 1.37146C130.165 -1.09716 36.4995 126.963 28.6968 138.035" stroke="black" stroke-width="3.7306" stroke-linecap="round" stroke-linejoin="round"/>
<path d="M547.206 108.92C546.47 108.974 545.915 109.616 545.975 110.359L547.527 130.77L528.384 123.545C527.696 123.284 526.92 123.632 526.659 124.321C526.398 125.01 526.753 125.786 527.435 126.047L548.543 134.014C548.971 134.175 549.452 134.108 549.82 133.834C550.188 133.56 550.388 133.118 550.355 132.663L548.65 110.158C548.63 109.897 548.536 109.656 548.389 109.455C548.122 109.101 547.687 108.887 547.219 108.92H547.206Z" fill="black"/>
<path d="M60.1488 337C156.183 337 234.231 414.049 235.919 509.738" stroke="black" stroke-width="3.7306" stroke-linecap="round" stroke-linejoin="round"/>
<path d="M222.801 492.098C223.399 491.69 224.22 491.854 224.627 492.453L235.847 509.14L246.212 491.907C246.586 491.283 247.394 491.085 248.018 491.46C248.636 491.835 248.839 492.65 248.465 493.268L237.036 512.269C236.806 512.65 236.392 512.893 235.945 512.906C235.498 512.919 235.071 512.696 234.822 512.328L222.447 493.931C222.302 493.714 222.23 493.471 222.223 493.235C222.21 492.801 222.414 492.374 222.801 492.111V492.098Z" fill="black"/>
<path d="M310.044 183.2C309.154 183.2 308.33 183.039 307.573 182.716C306.828 182.394 306.171 181.943 305.604 181.364C305.047 180.786 304.614 180.107 304.302 179.328C303.99 178.549 303.835 177.698 303.835 176.774C303.835 175.851 303.985 174.999 304.285 174.22C304.597 173.43 305.031 172.751 305.587 172.184C306.155 171.605 306.817 171.16 307.573 170.849C308.33 170.526 309.154 170.365 310.044 170.365C310.934 170.365 311.73 170.515 312.431 170.815C313.143 171.116 313.744 171.516 314.233 172.017C314.723 172.507 315.073 173.046 315.285 173.636L313.249 174.588C313.015 173.964 312.62 173.453 312.063 173.052C311.507 172.64 310.834 172.434 310.044 172.434C309.265 172.434 308.575 172.618 307.974 172.985C307.384 173.352 306.922 173.859 306.589 174.504C306.266 175.149 306.105 175.906 306.105 176.774C306.105 177.642 306.266 178.404 306.589 179.061C306.922 179.706 307.384 180.213 307.974 180.58C308.575 180.947 309.265 181.131 310.044 181.131C310.834 181.131 311.507 180.93 312.063 180.53C312.62 180.118 313.015 179.601 313.249 178.977L315.285 179.929C315.073 180.519 314.723 181.064 314.233 181.565C313.744 182.054 313.143 182.449 312.431 182.75C311.73 183.05 310.934 183.2 310.044 183.2ZM316.61 183V170.365H318.797V183H316.61ZM324.788 183.2C323.854 183.2 323.036 182.989 322.335 182.566C321.634 182.143 321.088 181.57 320.699 180.847C320.31 180.124 320.115 179.322 320.115 178.443C320.115 177.531 320.31 176.724 320.699 176.023C321.1 175.311 321.639 174.749 322.318 174.337C323.008 173.925 323.776 173.72 324.621 173.72C325.334 173.72 325.957 173.836 326.491 174.07C327.036 174.304 327.498 174.626 327.876 175.038C328.255 175.45 328.544 175.923 328.744 176.457C328.945 176.98 329.045 177.547 329.045 178.159C329.045 178.315 329.034 178.477 329.011 178.644C329 178.81 328.972 178.955 328.928 179.078H321.917V177.408H327.693L326.658 178.193C326.758 177.681 326.73 177.225 326.574 176.824C326.43 176.424 326.185 176.106 325.84 175.873C325.506 175.639 325.1 175.522 324.621 175.522C324.165 175.522 323.759 175.639 323.403 175.873C323.047 176.095 322.774 176.429 322.585 176.874C322.407 177.308 322.34 177.837 322.385 178.46C322.34 179.016 322.413 179.511 322.602 179.945C322.802 180.368 323.091 180.697 323.47 180.93C323.859 181.164 324.304 181.281 324.805 181.281C325.306 181.281 325.729 181.175 326.074 180.964C326.43 180.752 326.708 180.468 326.908 180.112L328.678 180.98C328.499 181.414 328.221 181.798 327.843 182.132C327.465 182.466 327.014 182.727 326.491 182.917C325.979 183.106 325.412 183.2 324.788 183.2ZM333.09 183.2C332.456 183.2 331.905 183.095 331.437 182.883C330.97 182.672 330.608 182.371 330.353 181.982C330.097 181.581 329.969 181.119 329.969 180.596C329.969 180.096 330.08 179.651 330.302 179.261C330.525 178.861 330.87 178.527 331.337 178.26C331.805 177.993 332.394 177.803 333.107 177.692L336.078 177.208V178.877L333.524 179.311C333.09 179.389 332.767 179.528 332.556 179.728C332.344 179.929 332.239 180.19 332.239 180.513C332.239 180.825 332.355 181.075 332.589 181.264C332.834 181.442 333.134 181.531 333.491 181.531C333.947 181.531 334.347 181.437 334.692 181.247C335.048 181.047 335.321 180.774 335.51 180.43C335.71 180.085 335.811 179.706 335.811 179.295V176.958C335.811 176.568 335.655 176.246 335.343 175.99C335.043 175.723 334.642 175.589 334.141 175.589C333.674 175.589 333.257 175.717 332.89 175.973C332.534 176.218 332.272 176.546 332.105 176.958L330.319 176.09C330.497 175.611 330.775 175.2 331.154 174.855C331.543 174.499 331.999 174.22 332.522 174.02C333.045 173.82 333.613 173.72 334.225 173.72C334.97 173.72 335.627 173.859 336.195 174.137C336.762 174.404 337.202 174.782 337.513 175.272C337.836 175.75 337.997 176.312 337.997 176.958V183H335.927V181.448L336.395 181.414C336.161 181.804 335.883 182.132 335.56 182.399C335.238 182.655 334.87 182.855 334.459 183C334.047 183.134 333.591 183.2 333.09 183.2ZM339.684 183V173.92H341.737V175.706L341.57 175.389C341.782 174.843 342.127 174.432 342.605 174.154C343.095 173.864 343.662 173.72 344.308 173.72C344.975 173.72 345.565 173.864 346.077 174.154C346.6 174.443 347.006 174.849 347.296 175.372C347.585 175.884 347.73 176.479 347.73 177.158V183H345.543V177.675C345.543 177.275 345.465 176.93 345.309 176.641C345.154 176.351 344.937 176.129 344.658 175.973C344.391 175.806 344.074 175.723 343.707 175.723C343.351 175.723 343.034 175.806 342.756 175.973C342.477 176.129 342.26 176.351 342.105 176.641C341.949 176.93 341.871 177.275 341.871 177.675V183H339.684ZM353.551 183.2C352.616 183.2 351.798 182.989 351.097 182.566C350.396 182.143 349.851 181.57 349.462 180.847C349.072 180.124 348.877 179.322 348.877 178.443C348.877 177.531 349.072 176.724 349.462 176.023C349.862 175.311 350.402 174.749 351.081 174.337C351.771 173.925 352.538 173.72 353.384 173.72C354.096 173.72 354.719 173.836 355.254 174.07C355.799 174.304 356.261 174.626 356.639 175.038C357.017 175.45 357.307 175.923 357.507 176.457C357.707 176.98 357.807 177.547 357.807 178.159C357.807 178.315 357.796 178.477 357.774 178.644C357.763 178.81 357.735 178.955 357.691 179.078H350.68V177.408H356.455L355.421 178.193C355.521 177.681 355.493 177.225 355.337 176.824C355.192 176.424 354.948 176.106 354.603 175.873C354.269 175.639 353.863 175.522 353.384 175.522C352.928 175.522 352.522 175.639 352.166 175.873C351.81 176.095 351.537 176.429 351.348 176.874C351.17 177.308 351.103 177.837 351.148 178.46C351.103 179.016 351.175 179.511 351.365 179.945C351.565 180.368 351.854 180.697 352.232 180.93C352.622 181.164 353.067 181.281 353.568 181.281C354.069 181.281 354.491 181.175 354.836 180.964C355.192 180.752 355.471 180.468 355.671 180.112L357.44 180.98C357.262 181.414 356.984 181.798 356.606 182.132C356.227 182.466 355.777 182.727 355.254 182.917C354.742 183.106 354.174 183.2 353.551 183.2ZM359.131 183V173.92H361.184V175.94L361.017 175.639C361.229 174.96 361.557 174.487 362.002 174.22C362.458 173.953 363.004 173.82 363.638 173.82H364.172V175.756H363.387C362.764 175.756 362.264 175.951 361.885 176.34C361.507 176.718 361.318 177.253 361.318 177.943V183H359.131Z" fill="black"/>
<path d="M46.3381 322V308.154H52.174C53.0909 308.154 53.8714 308.315 54.5157 308.637C55.1724 308.947 55.6742 309.393 56.0212 309.975C56.3805 310.545 56.5601 311.239 56.5601 312.057C56.5601 312.689 56.3867 313.283 56.0397 313.841C55.7052 314.386 55.1662 314.838 54.4228 315.198V314.027C55.1043 314.287 55.6432 314.609 56.0397 314.993C56.4362 315.377 56.715 315.805 56.8761 316.276C57.0372 316.747 57.1177 317.242 57.1177 317.763C57.1177 319.088 56.6778 320.129 55.7981 320.885C54.9308 321.628 53.7228 322 52.174 322H46.3381ZM48.8658 319.77H52.4342C53.0909 319.77 53.6112 319.59 53.9953 319.231C54.3918 318.859 54.5901 318.37 54.5901 317.763C54.5901 317.155 54.3918 316.666 53.9953 316.294C53.6112 315.923 53.0909 315.737 52.4342 315.737H48.8658V319.77ZM48.8658 313.525H52.3041C52.8245 313.525 53.2395 313.376 53.5493 313.079C53.859 312.769 54.0139 312.373 54.0139 311.89C54.0139 311.406 53.859 311.022 53.5493 310.737C53.2395 310.452 52.8245 310.31 52.3041 310.31H48.8658V313.525ZM62.2176 322.223C61.4371 322.223 60.7556 322.05 60.1732 321.703C59.6033 321.356 59.1634 320.872 58.8537 320.253C58.5563 319.633 58.4076 318.909 58.4076 318.078V311.89H60.8423V317.874C60.8423 318.295 60.9229 318.667 61.0839 318.989C61.2574 319.299 61.499 319.547 61.8088 319.733C62.1309 319.906 62.4902 319.993 62.8867 319.993C63.2832 319.993 63.6363 319.906 63.9461 319.733C64.2558 319.547 64.4975 319.293 64.6709 318.971C64.8444 318.648 64.9311 318.264 64.9311 317.818V311.89H67.3658V322H65.0612V320.011L65.2657 320.364C65.0302 320.984 64.6399 321.449 64.0948 321.758C63.562 322.068 62.9363 322.223 62.2176 322.223ZM73.8665 322.112C72.7266 322.112 71.8407 321.802 71.2088 321.182C70.5893 320.55 70.2795 319.664 70.2795 318.525V314.064H68.5325V311.89H68.7183C69.2139 311.89 69.598 311.759 69.8706 311.499C70.1432 311.239 70.2795 310.861 70.2795 310.366V309.585H72.7142V311.89H75.0374V314.064H72.7142V318.394C72.7142 318.729 72.77 319.014 72.8815 319.249C73.0054 319.485 73.1912 319.664 73.439 319.788C73.6992 319.912 74.0276 319.974 74.4241 319.974C74.5108 319.974 74.6099 319.968 74.7214 319.956C74.8453 319.943 74.963 319.931 75.0745 319.918V322C74.9011 322.025 74.7028 322.05 74.4798 322.074C74.2568 322.099 74.0523 322.112 73.8665 322.112ZM76.563 322V307.931H78.9977V322H76.563ZM85.669 322.223C84.6282 322.223 83.7175 321.988 82.9369 321.517C82.1563 321.046 81.5492 320.408 81.1155 319.602C80.6819 318.797 80.465 317.905 80.465 316.926C80.465 315.91 80.6819 315.012 81.1155 314.231C81.5616 313.438 82.1625 312.813 82.9183 312.354C83.6865 311.896 84.5414 311.667 85.4831 311.667C86.2761 311.667 86.9699 311.797 87.5647 312.057C88.1718 312.317 88.686 312.676 89.1073 313.135C89.5285 313.593 89.8507 314.12 90.0737 314.715C90.2967 315.297 90.4082 315.929 90.4082 316.61C90.4082 316.784 90.3958 316.963 90.3711 317.149C90.3587 317.335 90.3277 317.496 90.2781 317.632H82.4723V315.774H88.9028L87.7505 316.647C87.862 316.077 87.8311 315.569 87.6576 315.123C87.4965 314.677 87.2239 314.324 86.8398 314.064C86.4681 313.804 86.0159 313.674 85.4831 313.674C84.9751 313.674 84.5229 313.804 84.1264 314.064C83.7299 314.312 83.4263 314.684 83.2157 315.179C83.0174 315.662 82.9431 316.251 82.9927 316.945C82.9431 317.564 83.0236 318.116 83.2343 318.599C83.4573 319.07 83.7794 319.435 84.2007 319.695C84.6344 319.956 85.13 320.086 85.6875 320.086C86.2451 320.086 86.7159 319.968 87.1 319.733C87.4965 319.497 87.8063 319.181 88.0293 318.785L89.9994 319.751C89.8011 320.234 89.4914 320.662 89.0701 321.034C88.6488 321.405 88.147 321.696 87.5647 321.907C86.9947 322.118 86.3628 322.223 85.669 322.223ZM91.8821 322V311.89H94.1681V314.138L93.9823 313.804C94.2177 313.048 94.5832 312.521 95.0788 312.224C95.5868 311.927 96.194 311.778 96.9002 311.778H97.4949V313.934H96.6214C95.9276 313.934 95.37 314.151 94.9487 314.584C94.5275 315.006 94.3168 315.6 94.3168 316.369V322H91.8821Z" fill="black"/>
<path d="M273.66 677V665.788H270.197V663.635H279.526V665.788H276.117V677H273.66ZM280.459 677V663.42H282.809V669.16L282.486 668.82C282.713 668.234 283.084 667.791 283.598 667.492C284.124 667.181 284.734 667.026 285.428 667.026C286.145 667.026 286.779 667.181 287.329 667.492C287.891 667.803 288.328 668.24 288.639 668.802C288.95 669.352 289.105 669.992 289.105 670.721V677H286.755V671.277C286.755 670.847 286.672 670.476 286.504 670.165C286.337 669.854 286.103 669.615 285.804 669.448C285.517 669.268 285.177 669.178 284.782 669.178C284.399 669.178 284.058 669.268 283.759 669.448C283.46 669.615 283.227 669.854 283.06 670.165C282.892 670.476 282.809 670.847 282.809 671.277V677H280.459ZM295.362 677.215C294.357 677.215 293.478 676.988 292.725 676.534C291.972 676.079 291.386 675.463 290.967 674.686C290.548 673.908 290.339 673.047 290.339 672.103C290.339 671.122 290.548 670.255 290.967 669.501C291.397 668.736 291.978 668.132 292.707 667.689C293.449 667.247 294.274 667.026 295.183 667.026C295.948 667.026 296.618 667.151 297.192 667.402C297.778 667.654 298.274 668 298.681 668.443C299.087 668.885 299.398 669.394 299.614 669.968C299.829 670.53 299.937 671.14 299.937 671.798C299.937 671.965 299.925 672.138 299.901 672.318C299.889 672.497 299.859 672.653 299.811 672.784H292.276V670.99H298.484L297.371 671.833C297.479 671.283 297.449 670.793 297.282 670.362C297.126 669.932 296.863 669.591 296.492 669.34C296.133 669.089 295.697 668.963 295.183 668.963C294.692 668.963 294.256 669.089 293.873 669.34C293.49 669.579 293.197 669.938 292.994 670.416C292.803 670.883 292.731 671.451 292.779 672.12C292.731 672.718 292.809 673.251 293.012 673.717C293.227 674.172 293.538 674.524 293.945 674.776C294.363 675.027 294.842 675.152 295.38 675.152C295.918 675.152 296.373 675.039 296.743 674.811C297.126 674.584 297.425 674.279 297.64 673.896L299.542 674.829C299.351 675.296 299.052 675.708 298.645 676.067C298.238 676.426 297.754 676.707 297.192 676.91C296.642 677.114 296.032 677.215 295.362 677.215ZM301.359 677V667.241H303.566V669.412L303.386 669.089C303.614 668.359 303.966 667.851 304.445 667.564C304.935 667.277 305.521 667.133 306.203 667.133H306.777V669.214H305.934C305.264 669.214 304.726 669.424 304.319 669.842C303.913 670.249 303.709 670.823 303.709 671.564V677H301.359ZM310.67 677.215C309.989 677.215 309.397 677.102 308.894 676.874C308.392 676.647 308.003 676.324 307.728 675.906C307.453 675.475 307.316 674.979 307.316 674.417C307.316 673.879 307.435 673.4 307.674 672.982C307.914 672.551 308.284 672.192 308.787 671.905C309.289 671.618 309.923 671.415 310.688 671.295L313.881 670.775V672.569L311.137 673.035C310.67 673.119 310.323 673.269 310.096 673.484C309.869 673.699 309.755 673.98 309.755 674.327C309.755 674.662 309.881 674.931 310.132 675.134C310.395 675.326 310.718 675.421 311.101 675.421C311.591 675.421 312.022 675.32 312.392 675.116C312.775 674.901 313.068 674.608 313.271 674.237C313.487 673.867 313.594 673.46 313.594 673.017V670.506C313.594 670.087 313.427 669.741 313.092 669.465C312.769 669.178 312.339 669.035 311.8 669.035C311.298 669.035 310.85 669.172 310.455 669.448C310.072 669.711 309.791 670.063 309.612 670.506L307.692 669.573C307.884 669.059 308.183 668.616 308.589 668.246C309.008 667.863 309.498 667.564 310.06 667.349C310.622 667.133 311.232 667.026 311.89 667.026C312.691 667.026 313.397 667.175 314.007 667.474C314.617 667.761 315.089 668.168 315.424 668.694C315.771 669.208 315.944 669.812 315.944 670.506V677H313.72V675.332L314.222 675.296C313.971 675.714 313.672 676.067 313.325 676.354C312.978 676.629 312.584 676.845 312.141 677C311.699 677.144 311.208 677.215 310.67 677.215ZM317.758 680.588V667.241H319.964V669.178L319.749 668.694C320.084 668.168 320.538 667.761 321.112 667.474C321.686 667.175 322.35 667.026 323.104 667.026C324.025 667.026 324.856 667.253 325.597 667.707C326.339 668.162 326.925 668.772 327.355 669.537C327.798 670.303 328.019 671.164 328.019 672.12C328.019 673.065 327.804 673.926 327.373 674.704C326.943 675.481 326.357 676.097 325.615 676.552C324.874 676.994 324.03 677.215 323.086 677.215C322.38 677.215 321.728 677.078 321.13 676.803C320.544 676.516 320.078 676.109 319.731 675.583L320.108 675.116V680.588H317.758ZM322.817 675.063C323.355 675.063 323.833 674.937 324.252 674.686C324.67 674.435 324.993 674.088 325.22 673.645C325.46 673.203 325.579 672.695 325.579 672.12C325.579 671.546 325.46 671.044 325.22 670.614C324.993 670.171 324.67 669.824 324.252 669.573C323.833 669.31 323.355 669.178 322.817 669.178C322.302 669.178 321.836 669.304 321.417 669.555C321.011 669.806 320.688 670.159 320.449 670.614C320.221 671.056 320.108 671.558 320.108 672.12C320.108 672.695 320.221 673.203 320.449 673.645C320.688 674.088 321.011 674.435 321.417 674.686C321.836 674.937 322.302 675.063 322.817 675.063ZM329.452 677V667.241H331.802V677H329.452ZM329.452 666.147V663.635H331.802V666.147H329.452ZM337.326 677.215C336.286 677.215 335.377 676.97 334.6 676.48C333.834 675.977 333.308 675.302 333.021 674.453L334.779 673.609C335.03 674.16 335.377 674.59 335.82 674.901C336.274 675.212 336.776 675.368 337.326 675.368C337.757 675.368 338.098 675.272 338.349 675.08C338.6 674.889 338.726 674.638 338.726 674.327C338.726 674.136 338.672 673.98 338.564 673.861C338.469 673.729 338.331 673.621 338.152 673.538C337.984 673.442 337.799 673.364 337.596 673.304L335.999 672.856C335.174 672.617 334.546 672.252 334.115 671.762C333.697 671.271 333.487 670.691 333.487 670.022C333.487 669.424 333.637 668.903 333.936 668.461C334.247 668.006 334.671 667.654 335.21 667.402C335.76 667.151 336.388 667.026 337.093 667.026C338.014 667.026 338.827 667.247 339.533 667.689C340.239 668.132 340.741 668.754 341.04 669.555L339.246 670.398C339.079 669.956 338.797 669.603 338.403 669.34C338.008 669.077 337.566 668.945 337.075 668.945C336.681 668.945 336.37 669.035 336.142 669.214C335.915 669.394 335.802 669.627 335.802 669.914C335.802 670.093 335.849 670.249 335.945 670.38C336.041 670.512 336.172 670.62 336.34 670.703C336.519 670.787 336.722 670.865 336.95 670.936L338.51 671.403C339.312 671.642 339.928 672.001 340.358 672.479C340.801 672.958 341.022 673.544 341.022 674.237C341.022 674.823 340.866 675.344 340.556 675.798C340.245 676.241 339.814 676.587 339.264 676.839C338.714 677.09 338.068 677.215 337.326 677.215ZM346.918 677.108C345.818 677.108 344.963 676.809 344.353 676.211C343.755 675.601 343.456 674.746 343.456 673.645V669.34H341.77V667.241H341.949C342.427 667.241 342.798 667.115 343.061 666.864C343.324 666.613 343.456 666.248 343.456 665.77V665.017H345.806V667.241H348.048V669.34H345.806V673.52C345.806 673.843 345.86 674.118 345.967 674.345C346.087 674.572 346.266 674.746 346.506 674.865C346.757 674.985 347.074 675.045 347.456 675.045C347.54 675.045 347.636 675.039 347.743 675.027C347.863 675.015 347.977 675.003 348.084 674.991V677C347.917 677.024 347.725 677.048 347.51 677.072C347.295 677.096 347.098 677.108 346.918 677.108Z" fill="black"/>
<path d="M513.33 338V324.234H522.514V326.451H515.843V330.258H521.683V332.475H515.843V338H513.33ZM528.283 338.222C527.298 338.222 526.398 337.994 525.585 337.538C524.785 337.082 524.144 336.46 523.664 335.672C523.196 334.883 522.962 333.984 522.962 332.974C522.962 331.964 523.196 331.065 523.664 330.276C524.144 329.488 524.785 328.866 525.585 328.41C526.386 327.954 527.285 327.726 528.283 327.726C529.269 327.726 530.162 327.954 530.963 328.41C531.763 328.866 532.398 329.488 532.866 330.276C533.346 331.052 533.586 331.952 533.586 332.974C533.586 333.984 533.346 334.883 532.866 335.672C532.385 336.46 531.745 337.082 530.944 337.538C530.143 337.994 529.256 338.222 528.283 338.222ZM528.283 336.004C528.825 336.004 529.3 335.875 529.706 335.616C530.125 335.358 530.451 335 530.685 334.545C530.932 334.076 531.055 333.553 531.055 332.974C531.055 332.383 530.932 331.865 530.685 331.422C530.451 330.966 530.125 330.609 529.706 330.35C529.3 330.079 528.825 329.944 528.283 329.944C527.729 329.944 527.242 330.079 526.823 330.35C526.405 330.609 526.072 330.966 525.826 331.422C525.592 331.865 525.475 332.383 525.475 332.974C525.475 333.553 525.592 334.076 525.826 334.545C526.072 335 526.405 335.358 526.823 335.616C527.242 335.875 527.729 336.004 528.283 336.004ZM535.053 338V327.948H537.325V330.184L537.141 329.851C537.375 329.1 537.738 328.576 538.231 328.281C538.736 327.985 539.34 327.837 540.042 327.837H540.633V329.981H539.764C539.075 329.981 538.52 330.196 538.101 330.627C537.683 331.046 537.473 331.637 537.473 332.401V338H535.053ZM546.448 338.111C545.314 338.111 544.433 337.803 543.805 337.187C543.189 336.559 542.881 335.678 542.881 334.545V330.11H541.144V327.948H541.329C541.822 327.948 542.204 327.819 542.475 327.56C542.746 327.301 542.881 326.925 542.881 326.433V325.657H545.302V327.948H547.612V330.11H545.302V334.415C545.302 334.748 545.357 335.031 545.468 335.265C545.591 335.499 545.776 335.678 546.023 335.801C546.281 335.924 546.608 335.986 547.002 335.986C547.088 335.986 547.187 335.98 547.297 335.967C547.421 335.955 547.538 335.943 547.649 335.93V338C547.476 338.025 547.279 338.049 547.057 338.074C546.836 338.099 546.632 338.111 546.448 338.111ZM552.713 338.222C551.937 338.222 551.26 338.049 550.681 337.704C550.114 337.359 549.677 336.879 549.369 336.263C549.073 335.647 548.925 334.926 548.925 334.101V327.948H551.346V333.898C551.346 334.317 551.426 334.686 551.586 335.007C551.758 335.315 551.999 335.561 552.307 335.746C552.627 335.918 552.984 336.004 553.378 336.004C553.773 336.004 554.124 335.918 554.432 335.746C554.74 335.561 554.98 335.308 555.152 334.988C555.325 334.668 555.411 334.286 555.411 333.842V327.948H557.832V338H555.54V336.023L555.744 336.374C555.51 336.99 555.121 337.452 554.579 337.76C554.05 338.068 553.428 338.222 552.713 338.222ZM559.712 338V327.948H561.985V329.925L561.8 329.574C562.034 328.97 562.416 328.515 562.946 328.207C563.488 327.886 564.116 327.726 564.831 327.726C565.57 327.726 566.223 327.886 566.789 328.207C567.368 328.527 567.818 328.977 568.138 329.556C568.458 330.122 568.619 330.781 568.619 331.533V338H566.198V332.105C566.198 331.662 566.112 331.28 565.939 330.96C565.767 330.64 565.527 330.393 565.219 330.221C564.923 330.036 564.572 329.944 564.165 329.944C563.771 329.944 563.42 330.036 563.112 330.221C562.804 330.393 562.564 330.64 562.392 330.96C562.219 331.28 562.133 331.662 562.133 332.105V338H559.712ZM575.063 338.222C574.029 338.222 573.123 337.988 572.347 337.52C571.571 337.051 570.967 336.417 570.536 335.616C570.105 334.816 569.889 333.929 569.889 332.955C569.889 331.945 570.105 331.052 570.536 330.276C570.98 329.488 571.577 328.866 572.329 328.41C573.092 327.954 573.942 327.726 574.879 327.726C575.667 327.726 576.357 327.856 576.948 328.114C577.552 328.373 578.063 328.73 578.482 329.186C578.901 329.642 579.221 330.165 579.443 330.757C579.664 331.336 579.775 331.964 579.775 332.641C579.775 332.814 579.763 332.992 579.738 333.177C579.726 333.362 579.695 333.522 579.646 333.658H571.885V331.81H578.278L577.133 332.678C577.244 332.112 577.213 331.607 577.04 331.163C576.88 330.72 576.609 330.369 576.227 330.11C575.858 329.851 575.408 329.722 574.879 329.722C574.373 329.722 573.924 329.851 573.53 330.11C573.135 330.356 572.834 330.726 572.624 331.219C572.427 331.699 572.353 332.284 572.402 332.974C572.353 333.59 572.433 334.138 572.643 334.619C572.864 335.087 573.185 335.45 573.604 335.709C574.035 335.967 574.527 336.097 575.082 336.097C575.636 336.097 576.104 335.98 576.486 335.746C576.88 335.512 577.188 335.197 577.41 334.803L579.369 335.764C579.172 336.245 578.864 336.67 578.445 337.039C578.026 337.409 577.527 337.698 576.948 337.908C576.381 338.117 575.753 338.222 575.063 338.222ZM585.823 338.111C584.69 338.111 583.809 337.803 583.181 337.187C582.565 336.559 582.257 335.678 582.257 334.545V330.11H580.52V327.948H580.705C581.197 327.948 581.579 327.819 581.85 327.56C582.121 327.301 582.257 326.925 582.257 326.433V325.657H584.678V327.948H586.987V330.11H584.678V334.415C584.678 334.748 584.733 335.031 584.844 335.265C584.967 335.499 585.152 335.678 585.398 335.801C585.657 335.924 585.983 335.986 586.378 335.986C586.464 335.986 586.562 335.98 586.673 335.967C586.796 335.955 586.913 335.943 587.024 335.93V338C586.852 338.025 586.655 338.049 586.433 338.074C586.211 338.099 586.008 338.111 585.823 338.111ZM593.181 338.222C592.146 338.222 591.241 337.988 590.465 337.52C589.689 337.051 589.085 336.417 588.654 335.616C588.223 334.816 588.007 333.929 588.007 332.955C588.007 331.945 588.223 331.052 588.654 330.276C589.098 329.488 589.695 328.866 590.446 328.41C591.21 327.954 592.06 327.726 592.996 327.726C593.785 327.726 594.475 327.856 595.066 328.114C595.67 328.373 596.181 328.73 596.6 329.186C597.018 329.642 597.339 330.165 597.561 330.757C597.782 331.336 597.893 331.964 597.893 332.641C597.893 332.814 597.881 332.992 597.856 333.177C597.844 333.362 597.813 333.522 597.764 333.658H590.003V331.81H596.396L595.251 332.678C595.362 332.112 595.331 331.607 595.158 331.163C594.998 330.72 594.727 330.369 594.345 330.11C593.976 329.851 593.526 329.722 592.996 329.722C592.491 329.722 592.042 329.851 591.648 330.11C591.253 330.356 590.952 330.726 590.742 331.219C590.545 331.699 590.471 332.284 590.52 332.974C590.471 333.59 590.551 334.138 590.761 334.619C590.982 335.087 591.303 335.45 591.721 335.709C592.153 335.967 592.645 336.097 593.2 336.097C593.754 336.097 594.222 335.98 594.604 335.746C594.998 335.512 595.306 335.197 595.528 334.803L597.487 335.764C597.29 336.245 596.982 336.67 596.563 337.039C596.144 337.409 595.645 337.698 595.066 337.908C594.499 338.117 593.871 338.222 593.181 338.222ZM599.359 338V324.012H601.779V338H599.359ZM603.645 338V324.012H606.065V338H603.645ZM612.698 338.222C611.663 338.222 610.758 337.988 609.982 337.52C609.206 337.051 608.602 336.417 608.171 335.616C607.74 334.816 607.524 333.929 607.524 332.955C607.524 331.945 607.74 331.052 608.171 330.276C608.614 329.488 609.212 328.866 609.963 328.41C610.727 327.954 611.577 327.726 612.513 327.726C613.302 327.726 613.991 327.856 614.583 328.114C615.186 328.373 615.698 328.73 616.116 329.186C616.535 329.642 616.856 330.165 617.077 330.757C617.299 331.336 617.41 331.964 617.41 332.641C617.41 332.814 617.398 332.992 617.373 333.177C617.361 333.362 617.33 333.522 617.281 333.658H609.52V331.81H615.913L614.768 332.678C614.878 332.112 614.848 331.607 614.675 331.163C614.515 330.72 614.244 330.369 613.862 330.11C613.493 329.851 613.043 329.722 612.513 329.722C612.008 329.722 611.558 329.851 611.164 330.11C610.77 330.356 610.468 330.726 610.259 331.219C610.062 331.699 609.988 332.284 610.037 332.974C609.988 333.59 610.068 334.138 610.277 334.619C610.499 335.087 610.819 335.45 611.238 335.709C611.669 335.967 612.162 336.097 612.716 336.097C613.271 336.097 613.739 335.98 614.121 335.746C614.515 335.512 614.823 335.197 615.045 334.803L617.003 335.764C616.806 336.245 616.498 336.67 616.079 337.039C615.661 337.409 615.162 337.698 614.583 337.908C614.016 338.117 613.388 338.222 612.698 338.222ZM618.875 338V327.948H621.148V330.184L620.963 329.851C621.197 329.1 621.561 328.576 622.054 328.281C622.559 327.985 623.162 327.837 623.864 327.837H624.456V329.981H623.587C622.897 329.981 622.343 330.196 621.924 330.627C621.505 331.046 621.296 331.637 621.296 332.401V338H618.875Z" fill="black"/>
</g>
<defs>
<clipPath id="clip0_3_135">
<rect width="628" height="699" fill="white"/>
</clipPath>
</defs>
</svg>
