<svg width="1517" height="883" viewBox="0 0 1517 883" fill="none" xmlns="http://www.w3.org/2000/svg">
<path d="M1023.82 203.384C1022.3 203.384 1020.89 203.107 1019.59 202.552C1018.31 201.997 1017.2 201.229 1016.26 200.248C1015.35 199.245 1014.67 198.083 1014.25 196.76L1017.86 195.192C1018.44 196.557 1019.27 197.635 1020.36 198.424C1021.45 199.192 1022.67 199.576 1024.04 199.576C1024.81 199.576 1025.47 199.459 1026.02 199.224C1026.6 198.968 1027.04 198.627 1027.34 198.2C1027.66 197.773 1027.82 197.261 1027.82 196.664C1027.82 195.96 1027.6 195.384 1027.18 194.936C1026.77 194.467 1026.15 194.104 1025.32 193.848L1020.74 192.376C1018.89 191.8 1017.49 190.936 1016.55 189.784C1015.61 188.632 1015.14 187.277 1015.14 185.72C1015.14 184.355 1015.47 183.149 1016.14 182.104C1016.82 181.059 1017.76 180.248 1018.95 179.672C1020.17 179.075 1021.55 178.776 1023.11 178.776C1024.54 178.776 1025.85 179.032 1027.05 179.544C1028.24 180.035 1029.27 180.728 1030.12 181.624C1030.99 182.499 1031.65 183.533 1032.07 184.728L1028.49 186.328C1028.02 185.133 1027.31 184.216 1026.38 183.576C1025.44 182.915 1024.35 182.584 1023.11 182.584C1022.39 182.584 1021.75 182.712 1021.19 182.968C1020.64 183.203 1020.2 183.544 1019.88 183.992C1019.58 184.419 1019.43 184.931 1019.43 185.528C1019.43 186.189 1019.65 186.776 1020.07 187.288C1020.5 187.779 1021.15 188.163 1022.02 188.44L1026.41 189.816C1028.31 190.435 1029.73 191.288 1030.66 192.376C1031.62 193.464 1032.1 194.808 1032.1 196.408C1032.1 197.773 1031.75 198.979 1031.05 200.024C1030.34 201.069 1029.37 201.891 1028.14 202.488C1026.9 203.085 1025.46 203.384 1023.82 203.384ZM1037.91 203V178.776H1042.1V189.016L1041.53 188.408C1041.93 187.363 1042.59 186.573 1043.51 186.04C1044.45 185.485 1045.54 185.208 1046.77 185.208C1048.05 185.208 1049.19 185.485 1050.17 186.04C1051.17 186.595 1051.95 187.373 1052.5 188.376C1053.06 189.357 1053.33 190.499 1053.33 191.8V203H1049.14V192.792C1049.14 192.024 1048.99 191.363 1048.69 190.808C1048.4 190.253 1047.98 189.827 1047.45 189.528C1046.93 189.208 1046.33 189.048 1045.62 189.048C1044.94 189.048 1044.33 189.208 1043.8 189.528C1043.27 189.827 1042.85 190.253 1042.55 190.808C1042.25 191.363 1042.1 192.024 1042.1 192.792V203H1037.91ZM1064.4 203.384C1063.18 203.384 1062.13 203.181 1061.23 202.776C1060.34 202.371 1059.64 201.795 1059.15 201.048C1058.66 200.28 1058.42 199.395 1058.42 198.392C1058.42 197.432 1058.63 196.579 1059.06 195.832C1059.48 195.064 1060.14 194.424 1061.04 193.912C1061.94 193.4 1063.07 193.037 1064.43 192.824L1070.13 191.896V195.096L1065.23 195.928C1064.4 196.077 1063.78 196.344 1063.38 196.728C1062.97 197.112 1062.77 197.613 1062.77 198.232C1062.77 198.829 1062.99 199.309 1063.44 199.672C1063.91 200.013 1064.48 200.184 1065.17 200.184C1066.04 200.184 1066.81 200.003 1067.47 199.64C1068.15 199.256 1068.68 198.733 1069.04 198.072C1069.42 197.411 1069.62 196.685 1069.62 195.896V191.416C1069.62 190.669 1069.32 190.051 1068.72 189.56C1068.14 189.048 1067.38 188.792 1066.42 188.792C1065.52 188.792 1064.72 189.037 1064.02 189.528C1063.33 189.997 1062.83 190.627 1062.51 191.416L1059.09 189.752C1059.43 188.835 1059.96 188.045 1060.69 187.384C1061.43 186.701 1062.31 186.168 1063.31 185.784C1064.31 185.4 1065.4 185.208 1066.58 185.208C1068 185.208 1069.26 185.475 1070.35 186.008C1071.44 186.52 1072.28 187.245 1072.88 188.184C1073.5 189.101 1073.81 190.179 1073.81 191.416V203H1069.84V200.024L1070.74 199.96C1070.29 200.707 1069.75 201.336 1069.14 201.848C1068.52 202.339 1067.81 202.723 1067.02 203C1066.23 203.256 1065.36 203.384 1064.4 203.384ZM1079.92 203V185.592H1083.86V189.464L1083.54 188.888C1083.94 187.587 1084.57 186.68 1085.43 186.168C1086.3 185.656 1087.35 185.4 1088.56 185.4H1089.59V189.112H1088.08C1086.89 189.112 1085.93 189.485 1085.2 190.232C1084.48 190.957 1084.11 191.981 1084.11 193.304V203H1079.92ZM1102.39 203.384C1100.59 203.384 1099.03 202.979 1097.68 202.168C1096.34 201.357 1095.29 200.259 1094.55 198.872C1093.8 197.485 1093.43 195.949 1093.43 194.264C1093.43 192.515 1093.8 190.968 1094.55 189.624C1095.31 188.259 1096.35 187.181 1097.65 186.392C1098.97 185.603 1100.45 185.208 1102.07 185.208C1103.43 185.208 1104.63 185.432 1105.65 185.88C1106.7 186.328 1107.58 186.947 1108.31 187.736C1109.03 188.525 1109.59 189.432 1109.97 190.456C1110.35 191.459 1110.55 192.547 1110.55 193.72C1110.55 194.019 1110.53 194.328 1110.48 194.648C1110.46 194.968 1110.41 195.245 1110.32 195.48H1096.88V192.28H1107.95L1105.97 193.784C1106.16 192.803 1106.11 191.928 1105.81 191.16C1105.53 190.392 1105.06 189.784 1104.4 189.336C1103.76 188.888 1102.98 188.664 1102.07 188.664C1101.19 188.664 1100.41 188.888 1099.73 189.336C1099.05 189.763 1098.53 190.403 1098.16 191.256C1097.82 192.088 1097.69 193.101 1097.78 194.296C1097.69 195.363 1097.83 196.312 1098.19 197.144C1098.58 197.955 1099.13 198.584 1099.86 199.032C1100.61 199.48 1101.46 199.704 1102.42 199.704C1103.38 199.704 1104.19 199.501 1104.85 199.096C1105.53 198.691 1106.07 198.147 1106.45 197.464L1109.84 199.128C1109.5 199.96 1108.97 200.696 1108.24 201.336C1107.52 201.976 1106.65 202.477 1105.65 202.84C1104.67 203.203 1103.58 203.384 1102.39 203.384ZM1122.59 203.384C1120.73 203.384 1119.11 202.947 1117.72 202.072C1116.36 201.176 1115.42 199.971 1114.91 198.456L1118.04 196.952C1118.49 197.933 1119.11 198.701 1119.9 199.256C1120.71 199.811 1121.61 200.088 1122.59 200.088C1123.36 200.088 1123.96 199.917 1124.41 199.576C1124.86 199.235 1125.08 198.787 1125.08 198.232C1125.08 197.891 1124.99 197.613 1124.8 197.4C1124.63 197.165 1124.38 196.973 1124.06 196.824C1123.76 196.653 1123.43 196.515 1123.07 196.408L1120.22 195.608C1118.75 195.181 1117.63 194.531 1116.86 193.656C1116.11 192.781 1115.74 191.747 1115.74 190.552C1115.74 189.485 1116.01 188.557 1116.54 187.768C1117.1 186.957 1117.85 186.328 1118.81 185.88C1119.79 185.432 1120.91 185.208 1122.17 185.208C1123.82 185.208 1125.27 185.603 1126.52 186.392C1127.78 187.181 1128.68 188.291 1129.21 189.72L1126.01 191.224C1125.71 190.435 1125.21 189.805 1124.51 189.336C1123.8 188.867 1123.02 188.632 1122.14 188.632C1121.44 188.632 1120.88 188.792 1120.48 189.112C1120.07 189.432 1119.87 189.848 1119.87 190.36C1119.87 190.68 1119.95 190.957 1120.12 191.192C1120.3 191.427 1120.53 191.619 1120.83 191.768C1121.15 191.917 1121.51 192.056 1121.92 192.184L1124.7 193.016C1126.13 193.443 1127.23 194.083 1128 194.936C1128.79 195.789 1129.18 196.835 1129.18 198.072C1129.18 199.117 1128.9 200.045 1128.35 200.856C1127.79 201.645 1127.03 202.264 1126.04 202.712C1125.06 203.16 1123.91 203.384 1122.59 203.384ZM1150.51 203.192C1148.54 203.192 1147.02 202.659 1145.93 201.592C1144.86 200.504 1144.33 198.979 1144.33 197.016V189.336H1141.32V185.592H1141.64C1142.49 185.592 1143.16 185.368 1143.63 184.92C1144.09 184.472 1144.33 183.821 1144.33 182.968V181.624H1148.52V185.592H1152.52V189.336H1148.52V196.792C1148.52 197.368 1148.62 197.859 1148.81 198.264C1149.02 198.669 1149.34 198.979 1149.77 199.192C1150.22 199.405 1150.78 199.512 1151.47 199.512C1151.61 199.512 1151.79 199.501 1151.98 199.48C1152.19 199.459 1152.39 199.437 1152.59 199.416V203C1152.29 203.043 1151.95 203.085 1151.56 203.128C1151.18 203.171 1150.83 203.192 1150.51 203.192ZM1158.03 203V178.776H1162.22V189.016L1161.64 188.408C1162.05 187.363 1162.71 186.573 1163.63 186.04C1164.57 185.485 1165.65 185.208 1166.89 185.208C1168.17 185.208 1169.3 185.485 1170.28 186.04C1171.29 186.595 1172.07 187.373 1172.62 188.376C1173.17 189.357 1173.45 190.499 1173.45 191.8V203H1169.26V192.792C1169.26 192.024 1169.11 191.363 1168.81 190.808C1168.51 190.253 1168.1 189.827 1167.56 189.528C1167.05 189.208 1166.44 189.048 1165.74 189.048C1165.06 189.048 1164.45 189.208 1163.92 189.528C1163.38 189.827 1162.97 190.253 1162.67 190.808C1162.37 191.363 1162.22 192.024 1162.22 192.792V203H1158.03ZM1187.49 203.384C1185.7 203.384 1184.13 202.979 1182.79 202.168C1181.45 201.357 1180.4 200.259 1179.65 198.872C1178.91 197.485 1178.53 195.949 1178.53 194.264C1178.53 192.515 1178.91 190.968 1179.65 189.624C1180.42 188.259 1181.46 187.181 1182.76 186.392C1184.08 185.603 1185.55 185.208 1187.17 185.208C1188.54 185.208 1189.73 185.432 1190.76 185.88C1191.8 186.328 1192.69 186.947 1193.41 187.736C1194.14 188.525 1194.69 189.432 1195.08 190.456C1195.46 191.459 1195.65 192.547 1195.65 193.72C1195.65 194.019 1195.63 194.328 1195.59 194.648C1195.57 194.968 1195.51 195.245 1195.43 195.48H1181.99V192.28H1193.06L1191.08 193.784C1191.27 192.803 1191.22 191.928 1190.92 191.16C1190.64 190.392 1190.17 189.784 1189.51 189.336C1188.87 188.888 1188.09 188.664 1187.17 188.664C1186.3 188.664 1185.52 188.888 1184.84 189.336C1184.15 189.763 1183.63 190.403 1183.27 191.256C1182.93 192.088 1182.8 193.101 1182.89 194.296C1182.8 195.363 1182.94 196.312 1183.3 197.144C1183.69 197.955 1184.24 198.584 1184.97 199.032C1185.71 199.48 1186.57 199.704 1187.53 199.704C1188.49 199.704 1189.3 199.501 1189.96 199.096C1190.64 198.691 1191.17 198.147 1191.56 197.464L1194.95 199.128C1194.61 199.96 1194.07 200.696 1193.35 201.336C1192.62 201.976 1191.76 202.477 1190.76 202.84C1189.78 203.203 1188.69 203.384 1187.49 203.384ZM1217.86 203.384C1216.35 203.384 1214.94 203.107 1213.64 202.552C1212.36 201.997 1211.25 201.229 1210.31 200.248C1209.39 199.245 1208.72 198.083 1208.29 196.76L1211.91 195.192C1212.49 196.557 1213.32 197.635 1214.41 198.424C1215.49 199.192 1216.72 199.576 1218.09 199.576C1218.85 199.576 1219.52 199.459 1220.07 199.224C1220.65 198.968 1221.08 198.627 1221.38 198.2C1221.7 197.773 1221.86 197.261 1221.86 196.664C1221.86 195.96 1221.65 195.384 1221.22 194.936C1220.82 194.467 1220.2 194.104 1219.37 193.848L1214.79 192.376C1212.93 191.8 1211.54 190.936 1210.6 189.784C1209.66 188.632 1209.19 187.277 1209.19 185.72C1209.19 184.355 1209.52 183.149 1210.18 182.104C1210.86 181.059 1211.8 180.248 1213 179.672C1214.21 179.075 1215.6 178.776 1217.16 178.776C1218.59 178.776 1219.9 179.032 1221.09 179.544C1222.29 180.035 1223.31 180.728 1224.17 181.624C1225.04 182.499 1225.69 183.533 1226.12 184.728L1222.53 186.328C1222.06 185.133 1221.36 184.216 1220.42 183.576C1219.48 182.915 1218.4 182.584 1217.16 182.584C1216.43 182.584 1215.79 182.712 1215.24 182.968C1214.68 183.203 1214.25 183.544 1213.93 183.992C1213.63 184.419 1213.48 184.931 1213.48 185.528C1213.48 186.189 1213.69 186.776 1214.12 187.288C1214.54 187.779 1215.2 188.163 1216.07 188.44L1220.45 189.816C1222.35 190.435 1223.77 191.288 1224.71 192.376C1225.67 193.464 1226.15 194.808 1226.15 196.408C1226.15 197.773 1225.8 198.979 1225.09 200.024C1224.39 201.069 1223.42 201.891 1222.18 202.488C1220.94 203.085 1219.5 203.384 1217.86 203.384ZM1231.96 209.4V185.592H1235.89V189.048L1235.51 188.184C1236.11 187.245 1236.92 186.52 1237.94 186.008C1238.97 185.475 1240.15 185.208 1241.49 185.208C1243.14 185.208 1244.62 185.613 1245.94 186.424C1247.26 187.235 1248.31 188.323 1249.08 189.688C1249.87 191.053 1250.26 192.589 1250.26 194.296C1250.26 195.981 1249.88 197.517 1249.11 198.904C1248.34 200.291 1247.3 201.389 1245.97 202.2C1244.65 202.989 1243.15 203.384 1241.46 203.384C1240.2 203.384 1239.04 203.139 1237.97 202.648C1236.93 202.136 1236.1 201.411 1235.48 200.472L1236.15 199.64V209.4H1231.96ZM1240.98 199.544C1241.94 199.544 1242.79 199.32 1243.54 198.872C1244.29 198.424 1244.86 197.805 1245.27 197.016C1245.7 196.227 1245.91 195.32 1245.91 194.296C1245.91 193.272 1245.7 192.376 1245.27 191.608C1244.86 190.819 1244.29 190.2 1243.54 189.752C1242.79 189.283 1241.94 189.048 1240.98 189.048C1240.06 189.048 1239.23 189.272 1238.49 189.72C1237.76 190.168 1237.18 190.797 1236.76 191.608C1236.35 192.397 1236.15 193.293 1236.15 194.296C1236.15 195.32 1236.35 196.227 1236.76 197.016C1237.18 197.805 1237.76 198.424 1238.49 198.872C1239.23 199.32 1240.06 199.544 1240.98 199.544ZM1260.98 203.384C1259.76 203.384 1258.7 203.181 1257.81 202.776C1256.91 202.371 1256.22 201.795 1255.73 201.048C1255.24 200.28 1254.99 199.395 1254.99 198.392C1254.99 197.432 1255.21 196.579 1255.63 195.832C1256.06 195.064 1256.72 194.424 1257.62 193.912C1258.51 193.4 1259.64 193.037 1261.01 192.824L1266.7 191.896V195.096L1261.81 195.928C1260.98 196.077 1260.36 196.344 1259.95 196.728C1259.55 197.112 1259.34 197.613 1259.34 198.232C1259.34 198.829 1259.57 199.309 1260.02 199.672C1260.49 200.013 1261.06 200.184 1261.74 200.184C1262.62 200.184 1263.39 200.003 1264.05 199.64C1264.73 199.256 1265.25 198.733 1265.62 198.072C1266 197.411 1266.19 196.685 1266.19 195.896V191.416C1266.19 190.669 1265.89 190.051 1265.3 189.56C1264.72 189.048 1263.95 188.792 1262.99 188.792C1262.1 188.792 1261.3 189.037 1260.59 189.528C1259.91 189.997 1259.41 190.627 1259.09 191.416L1255.66 189.752C1256.01 188.835 1256.54 188.045 1257.26 187.384C1258.01 186.701 1258.89 186.168 1259.89 185.784C1260.89 185.4 1261.98 185.208 1263.15 185.208C1264.58 185.208 1265.84 185.475 1266.93 186.008C1268.02 186.52 1268.86 187.245 1269.46 188.184C1270.08 189.101 1270.38 190.179 1270.38 191.416V203H1266.42V200.024L1267.31 199.96C1266.86 200.707 1266.33 201.336 1265.71 201.848C1265.09 202.339 1264.39 202.723 1263.6 203C1262.81 203.256 1261.94 203.384 1260.98 203.384ZM1284.88 203.384C1283.16 203.384 1281.6 202.989 1280.21 202.2C1278.85 201.389 1277.77 200.301 1276.98 198.936C1276.19 197.549 1275.8 195.992 1275.8 194.264C1275.8 192.536 1276.19 190.989 1276.98 189.624C1277.77 188.259 1278.85 187.181 1280.21 186.392C1281.6 185.603 1283.16 185.208 1284.88 185.208C1286.12 185.208 1287.27 185.432 1288.34 185.88C1289.41 186.307 1290.32 186.904 1291.09 187.672C1291.88 188.419 1292.45 189.315 1292.79 190.36L1289.11 191.96C1288.79 191.085 1288.24 190.381 1287.48 189.848C1286.73 189.315 1285.86 189.048 1284.88 189.048C1283.97 189.048 1283.14 189.272 1282.42 189.72C1281.72 190.168 1281.16 190.787 1280.76 191.576C1280.35 192.365 1280.15 193.272 1280.15 194.296C1280.15 195.32 1280.35 196.227 1280.76 197.016C1281.16 197.805 1281.72 198.424 1282.42 198.872C1283.14 199.32 1283.97 199.544 1284.88 199.544C1285.89 199.544 1286.76 199.277 1287.51 198.744C1288.25 198.211 1288.79 197.496 1289.11 196.6L1292.79 198.264C1292.45 199.245 1291.89 200.131 1291.12 200.92C1290.36 201.688 1289.44 202.296 1288.37 202.744C1287.3 203.171 1286.14 203.384 1284.88 203.384ZM1306.46 203.384C1304.67 203.384 1303.1 202.979 1301.76 202.168C1300.42 201.357 1299.37 200.259 1298.62 198.872C1297.88 197.485 1297.5 195.949 1297.5 194.264C1297.5 192.515 1297.88 190.968 1298.62 189.624C1299.39 188.259 1300.43 187.181 1301.73 186.392C1303.05 185.603 1304.52 185.208 1306.14 185.208C1307.51 185.208 1308.7 185.432 1309.73 185.88C1310.77 186.328 1311.66 186.947 1312.38 187.736C1313.11 188.525 1313.66 189.432 1314.05 190.456C1314.43 191.459 1314.62 192.547 1314.62 193.72C1314.62 194.019 1314.6 194.328 1314.56 194.648C1314.54 194.968 1314.49 195.245 1314.4 195.48H1300.96V192.28H1312.03L1310.05 193.784C1310.24 192.803 1310.19 191.928 1309.89 191.16C1309.61 190.392 1309.14 189.784 1308.48 189.336C1307.84 188.888 1307.06 188.664 1306.14 188.664C1305.27 188.664 1304.49 188.888 1303.81 189.336C1303.13 189.763 1302.6 190.403 1302.24 191.256C1301.9 192.088 1301.77 193.101 1301.86 194.296C1301.77 195.363 1301.91 196.312 1302.27 197.144C1302.66 197.955 1303.21 198.584 1303.94 199.032C1304.68 199.48 1305.54 199.704 1306.5 199.704C1307.46 199.704 1308.27 199.501 1308.93 199.096C1309.61 198.691 1310.14 198.147 1310.53 197.464L1313.92 199.128C1313.58 199.96 1313.05 200.696 1312.32 201.336C1311.59 201.976 1310.73 202.477 1309.73 202.84C1308.75 203.203 1307.66 203.384 1306.46 203.384Z" fill="black"/>
<path d="M1013.35 500L1021.58 476.16H1027.21L1035.43 500H1030.7L1029 494.88H1019.78L1018.06 500H1013.35ZM1021.03 491.04H1027.75L1023.78 479.168H1025L1021.03 491.04ZM1039.97 500V475.776H1044.17V500H1039.97ZM1050.28 500V482.592H1054.21V486.464L1053.89 485.888C1054.3 484.587 1054.93 483.68 1055.78 483.168C1056.65 482.656 1057.7 482.4 1058.92 482.4H1059.94V486.112H1058.44C1057.24 486.112 1056.28 486.485 1055.56 487.232C1054.83 487.957 1054.47 488.981 1054.47 490.304V500H1050.28ZM1072.74 500.384C1070.95 500.384 1069.38 499.979 1068.04 499.168C1066.69 498.357 1065.65 497.259 1064.9 495.872C1064.15 494.485 1063.78 492.949 1063.78 491.264C1063.78 489.515 1064.15 487.968 1064.9 486.624C1065.67 485.259 1066.7 484.181 1068 483.392C1069.33 482.603 1070.8 482.208 1072.42 482.208C1073.79 482.208 1074.98 482.432 1076 482.88C1077.05 483.328 1077.94 483.947 1078.66 484.736C1079.39 485.525 1079.94 486.432 1080.32 487.456C1080.71 488.459 1080.9 489.547 1080.9 490.72C1080.9 491.019 1080.88 491.328 1080.84 491.648C1080.82 491.968 1080.76 492.245 1080.68 492.48H1067.24V489.28H1078.31L1076.32 490.784C1076.52 489.803 1076.46 488.928 1076.16 488.16C1075.89 487.392 1075.42 486.784 1074.76 486.336C1074.12 485.888 1073.34 485.664 1072.42 485.664C1071.55 485.664 1070.77 485.888 1070.08 486.336C1069.4 486.763 1068.88 487.403 1068.52 488.256C1068.18 489.088 1068.05 490.101 1068.13 491.296C1068.05 492.363 1068.19 493.312 1068.55 494.144C1068.93 494.955 1069.49 495.584 1070.21 496.032C1070.96 496.48 1071.81 496.704 1072.77 496.704C1073.73 496.704 1074.54 496.501 1075.2 496.096C1075.89 495.691 1076.42 495.147 1076.8 494.464L1080.2 496.128C1079.86 496.96 1079.32 497.696 1078.6 498.336C1077.87 498.976 1077.01 499.477 1076 499.84C1075.02 500.203 1073.94 500.384 1072.74 500.384ZM1091.54 500.384C1090.32 500.384 1089.26 500.181 1088.37 499.776C1087.47 499.371 1086.78 498.795 1086.29 498.048C1085.8 497.28 1085.55 496.395 1085.55 495.392C1085.55 494.432 1085.77 493.579 1086.19 492.832C1086.62 492.064 1087.28 491.424 1088.18 490.912C1089.07 490.4 1090.2 490.037 1091.57 489.824L1097.26 488.896V492.096L1092.37 492.928C1091.54 493.077 1090.92 493.344 1090.51 493.728C1090.11 494.112 1089.9 494.613 1089.9 495.232C1089.9 495.829 1090.13 496.309 1090.58 496.672C1091.05 497.013 1091.62 497.184 1092.3 497.184C1093.18 497.184 1093.95 497.003 1094.61 496.64C1095.29 496.256 1095.81 495.733 1096.18 495.072C1096.56 494.411 1096.75 493.685 1096.75 492.896V488.416C1096.75 487.669 1096.45 487.051 1095.86 486.56C1095.28 486.048 1094.51 485.792 1093.55 485.792C1092.66 485.792 1091.86 486.037 1091.15 486.528C1090.47 486.997 1089.97 487.627 1089.65 488.416L1086.22 486.752C1086.57 485.835 1087.1 485.045 1087.82 484.384C1088.57 483.701 1089.45 483.168 1090.45 482.784C1091.45 482.4 1092.54 482.208 1093.71 482.208C1095.14 482.208 1096.4 482.475 1097.49 483.008C1098.58 483.52 1099.42 484.245 1100.02 485.184C1100.63 486.101 1100.94 487.179 1100.94 488.416V500H1096.98V497.024L1097.87 496.96C1097.42 497.707 1096.89 498.336 1096.27 498.848C1095.65 499.339 1094.95 499.723 1094.16 500C1093.37 500.256 1092.5 500.384 1091.54 500.384ZM1115.15 500.384C1113.47 500.384 1111.96 499.989 1110.64 499.2C1109.32 498.389 1108.27 497.291 1107.51 495.904C1106.74 494.517 1106.35 492.981 1106.35 491.296C1106.35 489.589 1106.74 488.053 1107.51 486.688C1108.27 485.323 1109.32 484.235 1110.64 483.424C1111.99 482.613 1113.48 482.208 1115.12 482.208C1116.44 482.208 1117.62 482.475 1118.64 483.008C1119.69 483.52 1120.51 484.245 1121.11 485.184L1120.47 486.048V475.776H1124.66V500H1120.69V496.64L1121.14 497.472C1120.54 498.411 1119.71 499.136 1118.64 499.648C1117.58 500.139 1116.41 500.384 1115.15 500.384ZM1115.6 496.544C1116.56 496.544 1117.4 496.32 1118.13 495.872C1118.86 495.424 1119.42 494.805 1119.83 494.016C1120.25 493.227 1120.47 492.32 1120.47 491.296C1120.47 490.293 1120.25 489.397 1119.83 488.608C1119.42 487.797 1118.86 487.168 1118.13 486.72C1117.4 486.272 1116.56 486.048 1115.6 486.048C1114.66 486.048 1113.82 486.283 1113.07 486.752C1112.33 487.2 1111.74 487.819 1111.31 488.608C1110.91 489.376 1110.71 490.272 1110.71 491.296C1110.71 492.32 1110.91 493.227 1111.31 494.016C1111.74 494.805 1112.33 495.424 1113.07 495.872C1113.82 496.32 1114.66 496.544 1115.6 496.544ZM1132.91 507.04C1132.44 507.04 1131.98 506.997 1131.53 506.912C1131.09 506.848 1130.68 506.72 1130.32 506.528V503.04C1130.6 503.104 1130.93 503.168 1131.31 503.232C1131.72 503.296 1132.09 503.328 1132.43 503.328C1133.39 503.328 1134.08 503.104 1134.51 502.656C1134.96 502.229 1135.35 501.653 1135.69 500.928L1136.85 498.24L1136.78 501.76L1129.2 482.592H1133.71L1139.02 496.736H1137.42L1142.7 482.592H1147.25L1139.66 501.76C1139.21 502.869 1138.67 503.819 1138.03 504.608C1137.39 505.397 1136.64 505.995 1135.79 506.4C1134.96 506.827 1134 507.04 1132.91 507.04ZM1160.07 500V476.16H1175.97V480H1164.42V486.592H1174.53V490.432H1164.42V500H1160.07ZM1188.59 500.384C1186.79 500.384 1185.23 499.979 1183.88 499.168C1182.54 498.357 1181.49 497.259 1180.75 495.872C1180 494.485 1179.63 492.949 1179.63 491.264C1179.63 489.515 1180 487.968 1180.75 486.624C1181.51 485.259 1182.55 484.181 1183.85 483.392C1185.17 482.603 1186.65 482.208 1188.27 482.208C1189.63 482.208 1190.83 482.432 1191.85 482.88C1192.9 483.328 1193.78 483.947 1194.51 484.736C1195.23 485.525 1195.79 486.432 1196.17 487.456C1196.55 488.459 1196.75 489.547 1196.75 490.72C1196.75 491.019 1196.73 491.328 1196.68 491.648C1196.66 491.968 1196.61 492.245 1196.52 492.48H1183.08V489.28H1194.15L1192.17 490.784C1192.36 489.803 1192.31 488.928 1192.01 488.16C1191.73 487.392 1191.26 486.784 1190.6 486.336C1189.96 485.888 1189.18 485.664 1188.27 485.664C1187.39 485.664 1186.61 485.888 1185.93 486.336C1185.25 486.763 1184.73 487.403 1184.36 488.256C1184.02 489.088 1183.89 490.101 1183.98 491.296C1183.89 492.363 1184.03 493.312 1184.39 494.144C1184.78 494.955 1185.33 495.584 1186.06 496.032C1186.81 496.48 1187.66 496.704 1188.62 496.704C1189.58 496.704 1190.39 496.501 1191.05 496.096C1191.73 495.691 1192.27 495.147 1192.65 494.464L1196.04 496.128C1195.7 496.96 1195.17 497.696 1194.44 498.336C1193.72 498.976 1192.85 499.477 1191.85 499.84C1190.87 500.203 1189.78 500.384 1188.59 500.384ZM1210.42 500.384C1208.63 500.384 1207.06 499.979 1205.72 499.168C1204.37 498.357 1203.33 497.259 1202.58 495.872C1201.83 494.485 1201.46 492.949 1201.46 491.264C1201.46 489.515 1201.83 487.968 1202.58 486.624C1203.35 485.259 1204.38 484.181 1205.68 483.392C1207.01 482.603 1208.48 482.208 1210.1 482.208C1211.47 482.208 1212.66 482.432 1213.68 482.88C1214.73 483.328 1215.62 483.947 1216.34 484.736C1217.07 485.525 1217.62 486.432 1218 487.456C1218.39 488.459 1218.58 489.547 1218.58 490.72C1218.58 491.019 1218.56 491.328 1218.52 491.648C1218.5 491.968 1218.44 492.245 1218.36 492.48H1204.92V489.28H1215.99L1214 490.784C1214.2 489.803 1214.14 488.928 1213.84 488.16C1213.57 487.392 1213.1 486.784 1212.44 486.336C1211.8 485.888 1211.02 485.664 1210.1 485.664C1209.23 485.664 1208.45 485.888 1207.76 486.336C1207.08 486.763 1206.56 487.403 1206.2 488.256C1205.86 489.088 1205.73 490.101 1205.81 491.296C1205.73 492.363 1205.87 493.312 1206.23 494.144C1206.61 494.955 1207.17 495.584 1207.89 496.032C1208.64 496.48 1209.49 496.704 1210.45 496.704C1211.41 496.704 1212.22 496.501 1212.88 496.096C1213.57 495.691 1214.1 495.147 1214.48 494.464L1217.88 496.128C1217.54 496.96 1217 497.696 1216.28 498.336C1215.55 498.976 1214.69 499.477 1213.68 499.84C1212.7 500.203 1211.62 500.384 1210.42 500.384ZM1224 500V475.776H1228.19V500H1224ZM1240.92 500.384C1239.07 500.384 1237.45 499.947 1236.06 499.072C1234.7 498.176 1233.76 496.971 1233.24 495.456L1236.38 493.952C1236.83 494.933 1237.45 495.701 1238.24 496.256C1239.05 496.811 1239.94 497.088 1240.92 497.088C1241.69 497.088 1242.3 496.917 1242.75 496.576C1243.2 496.235 1243.42 495.787 1243.42 495.232C1243.42 494.891 1243.32 494.613 1243.13 494.4C1242.96 494.165 1242.72 493.973 1242.4 493.824C1242.1 493.653 1241.77 493.515 1241.4 493.408L1238.56 492.608C1237.08 492.181 1235.96 491.531 1235.2 490.656C1234.45 489.781 1234.08 488.747 1234.08 487.552C1234.08 486.485 1234.34 485.557 1234.88 484.768C1235.43 483.957 1236.19 483.328 1237.15 482.88C1238.13 482.432 1239.25 482.208 1240.51 482.208C1242.15 482.208 1243.6 482.603 1244.86 483.392C1246.12 484.181 1247.02 485.291 1247.55 486.72L1244.35 488.224C1244.05 487.435 1243.55 486.805 1242.84 486.336C1242.14 485.867 1241.35 485.632 1240.48 485.632C1239.77 485.632 1239.22 485.792 1238.81 486.112C1238.41 486.432 1238.2 486.848 1238.2 487.36C1238.2 487.68 1238.29 487.957 1238.46 488.192C1238.63 488.427 1238.87 488.619 1239.16 488.768C1239.48 488.917 1239.85 489.056 1240.25 489.184L1243.04 490.016C1244.47 490.443 1245.56 491.083 1246.33 491.936C1247.12 492.789 1247.52 493.835 1247.52 495.072C1247.52 496.117 1247.24 497.045 1246.68 497.856C1246.13 498.645 1245.36 499.264 1244.38 499.712C1243.4 500.16 1242.25 500.384 1240.92 500.384ZM1259.31 500L1267.53 476.16H1273.16L1281.39 500H1276.65L1274.95 494.88H1265.74L1264.01 500H1259.31ZM1266.99 491.04H1273.71L1269.74 479.168H1270.95L1266.99 491.04ZM1285.93 500V475.776H1290.12V500H1285.93ZM1296.23 500V482.592H1300.42V500H1296.23ZM1296.23 480.64V476.16H1300.42V480.64H1296.23ZM1311.78 500L1304.93 482.592H1309.51L1314.47 496.288H1312.77L1317.76 482.592H1322.34L1315.49 500H1311.78ZM1334.84 500.384C1333.05 500.384 1331.48 499.979 1330.14 499.168C1328.79 498.357 1327.75 497.259 1327 495.872C1326.25 494.485 1325.88 492.949 1325.88 491.264C1325.88 489.515 1326.25 487.968 1327 486.624C1327.77 485.259 1328.8 484.181 1330.1 483.392C1331.43 482.603 1332.9 482.208 1334.52 482.208C1335.89 482.208 1337.08 482.432 1338.1 482.88C1339.15 483.328 1340.04 483.947 1340.76 484.736C1341.49 485.525 1342.04 486.432 1342.42 487.456C1342.81 488.459 1343 489.547 1343 490.72C1343 491.019 1342.98 491.328 1342.94 491.648C1342.92 491.968 1342.86 492.245 1342.78 492.48H1329.34V489.28H1340.41L1338.42 490.784C1338.62 489.803 1338.56 488.928 1338.26 488.16C1337.99 487.392 1337.52 486.784 1336.86 486.336C1336.22 485.888 1335.44 485.664 1334.52 485.664C1333.65 485.664 1332.87 485.888 1332.18 486.336C1331.5 486.763 1330.98 487.403 1330.62 488.256C1330.28 489.088 1330.15 490.101 1330.23 491.296C1330.15 492.363 1330.29 493.312 1330.65 494.144C1331.03 494.955 1331.59 495.584 1332.31 496.032C1333.06 496.48 1333.91 496.704 1334.87 496.704C1335.83 496.704 1336.64 496.501 1337.3 496.096C1337.99 495.691 1338.52 495.147 1338.9 494.464L1342.3 496.128C1341.96 496.96 1341.42 497.696 1340.7 498.336C1339.97 498.976 1339.11 499.477 1338.1 499.84C1337.12 500.203 1336.04 500.384 1334.84 500.384Z" fill="black"/>
<path d="M1015.3 655V631.16H1019.66V641.56H1029.8V631.16H1034.18V655H1029.8V645.4H1019.66V655H1015.3ZM1045.94 655.384C1044.72 655.384 1043.67 655.181 1042.77 654.776C1041.88 654.371 1041.18 653.795 1040.69 653.048C1040.2 652.28 1039.96 651.395 1039.96 650.392C1039.96 649.432 1040.17 648.579 1040.6 647.832C1041.02 647.064 1041.68 646.424 1042.58 645.912C1043.48 645.4 1044.61 645.037 1045.97 644.824L1051.67 643.896V647.096L1046.77 647.928C1045.94 648.077 1045.32 648.344 1044.92 648.728C1044.51 649.112 1044.31 649.613 1044.31 650.232C1044.31 650.829 1044.53 651.309 1044.98 651.672C1045.45 652.013 1046.03 652.184 1046.71 652.184C1047.58 652.184 1048.35 652.003 1049.01 651.64C1049.7 651.256 1050.22 650.733 1050.58 650.072C1050.96 649.411 1051.16 648.685 1051.16 647.896V643.416C1051.16 642.669 1050.86 642.051 1050.26 641.56C1049.68 641.048 1048.92 640.792 1047.96 640.792C1047.06 640.792 1046.26 641.037 1045.56 641.528C1044.87 641.997 1044.37 642.627 1044.05 643.416L1040.63 641.752C1040.97 640.835 1041.5 640.045 1042.23 639.384C1042.98 638.701 1043.85 638.168 1044.85 637.784C1045.86 637.4 1046.94 637.208 1048.12 637.208C1049.55 637.208 1050.8 637.475 1051.89 638.008C1052.98 638.52 1053.82 639.245 1054.42 640.184C1055.04 641.101 1055.35 642.179 1055.35 643.416V655H1051.38V652.024L1052.28 651.96C1051.83 652.707 1051.3 653.336 1050.68 653.848C1050.06 654.339 1049.35 654.723 1048.56 655C1047.78 655.256 1046.9 655.384 1045.94 655.384ZM1066.4 655L1059.55 637.592H1064.13L1069.09 651.288H1067.39L1072.38 637.592H1076.96L1070.11 655H1066.4ZM1089.46 655.384C1087.67 655.384 1086.1 654.979 1084.76 654.168C1083.41 653.357 1082.37 652.259 1081.62 650.872C1080.87 649.485 1080.5 647.949 1080.5 646.264C1080.5 644.515 1080.87 642.968 1081.62 641.624C1082.39 640.259 1083.42 639.181 1084.72 638.392C1086.05 637.603 1087.52 637.208 1089.14 637.208C1090.5 637.208 1091.7 637.432 1092.72 637.88C1093.77 638.328 1094.65 638.947 1095.38 639.736C1096.1 640.525 1096.66 641.432 1097.04 642.456C1097.43 643.459 1097.62 644.547 1097.62 645.72C1097.62 646.019 1097.6 646.328 1097.56 646.648C1097.53 646.968 1097.48 647.245 1097.4 647.48H1083.96V644.28H1095.03L1093.04 645.784C1093.24 644.803 1093.18 643.928 1092.88 643.16C1092.61 642.392 1092.14 641.784 1091.48 641.336C1090.84 640.888 1090.06 640.664 1089.14 640.664C1088.26 640.664 1087.49 640.888 1086.8 641.336C1086.12 641.763 1085.6 642.403 1085.24 643.256C1084.89 644.088 1084.77 645.101 1084.85 646.296C1084.77 647.363 1084.9 648.312 1085.27 649.144C1085.65 649.955 1086.21 650.584 1086.93 651.032C1087.68 651.48 1088.53 651.704 1089.49 651.704C1090.45 651.704 1091.26 651.501 1091.92 651.096C1092.61 650.691 1093.14 650.147 1093.52 649.464L1096.92 651.128C1096.57 651.96 1096.04 652.696 1095.32 653.336C1094.59 653.976 1093.73 654.477 1092.72 654.84C1091.74 655.203 1090.65 655.384 1089.46 655.384ZM1117.59 655.384C1115.73 655.384 1114.11 654.947 1112.72 654.072C1111.36 653.176 1110.42 651.971 1109.91 650.456L1113.04 648.952C1113.49 649.933 1114.11 650.701 1114.9 651.256C1115.71 651.811 1116.61 652.088 1117.59 652.088C1118.36 652.088 1118.96 651.917 1119.41 651.576C1119.86 651.235 1120.08 650.787 1120.08 650.232C1120.08 649.891 1119.99 649.613 1119.8 649.4C1119.63 649.165 1119.38 648.973 1119.06 648.824C1118.76 648.653 1118.43 648.515 1118.07 648.408L1115.22 647.608C1113.75 647.181 1112.63 646.531 1111.86 645.656C1111.11 644.781 1110.74 643.747 1110.74 642.552C1110.74 641.485 1111.01 640.557 1111.54 639.768C1112.1 638.957 1112.85 638.328 1113.81 637.88C1114.79 637.432 1115.91 637.208 1117.17 637.208C1118.82 637.208 1120.27 637.603 1121.52 638.392C1122.78 639.181 1123.68 640.291 1124.21 641.72L1121.01 643.224C1120.71 642.435 1120.21 641.805 1119.51 641.336C1118.8 640.867 1118.02 640.632 1117.14 640.632C1116.44 640.632 1115.88 640.792 1115.48 641.112C1115.07 641.432 1114.87 641.848 1114.87 642.36C1114.87 642.68 1114.95 642.957 1115.12 643.192C1115.3 643.427 1115.53 643.619 1115.83 643.768C1116.15 643.917 1116.51 644.056 1116.92 644.184L1119.7 645.016C1121.13 645.443 1122.23 646.083 1123 646.936C1123.79 647.789 1124.18 648.835 1124.18 650.072C1124.18 651.117 1123.9 652.045 1123.35 652.856C1122.79 653.645 1122.03 654.264 1121.04 654.712C1120.06 655.16 1118.91 655.384 1117.59 655.384ZM1137.9 655.384C1136.11 655.384 1134.54 654.979 1133.19 654.168C1131.85 653.357 1130.8 652.259 1130.06 650.872C1129.31 649.485 1128.94 647.949 1128.94 646.264C1128.94 644.515 1129.31 642.968 1130.06 641.624C1130.83 640.259 1131.86 639.181 1133.16 638.392C1134.48 637.603 1135.96 637.208 1137.58 637.208C1138.94 637.208 1140.14 637.432 1141.16 637.88C1142.21 638.328 1143.09 638.947 1143.82 639.736C1144.54 640.525 1145.1 641.432 1145.48 642.456C1145.87 643.459 1146.06 644.547 1146.06 645.72C1146.06 646.019 1146.04 646.328 1145.99 646.648C1145.97 646.968 1145.92 647.245 1145.83 647.48H1132.39V644.28H1143.47L1141.48 645.784C1141.67 644.803 1141.62 643.928 1141.32 643.16C1141.04 642.392 1140.58 641.784 1139.91 641.336C1139.27 640.888 1138.5 640.664 1137.58 640.664C1136.7 640.664 1135.92 640.888 1135.24 641.336C1134.56 641.763 1134.04 642.403 1133.67 643.256C1133.33 644.088 1133.2 645.101 1133.29 646.296C1133.2 647.363 1133.34 648.312 1133.71 649.144C1134.09 649.955 1134.64 650.584 1135.37 651.032C1136.12 651.48 1136.97 651.704 1137.93 651.704C1138.89 651.704 1139.7 651.501 1140.36 651.096C1141.04 650.691 1141.58 650.147 1141.96 649.464L1145.35 651.128C1145.01 651.96 1144.48 652.696 1143.75 653.336C1143.03 653.976 1142.16 654.477 1141.16 654.84C1140.18 655.203 1139.09 655.384 1137.9 655.384ZM1151.48 655V637.592H1155.41V641.016L1155.09 640.408C1155.5 639.363 1156.16 638.573 1157.08 638.04C1158.01 637.485 1159.1 637.208 1160.34 637.208C1161.62 637.208 1162.75 637.485 1163.73 638.04C1164.73 638.595 1165.51 639.373 1166.07 640.376C1166.62 641.357 1166.9 642.499 1166.9 643.8V655H1162.71V644.792C1162.71 644.024 1162.56 643.363 1162.26 642.808C1161.96 642.253 1161.55 641.827 1161.01 641.528C1160.5 641.208 1159.89 641.048 1159.19 641.048C1158.51 641.048 1157.9 641.208 1157.36 641.528C1156.83 641.827 1156.41 642.253 1156.12 642.808C1155.82 643.363 1155.67 644.024 1155.67 644.792V655H1151.48ZM1179.31 655.384C1177.45 655.384 1175.83 654.947 1174.44 654.072C1173.08 653.176 1172.14 651.971 1171.63 650.456L1174.76 648.952C1175.21 649.933 1175.83 650.701 1176.62 651.256C1177.43 651.811 1178.33 652.088 1179.31 652.088C1180.08 652.088 1180.68 651.917 1181.13 651.576C1181.58 651.235 1181.8 650.787 1181.8 650.232C1181.8 649.891 1181.71 649.613 1181.52 649.4C1181.35 649.165 1181.1 648.973 1180.78 648.824C1180.48 648.653 1180.15 648.515 1179.79 648.408L1176.94 647.608C1175.47 647.181 1174.35 646.531 1173.58 645.656C1172.83 644.781 1172.46 643.747 1172.46 642.552C1172.46 641.485 1172.73 640.557 1173.26 639.768C1173.82 638.957 1174.57 638.328 1175.53 637.88C1176.51 637.432 1177.63 637.208 1178.89 637.208C1180.54 637.208 1181.99 637.603 1183.24 638.392C1184.5 639.181 1185.4 640.291 1185.93 641.72L1182.73 643.224C1182.43 642.435 1181.93 641.805 1181.23 641.336C1180.52 640.867 1179.74 640.632 1178.86 640.632C1178.16 640.632 1177.6 640.792 1177.2 641.112C1176.79 641.432 1176.59 641.848 1176.59 642.36C1176.59 642.68 1176.67 642.957 1176.84 643.192C1177.02 643.427 1177.25 643.619 1177.55 643.768C1177.87 643.917 1178.23 644.056 1178.64 644.184L1181.42 645.016C1182.85 645.443 1183.95 646.083 1184.72 646.936C1185.51 647.789 1185.9 648.835 1185.9 650.072C1185.9 651.117 1185.62 652.045 1185.07 652.856C1184.51 653.645 1183.75 654.264 1182.76 654.712C1181.78 655.16 1180.63 655.384 1179.31 655.384ZM1199.62 655.384C1197.83 655.384 1196.26 654.979 1194.91 654.168C1193.57 653.357 1192.52 652.259 1191.78 650.872C1191.03 649.485 1190.66 647.949 1190.66 646.264C1190.66 644.515 1191.03 642.968 1191.78 641.624C1192.55 640.259 1193.58 639.181 1194.88 638.392C1196.2 637.603 1197.68 637.208 1199.3 637.208C1200.66 637.208 1201.86 637.432 1202.88 637.88C1203.93 638.328 1204.81 638.947 1205.54 639.736C1206.26 640.525 1206.82 641.432 1207.2 642.456C1207.59 643.459 1207.78 644.547 1207.78 645.72C1207.78 646.019 1207.76 646.328 1207.71 646.648C1207.69 646.968 1207.64 647.245 1207.55 647.48H1194.11V644.28H1205.19L1203.2 645.784C1203.39 644.803 1203.34 643.928 1203.04 643.16C1202.76 642.392 1202.3 641.784 1201.63 641.336C1200.99 640.888 1200.22 640.664 1199.3 640.664C1198.42 640.664 1197.64 640.888 1196.96 641.336C1196.28 641.763 1195.76 642.403 1195.39 643.256C1195.05 644.088 1194.92 645.101 1195.01 646.296C1194.92 647.363 1195.06 648.312 1195.43 649.144C1195.81 649.955 1196.36 650.584 1197.09 651.032C1197.84 651.48 1198.69 651.704 1199.65 651.704C1200.61 651.704 1201.42 651.501 1202.08 651.096C1202.76 650.691 1203.3 650.147 1203.68 649.464L1207.07 651.128C1206.73 651.96 1206.2 652.696 1205.47 653.336C1204.75 653.976 1203.88 654.477 1202.88 654.84C1201.9 655.203 1200.81 655.384 1199.62 655.384ZM1221.48 655V631.16H1225.83V641.56H1235.97V631.16H1240.36V655H1235.97V645.4H1225.83V655H1221.48ZM1253.04 655.384C1251.7 655.384 1250.52 655.085 1249.52 654.488C1248.54 653.891 1247.78 653.059 1247.25 651.992C1246.74 650.925 1246.48 649.677 1246.48 648.248V637.592H1250.67V647.896C1250.67 648.621 1250.81 649.261 1251.09 649.816C1251.39 650.349 1251.8 650.776 1252.34 651.096C1252.89 651.395 1253.51 651.544 1254.19 651.544C1254.87 651.544 1255.48 651.395 1256.02 651.096C1256.55 650.776 1256.97 650.339 1257.26 649.784C1257.56 649.229 1257.71 648.568 1257.71 647.8V637.592H1261.9V655H1257.94V651.576L1258.29 652.184C1257.88 653.251 1257.21 654.051 1256.27 654.584C1255.35 655.117 1254.28 655.384 1253.04 655.384ZM1268.04 655V637.592H1271.98V641.624L1271.53 640.952C1271.85 639.693 1272.49 638.755 1273.45 638.136C1274.41 637.517 1275.54 637.208 1276.84 637.208C1278.27 637.208 1279.53 637.581 1280.62 638.328C1281.7 639.075 1282.41 640.056 1282.73 641.272L1281.54 641.368C1282.08 639.981 1282.88 638.947 1283.94 638.264C1285.01 637.56 1286.24 637.208 1287.62 637.208C1288.86 637.208 1289.96 637.485 1290.92 638.04C1291.9 638.595 1292.67 639.373 1293.22 640.376C1293.78 641.357 1294.06 642.499 1294.06 643.8V655H1289.86V644.792C1289.86 644.024 1289.73 643.363 1289.45 642.808C1289.17 642.253 1288.79 641.827 1288.3 641.528C1287.81 641.208 1287.21 641.048 1286.5 641.048C1285.84 641.048 1285.26 641.208 1284.74 641.528C1284.23 641.827 1283.84 642.253 1283.56 642.808C1283.28 643.363 1283.14 644.024 1283.14 644.792V655H1278.95V644.792C1278.95 644.024 1278.81 643.363 1278.54 642.808C1278.26 642.253 1277.86 641.827 1277.35 641.528C1276.86 641.208 1276.28 641.048 1275.59 641.048C1274.93 641.048 1274.34 641.208 1273.83 641.528C1273.32 641.827 1272.93 642.253 1272.65 642.808C1272.37 643.363 1272.23 644.024 1272.23 644.792V655H1268.04ZM1308.36 655.384C1306.65 655.384 1305.09 654.989 1303.68 654.2C1302.3 653.411 1301.19 652.333 1300.36 650.968C1299.54 649.603 1299.14 648.045 1299.14 646.296C1299.14 644.547 1299.54 642.989 1300.36 641.624C1301.19 640.259 1302.3 639.181 1303.68 638.392C1305.07 637.603 1306.63 637.208 1308.36 637.208C1310.06 637.208 1311.61 637.603 1313 638.392C1314.38 639.181 1315.48 640.259 1316.29 641.624C1317.12 642.968 1317.54 644.525 1317.54 646.296C1317.54 648.045 1317.12 649.603 1316.29 650.968C1315.46 652.333 1314.35 653.411 1312.96 654.2C1311.58 654.989 1310.04 655.384 1308.36 655.384ZM1308.36 651.544C1309.29 651.544 1310.12 651.32 1310.82 650.872C1311.54 650.424 1312.11 649.805 1312.52 649.016C1312.94 648.205 1313.16 647.299 1313.16 646.296C1313.16 645.272 1312.94 644.376 1312.52 643.608C1312.11 642.819 1311.54 642.2 1310.82 641.752C1310.12 641.283 1309.29 641.048 1308.36 641.048C1307.4 641.048 1306.55 641.283 1305.83 641.752C1305.1 642.2 1304.53 642.819 1304.1 643.608C1303.69 644.376 1303.49 645.272 1303.49 646.296C1303.49 647.299 1303.69 648.205 1304.1 649.016C1304.53 649.805 1305.1 650.424 1305.83 650.872C1306.55 651.32 1307.4 651.544 1308.36 651.544ZM1322.96 655V637.592H1326.89V641.464L1326.57 640.888C1326.98 639.587 1327.61 638.68 1328.46 638.168C1329.34 637.656 1330.38 637.4 1331.6 637.4H1332.62V641.112H1331.12C1329.92 641.112 1328.96 641.485 1328.24 642.232C1327.51 642.957 1327.15 643.981 1327.15 645.304V655H1322.96Z" fill="black"/>
<path d="M1015.3 344V320.16H1019.66V330.56H1029.8V320.16H1034.18V344H1029.8V334.4H1019.66V344H1015.3ZM1045.94 344.384C1044.72 344.384 1043.67 344.181 1042.77 343.776C1041.88 343.371 1041.18 342.795 1040.69 342.048C1040.2 341.28 1039.96 340.395 1039.96 339.392C1039.96 338.432 1040.17 337.579 1040.6 336.832C1041.02 336.064 1041.68 335.424 1042.58 334.912C1043.48 334.4 1044.61 334.037 1045.97 333.824L1051.67 332.896V336.096L1046.77 336.928C1045.94 337.077 1045.32 337.344 1044.92 337.728C1044.51 338.112 1044.31 338.613 1044.31 339.232C1044.31 339.829 1044.53 340.309 1044.98 340.672C1045.45 341.013 1046.03 341.184 1046.71 341.184C1047.58 341.184 1048.35 341.003 1049.01 340.64C1049.7 340.256 1050.22 339.733 1050.58 339.072C1050.96 338.411 1051.16 337.685 1051.16 336.896V332.416C1051.16 331.669 1050.86 331.051 1050.26 330.56C1049.68 330.048 1048.92 329.792 1047.96 329.792C1047.06 329.792 1046.26 330.037 1045.56 330.528C1044.87 330.997 1044.37 331.627 1044.05 332.416L1040.63 330.752C1040.97 329.835 1041.5 329.045 1042.23 328.384C1042.98 327.701 1043.85 327.168 1044.85 326.784C1045.86 326.4 1046.94 326.208 1048.12 326.208C1049.55 326.208 1050.8 326.475 1051.89 327.008C1052.98 327.52 1053.82 328.245 1054.42 329.184C1055.04 330.101 1055.35 331.179 1055.35 332.416V344H1051.38V341.024L1052.28 340.96C1051.83 341.707 1051.3 342.336 1050.68 342.848C1050.06 343.339 1049.35 343.723 1048.56 344C1047.78 344.256 1046.9 344.384 1045.94 344.384ZM1066.4 344L1059.55 326.592H1064.13L1069.09 340.288H1067.39L1072.38 326.592H1076.96L1070.11 344H1066.4ZM1089.46 344.384C1087.67 344.384 1086.1 343.979 1084.76 343.168C1083.41 342.357 1082.37 341.259 1081.62 339.872C1080.87 338.485 1080.5 336.949 1080.5 335.264C1080.5 333.515 1080.87 331.968 1081.62 330.624C1082.39 329.259 1083.42 328.181 1084.72 327.392C1086.05 326.603 1087.52 326.208 1089.14 326.208C1090.5 326.208 1091.7 326.432 1092.72 326.88C1093.77 327.328 1094.65 327.947 1095.38 328.736C1096.1 329.525 1096.66 330.432 1097.04 331.456C1097.43 332.459 1097.62 333.547 1097.62 334.72C1097.62 335.019 1097.6 335.328 1097.56 335.648C1097.53 335.968 1097.48 336.245 1097.4 336.48H1083.96V333.28H1095.03L1093.04 334.784C1093.24 333.803 1093.18 332.928 1092.88 332.16C1092.61 331.392 1092.14 330.784 1091.48 330.336C1090.84 329.888 1090.06 329.664 1089.14 329.664C1088.26 329.664 1087.49 329.888 1086.8 330.336C1086.12 330.763 1085.6 331.403 1085.24 332.256C1084.89 333.088 1084.77 334.101 1084.85 335.296C1084.77 336.363 1084.9 337.312 1085.27 338.144C1085.65 338.955 1086.21 339.584 1086.93 340.032C1087.68 340.48 1088.53 340.704 1089.49 340.704C1090.45 340.704 1091.26 340.501 1091.92 340.096C1092.61 339.691 1093.14 339.147 1093.52 338.464L1096.92 340.128C1096.57 340.96 1096.04 341.696 1095.32 342.336C1094.59 342.976 1093.73 343.477 1092.72 343.84C1091.74 344.203 1090.65 344.384 1089.46 344.384ZM1119.48 344.384C1117.77 344.384 1116.21 343.989 1114.8 343.2C1113.42 342.411 1112.31 341.333 1111.48 339.968C1110.67 338.603 1110.26 337.045 1110.26 335.296C1110.26 333.547 1110.67 331.989 1111.48 330.624C1112.31 329.259 1113.42 328.181 1114.8 327.392C1116.19 326.603 1117.75 326.208 1119.48 326.208C1121.18 326.208 1122.73 326.603 1124.12 327.392C1125.5 328.181 1126.6 329.259 1127.41 330.624C1128.24 331.968 1128.66 333.525 1128.66 335.296C1128.66 337.045 1128.24 338.603 1127.41 339.968C1126.58 341.333 1125.47 342.411 1124.08 343.2C1122.7 343.989 1121.16 344.384 1119.48 344.384ZM1119.48 340.544C1120.42 340.544 1121.24 340.32 1121.94 339.872C1122.67 339.424 1123.23 338.805 1123.64 338.016C1124.06 337.205 1124.28 336.299 1124.28 335.296C1124.28 334.272 1124.06 333.376 1123.64 332.608C1123.23 331.819 1122.67 331.2 1121.94 330.752C1121.24 330.283 1120.42 330.048 1119.48 330.048C1118.52 330.048 1117.67 330.283 1116.95 330.752C1116.22 331.2 1115.65 331.819 1115.22 332.608C1114.82 333.376 1114.61 334.272 1114.61 335.296C1114.61 336.299 1114.82 337.205 1115.22 338.016C1115.65 338.805 1116.22 339.424 1116.95 339.872C1117.67 340.32 1118.52 340.544 1119.48 340.544ZM1138.15 344L1132.17 326.592H1136.58L1140.97 339.808L1139.43 339.776L1144.1 326.592H1147.82L1152.46 339.776L1150.92 339.808L1155.3 326.592H1159.72L1153.74 344H1149.99L1145.26 330.208H1146.66L1141.86 344H1138.15ZM1164.26 344V326.592H1168.19V330.016L1167.87 329.408C1168.28 328.363 1168.94 327.573 1169.86 327.04C1170.8 326.485 1171.88 326.208 1173.12 326.208C1174.4 326.208 1175.53 326.485 1176.51 327.04C1177.52 327.595 1178.29 328.373 1178.85 329.376C1179.4 330.357 1179.68 331.499 1179.68 332.8V344H1175.49V333.792C1175.49 333.024 1175.34 332.363 1175.04 331.808C1174.74 331.253 1174.33 330.827 1173.79 330.528C1173.28 330.208 1172.67 330.048 1171.97 330.048C1171.29 330.048 1170.68 330.208 1170.14 330.528C1169.61 330.827 1169.2 331.253 1168.9 331.808C1168.6 332.363 1168.45 333.024 1168.45 333.792V344H1164.26ZM1193.39 344V326.592H1197.33V330.464L1197.01 329.888C1197.41 328.587 1198.04 327.68 1198.9 327.168C1199.77 326.656 1200.82 326.4 1202.03 326.4H1203.06V330.112H1201.55C1200.36 330.112 1199.4 330.485 1198.67 331.232C1197.95 331.957 1197.59 332.981 1197.59 334.304V344H1193.39ZM1216.11 344.384C1214.41 344.384 1212.85 343.989 1211.44 343.2C1210.06 342.411 1208.95 341.333 1208.11 339.968C1207.3 338.603 1206.9 337.045 1206.9 335.296C1206.9 333.547 1207.3 331.989 1208.11 330.624C1208.95 329.259 1210.06 328.181 1211.44 327.392C1212.83 326.603 1214.39 326.208 1216.11 326.208C1217.82 326.208 1219.37 326.603 1220.75 327.392C1222.14 328.181 1223.24 329.259 1224.05 330.624C1224.88 331.968 1225.3 333.525 1225.3 335.296C1225.3 337.045 1224.88 338.603 1224.05 339.968C1223.22 341.333 1222.11 342.411 1220.72 343.2C1219.34 343.989 1217.8 344.384 1216.11 344.384ZM1216.11 340.544C1217.05 340.544 1217.87 340.32 1218.58 339.872C1219.3 339.424 1219.87 338.805 1220.27 338.016C1220.7 337.205 1220.91 336.299 1220.91 335.296C1220.91 334.272 1220.7 333.376 1220.27 332.608C1219.87 331.819 1219.3 331.2 1218.58 330.752C1217.87 330.283 1217.05 330.048 1216.11 330.048C1215.15 330.048 1214.31 330.283 1213.59 330.752C1212.86 331.2 1212.28 331.819 1211.86 332.608C1211.45 333.376 1211.25 334.272 1211.25 335.296C1211.25 336.299 1211.45 337.205 1211.86 338.016C1212.28 338.805 1212.86 339.424 1213.59 339.872C1214.31 340.32 1215.15 340.544 1216.11 340.544ZM1236.93 344.384C1235.58 344.384 1234.41 344.085 1233.4 343.488C1232.42 342.891 1231.67 342.059 1231.13 340.992C1230.62 339.925 1230.36 338.677 1230.36 337.248V326.592H1234.56V336.896C1234.56 337.621 1234.7 338.261 1234.97 338.816C1235.27 339.349 1235.69 339.776 1236.22 340.096C1236.78 340.395 1237.39 340.544 1238.08 340.544C1238.76 340.544 1239.37 340.395 1239.9 340.096C1240.43 339.776 1240.85 339.339 1241.15 338.784C1241.45 338.229 1241.6 337.568 1241.6 336.8V326.592H1245.79V344H1241.82V340.576L1242.17 341.184C1241.77 342.251 1241.1 343.051 1240.16 343.584C1239.24 344.117 1238.16 344.384 1236.93 344.384ZM1259.86 344.192C1257.9 344.192 1256.37 343.659 1255.29 342.592C1254.22 341.504 1253.69 339.979 1253.69 338.016V330.336H1250.68V326.592H1251C1251.85 326.592 1252.51 326.368 1252.98 325.92C1253.45 325.472 1253.69 324.821 1253.69 323.968V322.624H1257.88V326.592H1261.88V330.336H1257.88V337.792C1257.88 338.368 1257.97 338.859 1258.17 339.264C1258.38 339.669 1258.7 339.979 1259.13 340.192C1259.57 340.405 1260.14 340.512 1260.82 340.512C1260.97 340.512 1261.14 340.501 1261.33 340.48C1261.55 340.459 1261.75 340.437 1261.94 340.416V344C1261.64 344.043 1261.3 344.085 1260.92 344.128C1260.53 344.171 1260.18 344.192 1259.86 344.192ZM1267.38 344V326.592H1271.58V344H1267.38ZM1267.38 324.64V320.16H1271.58V324.64H1267.38ZM1277.69 344V326.592H1281.62V330.016L1281.3 329.408C1281.71 328.363 1282.37 327.573 1283.29 327.04C1284.23 326.485 1285.31 326.208 1286.55 326.208C1287.83 326.208 1288.96 326.485 1289.94 327.04C1290.95 327.595 1291.72 328.373 1292.28 329.376C1292.83 330.357 1293.11 331.499 1293.11 332.8V344H1288.92V333.792C1288.92 333.024 1288.77 332.363 1288.47 331.808C1288.17 331.253 1287.76 330.827 1287.22 330.528C1286.71 330.208 1286.1 330.048 1285.4 330.048C1284.72 330.048 1284.11 330.208 1283.57 330.528C1283.04 330.827 1282.63 331.253 1282.33 331.808C1282.03 332.363 1281.88 333.024 1281.88 333.792V344H1277.69ZM1307.15 344.384C1305.36 344.384 1303.79 343.979 1302.45 343.168C1301.1 342.357 1300.06 341.259 1299.31 339.872C1298.57 338.485 1298.19 336.949 1298.19 335.264C1298.19 333.515 1298.57 331.968 1299.31 330.624C1300.08 329.259 1301.11 328.181 1302.42 327.392C1303.74 326.603 1305.21 326.208 1306.83 326.208C1308.2 326.208 1309.39 326.432 1310.42 326.88C1311.46 327.328 1312.35 327.947 1313.07 328.736C1313.8 329.525 1314.35 330.432 1314.74 331.456C1315.12 332.459 1315.31 333.547 1315.31 334.72C1315.31 335.019 1315.29 335.328 1315.25 335.648C1315.23 335.968 1315.17 336.245 1315.09 336.48H1301.65V333.28H1312.72L1310.74 334.784C1310.93 333.803 1310.87 332.928 1310.58 332.16C1310.3 331.392 1309.83 330.784 1309.17 330.336C1308.53 329.888 1307.75 329.664 1306.83 329.664C1305.96 329.664 1305.18 329.888 1304.5 330.336C1303.81 330.763 1303.29 331.403 1302.93 332.256C1302.59 333.088 1302.46 334.101 1302.54 335.296C1302.46 336.363 1302.6 337.312 1302.96 338.144C1303.34 338.955 1303.9 339.584 1304.62 340.032C1305.37 340.48 1306.22 340.704 1307.18 340.704C1308.14 340.704 1308.95 340.501 1309.62 340.096C1310.3 339.691 1310.83 339.147 1311.22 338.464L1314.61 340.128C1314.27 340.96 1313.73 341.696 1313.01 342.336C1312.28 342.976 1311.42 343.477 1310.42 343.84C1309.43 344.203 1308.35 344.384 1307.15 344.384ZM1327.35 344.384C1325.5 344.384 1323.88 343.947 1322.49 343.072C1321.12 342.176 1320.19 340.971 1319.67 339.456L1322.81 337.952C1323.26 338.933 1323.88 339.701 1324.67 340.256C1325.48 340.811 1326.37 341.088 1327.35 341.088C1328.12 341.088 1328.73 340.917 1329.18 340.576C1329.63 340.235 1329.85 339.787 1329.85 339.232C1329.85 338.891 1329.75 338.613 1329.56 338.4C1329.39 338.165 1329.15 337.973 1328.83 337.824C1328.53 337.653 1328.2 337.515 1327.83 337.408L1324.99 336.608C1323.51 336.181 1322.39 335.531 1321.63 334.656C1320.88 333.781 1320.51 332.747 1320.51 331.552C1320.51 330.485 1320.77 329.557 1321.31 328.768C1321.86 327.957 1322.62 327.328 1323.58 326.88C1324.56 326.432 1325.68 326.208 1326.94 326.208C1328.58 326.208 1330.03 326.603 1331.29 327.392C1332.55 328.181 1333.44 329.291 1333.98 330.72L1330.78 332.224C1330.48 331.435 1329.98 330.805 1329.27 330.336C1328.57 329.867 1327.78 329.632 1326.91 329.632C1326.2 329.632 1325.65 329.792 1325.24 330.112C1324.84 330.432 1324.63 330.848 1324.63 331.36C1324.63 331.68 1324.72 331.957 1324.89 332.192C1325.06 332.427 1325.29 332.619 1325.59 332.768C1325.91 332.917 1326.28 333.056 1326.68 333.184L1329.47 334.016C1330.89 334.443 1331.99 335.083 1332.76 335.936C1333.55 336.789 1333.95 337.835 1333.95 339.072C1333.95 340.117 1333.67 341.045 1333.11 341.856C1332.56 342.645 1331.79 343.264 1330.81 343.712C1329.83 344.16 1328.68 344.384 1327.35 344.384Z" fill="black"/>
<path d="M994.721 306L992.721 306V306L994.721 306ZM994.721 354.089H996.721V355.097L995.91 355.696L994.721 354.089ZM993.084 355.273L994.237 356.908L994.237 356.908L993.084 355.273ZM962.128 366.5L962.489 368.467L962.488 368.467L962.128 366.5ZM962 366.523L961.908 368.521L961.64 364.556L962 366.523ZM996.59 364.448L996.173 362.492L997.729 362.16L998.402 363.602L996.59 364.448ZM1348 376L1348 378H1348V376ZM1368 356L1370 356L1370 356L1368 356ZM1368 306L1370 306V306H1368ZM1348 286L1348 284H1348L1348 286ZM1014.72 286V288C1004.78 288 996.721 296.059 996.721 306L994.721 306L992.721 306C992.721 293.85 1002.57 284 1014.72 284V286ZM994.721 306H996.721V354.089H994.721H992.721V306H994.721ZM994.721 354.089L995.91 355.696C995.38 356.089 994.823 356.494 994.237 356.908L993.084 355.273L991.931 353.639C992.487 353.247 993.019 352.86 993.531 352.481L994.721 354.089ZM993.084 355.273L994.237 356.908C983.208 364.688 967.776 367.496 962.489 368.467L962.128 366.5L961.767 364.533C967.163 363.541 981.725 360.838 991.931 353.639L993.084 355.273ZM962.128 366.5L962.488 368.467L962.36 368.491L962 366.523L961.64 364.556L961.768 364.533L962.128 366.5ZM962 366.523L962.092 364.526C978.938 365.303 988.854 364.053 996.173 362.492L996.59 364.448L997.007 366.404C989.316 368.044 979.054 369.313 961.908 368.521L962 366.523ZM996.59 364.448L998.402 363.602C1001.27 369.748 1007.5 374 1014.72 374V376V378C1005.89 378 998.278 372.794 994.778 365.294L996.59 364.448ZM1014.72 376V374H1348V376V378H1014.72V376ZM1348 376L1348 374C1357.94 374 1366 365.941 1366 356L1368 356L1370 356C1370 368.15 1360.15 378 1348 378L1348 376ZM1368 356H1366V306H1368H1370V356H1368ZM1368 306L1366 306C1366 296.059 1357.94 288 1348 288L1348 286L1348 284C1360.15 284 1370 293.85 1370 306L1368 306ZM1348 286V288H1014.72V286V284H1348V286Z" fill="black"/>
<path d="M994.721 462L992.721 462V462L994.721 462ZM994.721 510.089H996.721V511.097L995.91 511.696L994.721 510.089ZM993.084 511.273L994.237 512.908L994.237 512.908L993.084 511.273ZM962.128 522.5L962.489 524.467L962.488 524.467L962.128 522.5ZM962 522.523L961.908 524.521L961.64 520.556L962 522.523ZM996.59 520.448L996.173 518.492L997.729 518.16L998.402 519.602L996.59 520.448ZM1348 532L1348 534H1348V532ZM1368 512L1370 512L1370 512L1368 512ZM1368 462L1370 462V462H1368ZM1348 442L1348 440H1348L1348 442ZM1014.72 442V444C1004.78 444 996.721 452.059 996.721 462L994.721 462L992.721 462C992.721 449.85 1002.57 440 1014.72 440V442ZM994.721 462H996.721V510.089H994.721H992.721V462H994.721ZM994.721 510.089L995.91 511.696C995.38 512.089 994.823 512.494 994.237 512.908L993.084 511.273L991.931 509.639C992.487 509.247 993.019 508.86 993.531 508.481L994.721 510.089ZM993.084 511.273L994.237 512.908C983.208 520.688 967.776 523.496 962.489 524.467L962.128 522.5L961.767 520.533C967.163 519.541 981.725 516.838 991.931 509.639L993.084 511.273ZM962.128 522.5L962.488 524.467L962.36 524.491L962 522.523L961.64 520.556L961.768 520.533L962.128 522.5ZM962 522.523L962.092 520.526C978.938 521.303 988.854 520.053 996.173 518.492L996.59 520.448L997.007 522.404C989.316 524.044 979.054 525.313 961.908 524.521L962 522.523ZM996.59 520.448L998.402 519.602C1001.27 525.748 1007.5 530 1014.72 530V532V534C1005.89 534 998.278 528.794 994.778 521.294L996.59 520.448ZM1014.72 532V530H1348V532V534H1014.72V532ZM1348 532L1348 530C1357.94 530 1366 521.941 1366 512L1368 512L1370 512C1370 524.15 1360.15 534 1348 534L1348 532ZM1368 512H1366V462H1368H1370V512H1368ZM1368 462L1366 462C1366 452.059 1357.94 444 1348 444L1348 442L1348 440C1360.15 440 1370 449.85 1370 462L1368 462ZM1348 442V444H1014.72V442V440H1348V442Z" fill="black"/>
<path d="M994.721 615L992.721 615V615L994.721 615ZM994.721 663.089H996.721V664.097L995.91 664.696L994.721 663.089ZM993.084 664.273L994.237 665.908L994.237 665.908L993.084 664.273ZM962.128 675.5L962.489 677.467L962.488 677.467L962.128 675.5ZM962 675.523L961.908 677.521L961.64 673.556L962 675.523ZM996.59 673.448L996.173 671.492L997.729 671.16L998.402 672.602L996.59 673.448ZM1348 685L1348 687H1348V685ZM1368 665L1370 665L1370 665L1368 665ZM1368 615L1370 615V615H1368ZM1348 595L1348 593H1348L1348 595ZM1014.72 595V597C1004.78 597 996.721 605.059 996.721 615L994.721 615L992.721 615C992.721 602.85 1002.57 593 1014.72 593V595ZM994.721 615H996.721V663.089H994.721H992.721V615H994.721ZM994.721 663.089L995.91 664.696C995.38 665.089 994.823 665.494 994.237 665.908L993.084 664.273L991.931 662.639C992.487 662.247 993.019 661.86 993.531 661.481L994.721 663.089ZM993.084 664.273L994.237 665.908C983.208 673.688 967.776 676.496 962.489 677.467L962.128 675.5L961.767 673.533C967.163 672.541 981.725 669.838 991.931 662.639L993.084 664.273ZM962.128 675.5L962.488 677.467L962.36 677.491L962 675.523L961.64 673.556L961.768 673.533L962.128 675.5ZM962 675.523L962.092 673.526C978.938 674.303 988.854 673.053 996.173 671.492L996.59 673.448L997.007 675.404C989.316 677.044 979.054 678.313 961.908 677.521L962 675.523ZM996.59 673.448L998.402 672.602C1001.27 678.748 1007.5 683 1014.72 683V685V687C1005.89 687 998.278 681.794 994.778 674.294L996.59 673.448ZM1014.72 685V683H1348V685V687H1014.72V685ZM1348 685L1348 683C1357.94 683 1366 674.941 1366 665L1368 665L1370 665C1370 677.15 1360.15 687 1348 687L1348 685ZM1368 665H1366V615H1368H1370V665H1368ZM1368 615L1366 615C1366 605.059 1357.94 597 1348 597L1348 595L1348 593C1360.15 593 1370 602.85 1370 615L1368 615ZM1348 595V597H1014.72V595V593H1348V595Z" fill="black"/>
<g clip-path="url(#clip0_4_5199)">
<path d="M456.164 515.883L455.532 518.819L463.801 524.099L464.413 521.184L456.164 515.883Z" fill="white"/>
<path d="M463.802 524.099L463.046 528.991C474.378 530.867 480.564 524.282 480.564 524.282C477.216 521.815 473.929 519.614 471.111 517.82L470.335 519.124L470.907 519.471L470.294 522.407L463.802 524.099Z" fill="white"/>
<path d="M464.415 521.183L463.802 524.098L470.295 522.406L470.907 519.471L464.415 521.183Z" fill="white"/>
<path d="M372.678 546.318L372.474 549.315L381.416 553.372L381.6 550.375L372.678 546.318Z" fill="white"/>
<path d="M381.416 553.372L380.64 559.202C384.724 559.875 388.787 559.753 392.156 558.122C397.056 555.757 397.934 553.392 397.26 551.415C396.3 548.602 392.156 546.604 392.156 546.604L389.215 545.055L387.786 547.766L387.603 550.742L381.416 553.372Z" fill="white"/>
<path d="M381.601 550.375L381.417 553.372L387.604 550.742L387.787 547.766L381.601 550.375Z" fill="white"/>
<path d="M372.679 546.318L381.601 550.375L387.787 547.766L378.824 544.056L372.679 546.318Z" fill="white"/>
<path d="M294.866 496.619V490.157C294.458 488.73 292.845 487.894 291.375 488.526L273.449 496.293C272.489 496.7 271.877 497.638 271.877 498.678V510.787C271.877 512.642 273.775 513.885 275.49 513.151L293.417 505.568C294.131 505.262 294.642 504.691 294.866 503.978V496.619Z" fill="white"/>
<path d="M64.968 355.918C70.052 357.509 76.1568 360.077 81.6898 364.134C92.1027 371.738 100.535 384.621 96.5333 406.209C95.7982 410.164 94.6753 414.425 93.3482 419.358C89.9997 431.834 85.4262 448.917 84.3645 474.48C83.6295 492.501 97.6971 532.253 145.943 539.979C152.048 540.957 158.275 541.406 164.482 541.406C190.228 541.406 215.954 533.945 234.534 526.891C251.44 520.449 264.833 513.559 271.877 509.665V502.673H271.816C259.26 509.808 198.661 542.241 146.903 533.945C102.72 526.871 89.8159 490.992 90.4897 474.725C91.531 449.855 95.8186 433.811 99.2692 420.928C100.617 415.872 101.781 411.51 102.556 407.331C103.761 400.889 104.945 388.27 99.5346 376.202C95.8595 368.027 89.8772 361.443 81.6694 356.53C77.2797 353.839 72.2366 351.678 66.581 350.007C64.866 349.477 63.1101 349.008 61.2929 348.58C61.2929 348.58 59.0878 348.437 58.5161 350.537C58.5161 350.557 58.4957 350.598 58.4957 350.618C58.067 352.534 59.3941 354.39 61.2929 354.879C62.4363 355.164 63.6613 355.511 64.968 355.918Z" fill="white"/>
<path d="M45.491 347.988L46.0014 348.315C49.6766 350.435 51.9429 354.349 51.9429 358.568V361.504C52.1266 361.484 52.3104 361.422 52.4737 361.321L64.9691 355.918C63.6624 355.511 62.4374 355.164 61.294 354.879C59.3952 354.389 58.0681 352.534 58.4968 350.618C58.4968 350.618 58.5172 350.557 58.5172 350.537C59.0889 348.437 61.294 348.58 61.294 348.58C63.1111 349.008 64.8671 349.477 66.5821 350.007L66.7659 349.415V340.425C66.7659 339.345 65.6225 338.632 64.6424 339.141L62.417 340.14L46.0627 347.479C45.8177 347.601 45.6339 347.764 45.491 347.988Z" fill="white"/>
<path d="M30.625 335.39L45.2642 347.866L45.4888 347.988C45.6317 347.764 45.8155 347.601 46.0605 347.479L62.4148 340.14L62.0677 339.365L55.5954 332.862C55.1871 332.455 54.9625 331.904 54.9625 331.334V330.212C54.9625 328.765 53.5332 327.725 52.1449 328.153L31.7275 334.554C31.2579 334.697 30.87 335.003 30.625 335.39Z" fill="white"/>
<path d="M30.6269 335.39C30.8719 335.003 31.2598 334.697 31.7294 334.554L52.1468 328.153C53.5351 327.725 54.9644 328.765 54.9644 330.212V331.334C54.9644 331.904 55.189 332.455 55.5973 332.862L62.0696 339.365L62.4167 340.14L64.6422 339.141C65.6222 338.632 66.7656 339.345 66.7656 340.425V349.415L66.5818 350.007C72.2375 351.678 77.2805 353.839 81.6703 356.53H81.6907V253.298C81.6907 249.323 78.036 246.347 74.1363 247.162L6.04438 261.208C3.12469 261.799 1.02173 264.367 1.02173 267.344V391.94C1.02173 396.037 4.94185 399.054 8.92323 397.994L77.0151 379.973C79.7715 379.26 81.6907 376.773 81.6907 373.919V364.134C76.1576 360.077 70.0528 357.508 64.9689 355.918L52.4734 361.321C52.3101 361.423 52.1263 361.484 51.9426 361.504C51.7384 361.565 51.5138 361.545 51.3096 361.484L46.3278 360.057C45.6949 359.873 45.2661 359.302 45.2661 358.65V358.446H32.3828C31.1782 358.446 30.2185 357.468 30.2185 356.285V336.613C30.2185 336.165 30.3615 335.737 30.6269 335.39ZM34.4858 304.486V292.051H38.6509V304.486H34.4858ZM46.8791 302.366V289.931H51.0442V302.366H46.8791Z" fill="white"/>
<path d="M456.166 515.883L464.415 521.183L470.907 519.471L470.336 519.124L462.577 514.538L456.166 515.883Z" fill="white"/>
<path d="M300.093 419.623C299.42 421.743 298.276 426.37 300.563 430.121C303.789 435.442 311.793 435.544 317.448 435.625C319.061 435.666 323.39 435.687 329.821 434.097C331.577 433.668 333.476 433.118 335.538 432.425C343.929 429.571 346.339 427.064 355.506 422.681C355.506 422.681 363.551 418.828 375.638 415.036C384.111 412.386 400.322 408.452 424.17 409.43C424.027 406.27 422.393 397.933 409.98 393.061C399.812 389.065 380.395 390.288 368.165 391.613C369.002 392.266 369.472 393.02 369.472 393.815V400.991C369.472 403.6 364.449 405.7 358.242 405.7C352.035 405.7 347.033 403.6 347.033 400.991V395.874C336.008 399.197 318.408 405.353 306.28 413.67C303.891 415.322 301.788 417.34 300.093 419.623ZM326.534 414.751C326.534 413.854 328.004 413.12 329.842 413.12C331.679 413.12 333.17 413.854 333.17 414.751C333.17 415.648 331.679 416.361 329.842 416.361C328.004 416.361 326.534 415.648 326.534 414.751Z" fill="white"/>
<path d="M358.243 389.106C352.057 389.106 347.034 391.206 347.034 393.815C347.034 396.424 352.057 398.524 358.243 398.524C364.43 398.524 369.473 396.424 369.473 393.815C369.473 393.02 369.003 392.266 368.166 391.613C366.288 390.125 362.551 389.106 358.243 389.106Z" fill="white"/>
<path d="M347.034 395.874V400.991C347.034 403.6 352.057 405.7 358.243 405.7C364.43 405.7 369.473 403.6 369.473 400.991V393.815C369.473 396.424 364.45 398.524 358.243 398.524C352.036 398.524 347.034 396.424 347.034 393.815V395.874Z" fill="white"/>
<path d="M329.822 434.097V434.199L329.843 523.059C330.578 523.038 331.333 522.977 332.068 522.855C380.518 515.17 424.967 489.525 424.967 489.525C424.457 488.709 424.171 487.731 424.171 486.732V410.674C424.171 410.674 424.232 410.205 424.171 409.43C400.323 408.452 384.112 412.386 375.639 415.036C363.552 418.828 355.507 422.681 355.507 422.681C346.34 427.064 343.931 429.571 335.539 432.425C333.477 433.118 331.578 433.669 329.822 434.097ZM359.795 447.143V432.344C359.795 431.589 360.101 430.876 360.652 430.366C370.677 421.356 383.826 419.745 389.42 419.48C390.931 419.399 392.156 420.602 392.156 422.09V438.969C392.156 439.825 391.768 440.6 391.074 441.089C387.889 443.372 377.783 449.59 362.49 449.773C361.02 449.773 359.795 448.611 359.795 447.143Z" fill="white"/>
<path d="M359.795 432.344V447.144C359.795 448.611 361.02 449.773 362.49 449.773C377.782 449.59 387.889 443.372 391.074 441.089C391.768 440.6 392.156 439.825 392.156 438.969V422.09C392.156 420.602 390.931 419.399 389.42 419.48C383.826 419.745 370.677 421.356 360.652 430.366C360.101 430.876 359.795 431.589 359.795 432.344Z" fill="white"/>
<path d="M309.058 524.853L359.611 550.763C359.611 550.763 370.228 557.531 380.641 559.202L381.417 553.372L372.474 549.315L372.678 546.319L378.824 544.056L387.787 547.766L389.216 545.055L373.577 536.799L371.106 535.494C360.162 530.133 371.106 525.587 371.106 525.587C371.106 525.587 398.057 515.72 411.247 511.093C421.006 507.668 428.132 512.092 428.132 512.092C428.132 512.092 439.321 518.513 453.572 525.77C457.043 527.544 460.207 528.543 463.045 528.991L463.801 524.099L455.532 518.819L456.165 515.883L462.576 514.538L470.334 519.125L471.11 517.82C466.353 514.782 462.943 512.927 462.943 512.927L426.764 491.298C426.008 490.85 425.396 490.238 424.967 489.525C424.967 489.525 380.519 515.17 332.068 522.855C331.333 522.977 330.578 523.039 329.843 523.059C329.189 523.079 328.556 523.059 327.903 523.018C323.86 522.672 314.468 522.264 309.058 524.853Z" fill="white"/>
<path d="M354.446 569.13L354.323 569.354L367.615 577.08C367.615 577.08 376.088 582.727 398.915 583.44C408.021 583.726 423.354 582.992 439.259 580.627C463.25 577.1 488.486 569.863 495.428 556.878C495.428 556.878 503.084 545.014 491.895 533.842C491.426 533.353 490.936 532.884 490.425 532.436C489.772 533.149 473.091 550.925 438.463 529.439L428.479 523.14C423.926 520.245 418.209 519.206 413.207 521.244L373.577 536.798L389.217 545.054L392.157 546.604C392.157 546.604 396.301 548.601 397.261 551.415L397.383 551.374C397.731 551.843 404.591 561.2 400.752 568.375C398.404 572.779 393.259 574.022 389.237 574.939C374.945 578.16 361.735 572.88 354.446 569.13Z" fill="white"/>
<path d="M30.2188 336.613V356.285C30.2188 357.468 31.1784 358.446 32.383 358.446H45.2664V348.763C45.2664 348.478 45.348 348.213 45.491 347.988L45.2664 347.866L30.6271 335.39C30.3617 335.737 30.2188 336.165 30.2188 336.613Z" fill="#E8E8E8"/>
<path d="M34.4855 292.051H38.6506V304.486H34.4855V292.051Z" fill="black"/>
<path d="M45.2657 358.446V358.65C45.2657 359.302 45.6944 359.873 46.3274 360.056L51.3092 361.483C51.5134 361.545 51.738 361.565 51.9421 361.504V358.568C51.9421 354.349 49.6758 350.435 46.0007 348.314L45.4903 347.988C45.3474 348.213 45.2657 348.478 45.2657 348.763V358.446Z" fill="#E8E8E8"/>
<path d="M46.8778 289.931H51.043V302.366H46.8778V289.931Z" fill="black"/>
<path d="M255.647 534.638C249.563 545.89 261.772 559.467 278.739 560.955C282.68 561.302 286.498 561.811 289.867 562.341C296.747 563.422 303.403 565.603 309.61 568.804C317.634 572.942 331.865 579.893 352.671 588.639C387.115 603.112 439.26 580.648 439.26 580.648C423.355 582.992 408.022 583.726 398.916 583.44C376.089 582.727 367.616 577.08 367.616 577.08L354.324 569.354L301.79 538.837L289.05 531.437C288.54 531.152 288.05 530.785 287.703 530.316C285.028 526.769 286.967 521.407 287.866 519.328C287.866 519.328 262.957 521.102 255.647 534.638Z" fill="#E8E8E8"/>
<path d="M287.864 519.328C286.965 521.408 285.026 526.769 287.7 530.316C288.047 530.785 288.537 531.152 289.048 531.437L301.788 538.837C301.788 538.837 301.074 534.597 305.892 527.401C306.607 526.341 307.709 525.505 309.057 524.853C314.468 522.264 323.86 522.672 327.902 523.018C328.555 523.059 329.188 523.079 329.842 523.059V434.097C323.39 435.687 319.061 435.666 317.448 435.626C311.793 435.544 303.789 435.442 300.563 430.122C298.277 426.371 299.42 421.743 300.094 419.623C296.786 424.026 294.908 429.428 294.867 435.055V490.157C294.949 490.381 294.989 490.626 294.989 490.891V503.183C294.989 503.448 294.949 503.733 294.867 503.978V505.935C294.867 505.935 294.704 511.684 288.885 517.84C288.476 518.289 288.109 518.778 287.864 519.328Z" fill="#E8E8E8"/>
<path d="M305.893 527.401C301.075 534.597 301.79 538.837 301.79 538.837L354.323 569.354L354.446 569.13C361.735 572.881 374.945 578.161 389.237 574.94C393.259 574.022 398.404 572.779 400.752 568.375C404.591 561.2 397.731 551.843 397.384 551.374L397.261 551.415C397.935 553.392 397.057 555.757 392.157 558.122C388.788 559.752 384.725 559.875 380.641 559.202C370.228 557.53 359.611 550.762 359.611 550.762L309.058 524.853C307.711 525.505 306.608 526.341 305.893 527.401Z" fill="#E8E8E8"/>
<path d="M371.105 525.586C371.105 525.586 360.162 530.132 371.105 535.494L373.576 536.798L413.206 521.244C418.208 519.206 423.925 520.245 428.478 523.14L438.462 529.439C473.09 550.925 489.771 533.149 490.424 532.436C487.382 529.521 483.932 526.769 480.563 524.282C480.563 524.282 474.376 530.866 463.045 528.991C460.207 528.542 457.042 527.543 453.571 525.77C439.32 518.513 428.131 512.091 428.131 512.091C428.131 512.091 421.005 507.667 411.246 511.092C398.056 515.72 371.105 525.586 371.105 525.586Z" fill="#E8E8E8"/>
<path d="M271.878 509.665V510.787C271.878 512.642 273.777 513.885 275.492 513.151L293.419 505.568C294.133 505.262 294.644 504.691 294.868 503.978C294.95 503.733 294.991 503.448 294.991 503.183V490.891C294.991 490.625 294.95 490.381 294.868 490.157C294.46 488.73 292.847 487.894 291.377 488.526L273.45 496.293C272.491 496.7 271.878 497.638 271.878 498.678V509.665Z" stroke="black" stroke-width="0.886195" stroke-miterlimit="10"/>
<path d="M271.816 502.673C259.26 509.808 198.661 542.241 146.903 533.945C102.72 526.871 89.816 490.992 90.4897 474.725C91.531 449.855 95.8187 433.811 99.2692 420.928C100.617 415.872 101.781 411.51 102.556 407.331C103.761 400.889 104.945 388.27 99.5346 376.202C95.8595 368.027 89.8772 361.443 81.6694 356.53C77.2797 353.839 72.2366 351.678 66.581 350.007C64.866 349.477 63.1101 349.008 61.2929 348.58C61.2929 348.58 59.0878 348.437 58.5162 350.537C58.5162 350.557 58.4957 350.598 58.4957 350.618C58.067 352.534 59.3941 354.39 61.2929 354.879C62.4363 355.164 63.6613 355.511 64.968 355.918C70.052 357.509 76.1568 360.077 81.6899 364.134C92.1027 371.738 100.535 384.621 96.5333 406.209C95.7982 410.164 94.6753 414.425 93.3482 419.358C89.9997 431.834 85.4262 448.917 84.3645 474.48C83.6295 492.501 97.6971 532.253 145.943 539.979C152.048 540.957 158.275 541.406 164.482 541.406C190.228 541.406 215.954 533.945 234.534 526.891C251.44 520.449 264.833 513.559 271.877 509.665" stroke="black" stroke-width="0.886195" stroke-miterlimit="10"/>
<path d="M66.7659 349.415V340.425C66.7659 339.345 65.6225 338.632 64.6424 339.141L62.417 340.14L46.0627 347.479C45.8177 347.601 45.6339 347.764 45.491 347.988C45.3481 348.213 45.2664 348.478 45.2664 348.763V358.65C45.2664 359.302 45.6951 359.873 46.3281 360.057L51.3099 361.484C51.5141 361.545 51.7387 361.565 51.9429 361.504C52.1266 361.484 52.3104 361.422 52.4737 361.321L64.9691 355.918H64.9895" stroke="black" stroke-width="0.886195" stroke-miterlimit="10"/>
<path d="M62.0691 339.365L55.5968 332.862C55.1884 332.455 54.9639 331.904 54.9639 331.334V330.212C54.9639 328.765 53.5346 327.725 52.1463 328.153L31.7289 334.554C31.2593 334.697 30.8714 335.003 30.6264 335.39C30.361 335.737 30.218 336.165 30.218 336.613V356.285C30.218 357.468 31.1777 358.446 32.3823 358.446H45.2656" stroke="black" stroke-width="0.886195" stroke-miterlimit="10"/>
<path d="M81.6907 356.51V253.298C81.6907 249.323 78.036 246.347 74.1363 247.162L6.04438 261.208C3.1247 261.799 1.02173 264.367 1.02173 267.344V391.94C1.02173 396.037 4.94185 399.054 8.92323 397.994L77.0151 379.973C79.7715 379.26 81.6907 376.773 81.6907 373.919V364.134" stroke="black" stroke-width="0.886195" stroke-miterlimit="10"/>
<path d="M309.058 524.852L359.612 550.762C359.612 550.762 370.229 557.53 380.642 559.202C384.725 559.875 388.788 559.752 392.157 558.122C397.057 555.757 397.935 553.392 397.261 551.415C396.302 548.602 392.157 546.604 392.157 546.604L389.217 545.054L373.577 536.798L371.107 535.494C360.163 530.132 371.107 525.586 371.107 525.586C371.107 525.586 398.058 515.72 411.247 511.092C421.007 507.667 428.132 512.091 428.132 512.091C428.132 512.091 439.321 518.513 453.572 525.77C457.043 527.543 460.208 528.542 463.046 528.991C474.378 530.866 480.564 524.282 480.564 524.282" stroke="black" stroke-width="0.443097" stroke-miterlimit="10"/>
<path d="M347.034 393.815C347.034 396.424 352.057 398.524 358.243 398.524C364.43 398.524 369.473 396.424 369.473 393.815C369.473 393.02 369.003 392.266 368.166 391.613" stroke="black" stroke-width="0.443097" stroke-miterlimit="10"/>
<path d="M347.034 395.874V400.991C347.034 403.6 352.057 405.7 358.243 405.7C364.43 405.7 369.473 403.6 369.473 400.991V393.815" stroke="black" stroke-width="0.443097" stroke-miterlimit="10"/>
<path d="M368.166 391.613C380.396 390.288 399.813 389.065 409.981 393.061C422.395 397.933 424.028 406.271 424.171 409.43C424.232 410.205 424.171 410.674 424.171 410.674V486.732C424.171 487.731 424.457 488.709 424.967 489.525C425.396 490.238 426.009 490.85 426.764 491.298L462.944 512.927C462.944 512.927 466.353 514.782 471.111 517.82C473.928 519.614 477.215 521.815 480.564 524.282C483.933 526.769 487.383 529.521 490.425 532.436C490.936 532.885 491.426 533.353 491.895 533.843C503.084 545.014 495.428 556.878 495.428 556.878C488.486 569.864 463.25 577.101 439.26 580.627C423.354 582.992 408.021 583.726 398.915 583.44C376.088 582.727 367.615 577.08 367.615 577.08L354.323 569.354L301.79 538.837L289.049 531.437C288.539 531.152 288.049 530.785 287.702 530.316C285.027 526.769 286.966 521.408 287.865 519.328C288.11 518.778 288.477 518.289 288.886 517.84C294.705 511.684 294.868 505.935 294.868 505.935V435.055C294.909 429.428 296.787 424.026 300.095 419.623C301.789 417.34 303.892 415.322 306.281 413.67C318.409 405.353 336.009 399.197 347.034 395.874V393.815C347.034 391.206 352.057 389.106 358.243 389.106C362.552 389.106 366.288 390.125 368.166 391.613Z" stroke="black" stroke-width="3" stroke-linejoin="round"/>
<path d="M424.17 409.43C400.322 408.452 384.111 412.386 375.638 415.036C363.551 418.828 355.506 422.681 355.506 422.681C346.339 427.064 343.929 429.571 335.538 432.425C333.476 433.118 331.577 433.669 329.821 434.097C323.39 435.687 319.061 435.666 317.448 435.626C311.793 435.544 303.789 435.442 300.563 430.122C298.276 426.371 299.42 421.743 300.093 419.623" stroke="black" stroke-width="0.886195" stroke-miterlimit="10"/>
<path d="M424.967 489.525C424.967 489.525 380.518 515.17 332.068 522.855C331.333 522.977 330.578 523.039 329.843 523.059C329.189 523.079 328.556 523.059 327.903 523.018C323.86 522.672 314.468 522.264 309.058 524.853C307.71 525.505 306.608 526.341 305.893 527.401C301.075 534.597 301.789 538.837 301.789 538.837" stroke="black" stroke-width="0.443097" stroke-miterlimit="10"/>
<path d="M294.991 496.558L294.868 496.619L279.188 503.468" stroke="black" stroke-width="0.443097" stroke-miterlimit="10" stroke-linecap="round"/>
<path d="M389.42 419.48C383.826 419.745 370.677 421.356 360.652 430.366C360.101 430.876 359.795 431.589 359.795 432.344V447.144C359.795 448.611 361.02 449.773 362.49 449.773C377.782 449.59 387.889 443.372 391.074 441.089C391.768 440.6 392.156 439.825 392.156 438.969V422.09C392.156 420.602 390.931 419.399 389.42 419.48Z" stroke="black" stroke-width="0.443097" stroke-miterlimit="10"/>
<path d="M326.535 414.751C326.535 415.648 328.005 416.361 329.842 416.361C331.68 416.361 333.17 415.648 333.17 414.751C333.17 413.854 331.68 413.12 329.842 413.12C328.005 413.12 326.535 413.854 326.535 414.751Z" stroke="black" stroke-width="0.443097" stroke-miterlimit="10"/>
<path d="M463.802 524.098L470.295 522.406L470.907 519.471" stroke="black" stroke-width="0.221549" stroke-linejoin="round"/>
<path d="M456.164 515.883L455.532 518.819L463.801 524.099L464.413 521.184" stroke="black" stroke-width="0.221549" stroke-linejoin="round"/>
<path d="M456.166 515.883L464.415 521.183L470.907 519.471L470.336 519.124L462.577 514.538L456.166 515.883Z" stroke="black" stroke-width="0.221549" stroke-linejoin="round"/>
<path d="M381.417 553.372L387.604 550.742L387.787 547.766" stroke="black" stroke-width="0.221549" stroke-linejoin="round"/>
<path d="M372.678 546.318L372.474 549.315L381.416 553.372L381.6 550.375" stroke="black" stroke-width="0.221549" stroke-linejoin="round"/>
<path d="M372.679 546.318L381.601 550.375L387.787 547.766L378.824 544.056L372.679 546.318Z" stroke="black" stroke-width="0.221549" stroke-linejoin="round"/>
</g>
<g clip-path="url(#clip1_4_5199)">
<path d="M378.78 584.025C367.631 599.297 363 616.334 363 633.935C363 664.602 381.696 692.768 412.913 714.83L426.218 707.966L450.574 696.788C417.985 678.28 393.8 654.061 382.015 626.63C379.785 621.433 378.731 615.819 378.731 610.181V584L378.78 584.025Z" fill="#CFCFCF"/>
<path d="M471.647 706.059L471.671 706.084C474.293 707.285 476.988 708.412 479.708 709.54C479.806 709.565 479.855 709.614 479.953 709.638C498.453 717.237 518.791 723.219 540.451 727.264V660.316H540.378C447.07 641.833 379.368 586.726 379.368 521.568V553.313C379.368 558.951 380.398 564.565 382.652 569.713C397.354 603.934 431.339 633.179 476.866 652.545C487.182 656.32 491.274 667.499 487.574 674.877C484.878 680.221 478.091 683.506 470.863 682.55C470.422 682.477 469.981 682.354 469.539 682.183C427.713 662.89 396.545 634.969 382.652 602.611C380.422 597.438 379.368 591.849 379.368 586.211V609.131C379.368 614.769 380.398 620.383 382.652 625.58C394.413 653.011 418.622 677.231 451.211 695.739C452.755 696.621 454.299 697.479 455.891 698.313C460.963 701.058 466.183 703.632 471.622 706.059H471.647Z" fill="#E8E8E8"/>
<path d="M379.393 582.975V586.211C379.393 591.849 380.422 597.463 382.677 602.611C396.57 634.994 427.713 662.89 469.564 682.183C470.005 682.379 470.446 682.501 470.887 682.55C478.116 683.506 484.903 680.222 487.598 674.878C491.323 667.499 487.231 656.321 476.891 652.546C431.364 633.18 397.378 603.959 382.677 569.713C380.447 564.541 379.393 558.952 379.393 553.313V582.951V582.975Z" fill="#E8E8E8"/>
<path d="M398.579 463.323C386.327 481.12 379.417 500.952 379.417 521.592C379.417 586.75 447.119 641.857 540.426 660.341H540.5V660.022L528.788 638.376C453.22 618.324 400.294 571.895 400.294 517.866C400.294 496.735 408.38 476.732 422.763 459.082L421.807 458.322C419.455 461.337 415.461 463.323 410.928 463.323H398.579Z" fill="#CFD0D0"/>
<path d="M398.579 447.169V463.324H410.928C415.462 463.324 419.456 461.338 421.808 458.323C423.229 456.484 424.038 454.302 424.038 451.925V447.169C424.038 451.042 418.328 454.18 411.321 454.18C404.313 454.18 398.579 451.042 398.579 447.169Z" fill="#CFD0D0"/>
<path d="M411.321 440.108C404.264 440.108 398.579 443.246 398.579 447.168C398.579 451.091 404.288 454.179 411.321 454.179C418.353 454.179 424.038 451.042 424.038 447.168C424.038 444.594 421.514 442.315 417.765 441.089C415.878 440.501 413.673 440.108 411.321 440.108Z" fill="#CFD0D0"/>
<path d="M409.777 715.742C408.16 716.551 407.302 718.316 407.596 720.13C408.135 723.096 409.115 727.068 410.34 726.308C411.958 725.303 416.074 721.895 420.264 718.365C417.961 716.894 415.731 715.375 413.55 713.806L409.777 715.767V715.742Z" fill="#CFD0D0"/>
<path d="M426.854 706.917L413.549 713.781C415.73 715.35 417.96 716.87 420.263 718.341C425.041 714.345 429.917 710.153 431.314 709.172C433.936 707.334 455.939 698.313 455.939 698.313C454.322 697.455 452.803 696.621 451.259 695.739L426.903 706.917H426.854Z" fill="#CFD0D0"/>
<path d="M694.844 723.336C667.523 730.445 637.556 734.392 606.119 734.392C589.677 734.392 573.677 733.313 558.215 731.254C551.992 730.47 545.866 729.489 539.863 728.362C518.202 724.292 497.865 718.311 479.365 710.736C479.267 710.712 479.218 710.663 479.12 710.638C479.12 710.638 483.138 719.929 485.123 722.454C485.809 723.361 488.847 727.185 490.22 728.901C490.661 729.465 490.734 730.2 490.416 730.813L488.896 733.779C488.235 735.078 486.422 735.103 485.711 733.853L471.034 707.182C465.594 704.73 460.375 702.132 455.303 699.411C455.303 699.411 433.299 708.456 430.677 710.27C429.281 711.251 424.405 715.443 419.626 719.439C460.62 745.865 520.285 762.485 586.737 762.485C691.267 762.485 779.061 721.302 803.613 665.631L803.368 665.41C784.329 684.678 758.38 700.931 727.654 712.795C717.24 716.865 706.238 720.395 694.82 723.385L694.844 723.336Z" fill="#CFCFCF"/>
<path d="M528.763 638.377C534.546 639.921 540.475 641.294 546.479 642.495C567.282 646.711 589.481 648.991 612.539 648.991C729.786 648.991 824.808 590.281 824.808 517.867C824.808 445.453 729.81 386.742 612.539 386.742C529.498 386.742 457.631 416.183 422.738 459.083C408.355 476.757 400.269 496.736 400.269 517.867C400.269 571.895 453.171 618.324 528.763 638.377ZM465.545 511.322C465.545 461.632 531.581 421.356 613.078 421.356C694.575 421.356 760.635 461.632 760.635 511.322C760.635 561.011 694.575 601.263 613.078 601.263C531.581 601.263 465.545 560.987 465.545 511.322Z" fill="#CFD0D0"/>
<path d="M728.29 645.878C794.522 620.383 838.774 574.248 838.774 521.593C838.774 441.31 735.935 376.226 609.083 376.226C529.252 376.226 458.929 401.99 417.764 441.089C421.512 442.315 424.036 444.595 424.036 447.169V451.924C424.036 454.278 423.228 456.484 421.807 458.322L422.762 459.082C457.679 416.183 529.522 386.742 612.562 386.742C729.809 386.742 824.832 445.453 824.832 517.867C824.832 590.28 729.809 648.991 612.562 648.991C589.481 648.991 567.305 646.736 546.502 642.495L558.852 663.43C575.024 665.734 591.833 666.935 609.132 666.935C647.577 666.935 683.817 660.954 715.647 650.413C715.671 650.388 715.72 650.388 715.72 650.388C720.008 648.967 724.223 647.471 728.339 645.878H728.29Z" fill="#CFD0D0"/>
<path d="M471.646 706.084L486.324 732.755C487.01 734.005 488.847 733.981 489.509 732.682L491.028 729.715C491.347 729.078 491.273 728.367 490.832 727.803C489.435 726.063 486.422 722.263 485.735 721.356C483.751 718.831 479.732 709.54 479.732 709.54C477.037 708.413 474.317 707.285 471.695 706.084H471.671H471.646Z" fill="#CFD0D0"/>
<path d="M499.923 508.919C494.507 508.919 490.121 511.787 490.121 515.342C490.121 518.896 494.507 521.764 499.923 521.764C505.338 521.764 509.675 518.896 509.675 515.342C509.675 511.787 505.289 508.919 499.923 508.919Z" fill="#CFCFCF"/>
<path d="M515.164 468.397C501.344 468.397 490.146 475.58 490.146 484.43C490.146 493.279 501.344 500.437 515.164 500.437C528.983 500.437 540.181 493.254 540.181 484.43C540.181 475.605 528.983 468.397 515.164 468.397Z" fill="#CFCFCF"/>
<path d="M613.076 421.355C531.579 421.355 465.544 461.632 465.544 511.321C465.544 561.011 531.579 601.263 613.076 601.263C694.573 601.263 760.634 560.986 760.634 511.321C760.634 461.656 694.573 421.355 613.076 421.355ZM490.145 515.342C490.145 511.787 494.531 508.919 499.946 508.919C505.361 508.919 509.698 511.787 509.698 515.342C509.698 518.896 505.312 521.764 499.946 521.764C494.58 521.764 490.145 518.896 490.145 515.342ZM490.145 484.43C490.145 475.58 501.343 468.398 515.162 468.398C528.982 468.398 540.18 475.58 540.18 484.43C540.18 493.279 528.982 500.437 515.162 500.437C501.343 500.437 490.145 493.255 490.145 484.43ZM520.627 456.312C520.627 452.782 525.013 449.89 530.379 449.89C535.745 449.89 540.18 452.782 540.18 456.312C540.18 459.842 535.794 462.735 530.379 462.735C524.964 462.735 520.627 459.867 520.627 456.312Z" fill="#E8E8E8"/>
<path d="M530.404 449.89C525.013 449.89 520.651 452.782 520.651 456.312C520.651 459.842 525.037 462.735 530.404 462.735C535.77 462.735 540.205 459.867 540.205 456.312C540.205 452.758 535.819 449.89 530.404 449.89Z" fill="#CFCFCF"/>
<path d="M528.763 638.376L540.475 660.022V660.341C546.478 661.542 552.629 662.572 558.828 663.454L546.478 642.519C540.475 641.318 534.545 639.945 528.763 638.401V638.376Z" fill="#CFD0D0"/>
<path d="M540.475 660.341V727.288C546.478 728.416 552.604 729.396 558.828 730.181V663.454C552.629 662.572 546.478 661.542 540.475 660.341Z" fill="#E8E8E8"/>
<path d="M558.828 663.454V730.181C574.289 732.264 590.314 733.318 606.731 733.318C638.168 733.318 668.136 729.372 695.456 722.263V665.93C695.456 657.669 714.446 650.805 715.598 650.413C683.768 660.954 647.504 666.935 609.083 666.935C591.809 666.935 575 665.734 558.803 663.429L558.828 663.454Z" fill="#E8E8E8"/>
<path d="M695.456 665.955V722.288C706.875 719.297 717.877 715.767 728.291 711.698V645.878C724.174 647.447 719.96 648.967 715.671 650.388C715.671 650.388 715.647 650.388 715.598 650.413C714.422 650.83 695.456 657.694 695.456 665.93V665.955Z" fill="#E8E8E8"/>
<path d="M728.29 645.878V711.698C759.017 699.833 784.941 683.58 804.004 664.312C826.057 642.005 838.774 615.652 838.774 587.461V521.593C838.774 574.248 794.522 620.384 728.29 645.878Z" fill="#E8E8E8"/>
<path d="M422.738 459.083C408.355 476.757 400.269 496.736 400.269 517.867C400.269 571.895 453.171 618.324 528.763 638.377C534.546 639.921 540.475 641.294 546.479 642.495C567.282 646.711 589.481 648.991 612.539 648.991C729.786 648.991 824.808 590.281 824.808 517.867C824.808 445.453 729.81 386.742 612.539 386.742C529.498 386.742 457.631 416.183 422.738 459.083Z" stroke="black" stroke-width="1.33773" stroke-linecap="round" stroke-linejoin="round"/>
<path d="M465.544 511.321C465.544 560.986 531.579 601.263 613.076 601.263C694.573 601.263 760.634 560.986 760.634 511.321C760.634 461.656 694.573 421.355 613.076 421.355C531.579 421.355 465.544 461.632 465.544 511.321Z" stroke="black" stroke-width="1.33773" stroke-linecap="round" stroke-linejoin="round"/>
<path d="M379.391 553.338C379.391 558.977 380.42 564.59 382.674 569.738C397.376 603.959 431.362 633.204 476.889 652.57C487.204 656.346 491.296 667.524 487.596 674.903C484.901 680.247 478.114 683.531 470.885 682.575C470.444 682.502 470.003 682.379 469.562 682.208C427.736 662.915 396.568 634.994 382.674 602.636C380.445 597.463 379.391 591.874 379.391 586.236" stroke="black" stroke-width="1.33773" stroke-linecap="round" stroke-linejoin="round"/>
<path d="M520.628 456.312C520.628 459.867 525.014 462.735 530.38 462.735C535.746 462.735 540.181 459.867 540.181 456.312C540.181 452.758 535.795 449.89 530.38 449.89C524.965 449.89 520.628 452.782 520.628 456.312Z" stroke="black" stroke-width="1.33773" stroke-linecap="round" stroke-linejoin="round"/>
<path d="M490.146 515.342C490.146 518.896 494.532 521.764 499.947 521.764C505.362 521.764 509.699 518.896 509.699 515.342C509.699 511.787 505.313 508.919 499.947 508.919C494.581 508.919 490.146 511.787 490.146 515.342Z" stroke="black" stroke-width="1.33773" stroke-linecap="round" stroke-linejoin="round"/>
<path d="M490.146 484.43C490.146 493.254 501.344 500.437 515.164 500.437C528.983 500.437 540.181 493.254 540.181 484.43C540.181 475.605 528.983 468.397 515.164 468.397C501.344 468.397 490.146 475.58 490.146 484.43Z" stroke="black" stroke-width="1.33773" stroke-linecap="round" stroke-linejoin="round"/>
<path d="M540.401 660.341C447.093 641.858 379.391 586.751 379.391 521.593" stroke="black" stroke-width="1.33773" stroke-linecap="round" stroke-linejoin="round"/>
<path d="M715.598 650.413C683.768 660.954 647.504 666.935 609.083 666.935C591.809 666.935 575 665.734 558.803 663.43" stroke="black" stroke-width="1.33773" stroke-linecap="round" stroke-linejoin="round"/>
<path d="M838.774 521.593C838.774 574.249 794.522 620.384 728.29 645.878C724.174 647.447 719.959 648.967 715.671 650.388" stroke="black" stroke-width="1.33773" stroke-linecap="round" stroke-linejoin="round"/>
<path d="M417.765 441.089C421.514 442.315 424.038 444.595 424.038 447.169C424.038 451.042 418.328 454.18 411.321 454.18C404.313 454.18 398.579 451.042 398.579 447.169" stroke="black" stroke-width="1.33773" stroke-linecap="round" stroke-linejoin="round"/>
<path d="M398.579 463.324H410.928C415.462 463.324 419.456 461.338 421.808 458.323C423.229 456.484 424.038 454.302 424.038 451.925V447.169" stroke="black" stroke-width="1.33773" stroke-linecap="round" stroke-linejoin="round"/>
<path d="M455.915 698.313C454.298 697.455 452.779 696.621 451.235 695.739" stroke="black" stroke-width="1.33773" stroke-linecap="round" stroke-linejoin="round"/>
<path d="M479.977 709.663C479.977 709.663 479.83 709.589 479.732 709.565C477.036 708.437 474.316 707.31 471.695 706.108" stroke="black" stroke-width="1.33773" stroke-linecap="round" stroke-linejoin="round"/>
<path d="M715.671 650.388C715.671 650.388 715.646 650.388 715.597 650.413C714.421 650.829 695.456 657.693 695.456 665.93V722.704" stroke="black" stroke-width="1.33773" stroke-linecap="round" stroke-linejoin="round"/>
<path d="M728.291 645.854V645.878V711.698V712.114" stroke="black" stroke-width="1.33773" stroke-linecap="round" stroke-linejoin="round"/>
<path d="M558.828 730.206V730.181V663.454L546.478 642.52" stroke="black" stroke-width="1.33773" stroke-linecap="round" stroke-linejoin="round"/>
<path d="M540.473 727.289V660.341V660.023L528.761 638.377L528.712 638.353" stroke="black" stroke-width="1.33773" stroke-linecap="round" stroke-linejoin="round"/>
<path d="M471.303 705.834C465.863 703.407 460.644 700.833 455.572 698.087C455.572 698.087 433.568 707.133 430.947 708.947C429.55 709.928 424.674 714.119 419.896 718.115C415.706 721.645 411.589 725.053 409.972 726.058C408.747 726.818 407.767 722.846 407.228 719.88C406.909 718.091 407.791 716.326 409.409 715.492L413.182 713.531L426.487 706.667L450.843 695.489C418.254 676.981 394.07 652.761 382.284 625.33C380.054 620.133 379 614.52 379 608.882V521.343C379 500.726 385.935 480.87 398.162 463.073V446.919C398.162 443.021 403.871 439.859 410.903 439.859C413.255 439.859 415.461 440.226 417.347 440.839C458.586 401.764 528.91 376 608.74 376C735.593 376 838.432 441.084 838.432 521.367V587.236C838.432 615.427 825.715 641.779 803.637 664.062C784.599 683.33 758.65 699.583 727.923 711.447C717.509 715.517 706.507 719.047 695.089 722.037C667.768 729.146 637.801 733.093 606.364 733.093C589.922 733.093 573.922 732.015 558.46 729.955C552.237 729.171 546.111 728.19 540.108 727.063C518.447 722.993 498.109 717.012 479.61 709.437" stroke="black" stroke-width="2.67546" stroke-linejoin="round"/>
<path d="M471.695 706.084H471.646" stroke="#E8E8E8" stroke-width="2.67546" stroke-linejoin="round"/>
<path d="M471.622 706.035L471.646 706.06" stroke="#E8E8E8" stroke-width="2.67546" stroke-linejoin="round"/>
<path d="M479.708 709.565C479.708 709.565 483.726 718.856 485.711 721.381C486.397 722.288 489.435 726.112 490.808 727.828C491.249 728.391 491.322 729.127 491.004 729.74L489.484 732.706C488.823 734.005 487.01 734.03 486.299 732.779L471.622 706.108" stroke="black" stroke-width="2.67546" stroke-linejoin="round"/>
</g>
<path d="M313.368 234L303.528 198.24H309.528L317.496 229.2H316.008L324.264 198.24H330.168L338.424 229.2H336.888L344.904 198.24H350.856L341.064 234H334.68L326.376 203.52H328.056L319.704 234H313.368ZM354.543 234V197.664H359.967V213.12L359.103 212.448C359.743 210.816 360.767 209.584 362.175 208.752C363.583 207.888 365.215 207.456 367.071 207.456C368.991 207.456 370.687 207.872 372.159 208.704C373.631 209.536 374.783 210.688 375.615 212.16C376.447 213.632 376.863 215.312 376.863 217.2V234H371.487V218.688C371.487 217.376 371.231 216.272 370.719 215.376C370.239 214.448 369.567 213.744 368.703 213.264C367.839 212.752 366.847 212.496 365.727 212.496C364.639 212.496 363.647 212.752 362.751 213.264C361.887 213.744 361.199 214.448 360.687 215.376C360.207 216.304 359.967 217.408 359.967 218.688V234H354.543ZM384.503 244.56C383.863 244.56 383.223 244.496 382.583 244.368C381.975 244.272 381.415 244.112 380.903 243.888V239.232C381.287 239.328 381.751 239.408 382.295 239.472C382.839 239.568 383.367 239.616 383.879 239.616C385.383 239.616 386.487 239.28 387.191 238.608C387.927 237.968 388.583 236.976 389.159 235.632L390.887 231.696L390.791 236.256L379.559 208.032H385.367L393.671 229.68H391.703L399.959 208.032H405.815L394.343 236.832C393.735 238.368 392.967 239.712 392.039 240.864C391.143 242.048 390.071 242.96 388.823 243.6C387.607 244.24 386.167 244.56 384.503 244.56ZM417.918 234V208.032H423.102V213.648L422.43 212.784C422.974 211.024 423.966 209.696 425.406 208.8C426.846 207.904 428.494 207.456 430.35 207.456C432.43 207.456 434.27 208.016 435.87 209.136C437.502 210.224 438.59 211.68 439.134 213.504L437.598 213.648C438.366 211.568 439.534 210.016 441.102 208.992C442.702 207.968 444.526 207.456 446.574 207.456C448.366 207.456 449.982 207.872 451.422 208.704C452.894 209.536 454.062 210.688 454.926 212.16C455.79 213.632 456.222 215.312 456.222 217.2V234H450.798V218.688C450.798 217.376 450.558 216.272 450.078 215.376C449.63 214.448 448.99 213.744 448.158 213.264C447.358 212.752 446.414 212.496 445.326 212.496C444.238 212.496 443.278 212.752 442.446 213.264C441.614 213.744 440.958 214.448 440.478 215.376C439.998 216.304 439.758 217.408 439.758 218.688V234H434.382V218.688C434.382 217.376 434.142 216.272 433.662 215.376C433.214 214.448 432.574 213.744 431.742 213.264C430.942 212.752 429.982 212.496 428.862 212.496C427.774 212.496 426.814 212.752 425.982 213.264C425.15 213.744 424.494 214.448 424.014 215.376C423.566 216.304 423.342 217.408 423.342 218.688V234H417.918ZM474.219 234.576C471.627 234.576 469.323 233.984 467.307 232.8C465.323 231.584 463.771 229.952 462.651 227.904C461.531 225.824 460.971 223.504 460.971 220.944C460.971 218.32 461.531 216 462.651 213.984C463.803 211.968 465.339 210.384 467.259 209.232C469.179 208.048 471.355 207.456 473.787 207.456C475.739 207.456 477.483 207.792 479.019 208.464C480.555 209.136 481.851 210.064 482.907 211.248C483.963 212.4 484.763 213.728 485.307 215.232C485.883 216.736 486.171 218.336 486.171 220.032C486.171 220.448 486.155 220.88 486.123 221.328C486.091 221.776 486.027 222.192 485.931 222.576H465.243V218.256H482.859L480.267 220.224C480.587 218.656 480.475 217.264 479.931 216.048C479.419 214.8 478.619 213.824 477.531 213.12C476.475 212.384 475.227 212.016 473.787 212.016C472.347 212.016 471.067 212.384 469.947 213.12C468.827 213.824 467.963 214.848 467.355 216.192C466.747 217.504 466.507 219.104 466.635 220.992C466.475 222.752 466.715 224.288 467.355 225.6C468.027 226.912 468.955 227.936 470.139 228.672C471.355 229.408 472.731 229.776 474.267 229.776C475.835 229.776 477.163 229.424 478.251 228.72C479.371 228.016 480.251 227.104 480.891 225.984L485.307 228.144C484.795 229.36 483.995 230.464 482.907 231.456C481.851 232.416 480.571 233.184 479.067 233.76C477.595 234.304 475.979 234.576 474.219 234.576ZM497.705 223.344V222.528C497.705 221.12 497.929 219.872 498.377 218.784C498.857 217.696 499.449 216.72 500.153 215.856C500.889 214.96 501.641 214.144 502.409 213.408C503.497 212.384 504.457 211.392 505.289 210.432C506.153 209.472 506.585 208.352 506.585 207.072C506.585 206.272 506.393 205.552 506.009 204.912C505.625 204.24 505.049 203.712 504.281 203.328C503.545 202.912 502.633 202.704 501.545 202.704C500.041 202.704 498.745 203.168 497.657 204.096C496.601 204.992 495.929 206.208 495.641 207.744L490.601 206.544C490.889 204.784 491.529 203.248 492.521 201.936C493.545 200.592 494.825 199.552 496.361 198.816C497.929 198.048 499.689 197.664 501.641 197.664C503.849 197.664 505.737 198.112 507.305 199.008C508.905 199.872 510.121 201.008 510.953 202.416C511.785 203.824 512.201 205.344 512.201 206.976C512.201 208.288 511.929 209.472 511.385 210.528C510.873 211.552 510.201 212.496 509.369 213.36C508.569 214.224 507.737 215.072 506.873 215.904C505.849 216.896 504.937 217.936 504.137 219.024C503.369 220.08 502.985 221.328 502.985 222.768V223.344H497.705ZM497.705 234V227.76H503.225V234H497.705Z" fill="black"/>
<path d="M1012.95 144L1012.95 142H1012.95V144ZM992.947 164L990.947 164V164L992.947 164ZM992.947 212.089H994.947V213.063L994.18 213.664L992.947 212.089ZM991.399 213.273L992.595 214.877L992.595 214.877L991.399 213.273ZM962.121 224.5L962.502 226.463L962.501 226.464L962.121 224.5ZM962 224.523L961.903 226.521L961.62 222.56L962 224.523ZM994.808 222.428L994.366 220.477L995.94 220.121L996.621 221.584L994.808 222.428ZM1012.95 234L1012.95 236L1012.95 236L1012.95 234ZM1346 214L1348 214L1348 214L1346 214ZM1346 164L1348 164V164H1346ZM1326 144L1326 142H1326L1326 144ZM1012.95 144L1012.95 146C1003.01 146 994.947 154.059 994.947 164L992.947 164L990.947 164C990.947 151.85 1000.8 142 1012.95 142L1012.95 144ZM992.947 164H994.947V212.089H992.947H990.947V164H992.947ZM992.947 212.089L994.18 213.664C993.678 214.057 993.15 214.463 992.595 214.877L991.399 213.273L990.204 211.67C990.728 211.279 991.23 210.893 991.715 210.514L992.947 212.089ZM991.399 213.273L992.595 214.877C982.135 222.678 967.503 225.492 962.502 226.463L962.121 224.5L961.74 222.537C966.843 221.545 980.58 218.848 990.204 211.67L991.399 213.273ZM962.121 224.5L962.501 226.464L962.38 226.487L962 224.523L961.62 222.56L961.741 222.536L962.121 224.5ZM962 224.523L962.097 222.526C978.082 223.306 987.454 222.043 994.366 220.477L994.808 222.428L995.249 224.378C987.946 226.033 978.207 227.317 961.903 226.521L962 224.523ZM994.808 222.428L996.621 221.584C999.485 227.739 1005.72 232 1012.95 232L1012.95 234L1012.95 236C1004.11 236 996.49 230.784 992.994 223.272L994.808 222.428ZM1012.95 234V232H1326V234V236H1012.95V234ZM1326 234V232C1335.94 232 1344 223.941 1344 214L1346 214L1348 214C1348 226.15 1338.15 236 1326 236V234ZM1346 214H1344V164H1346H1348V214H1346ZM1346 164L1344 164C1344 154.059 1335.94 146 1326 146L1326 144L1326 142C1338.15 142 1348 151.85 1348 164L1346 164ZM1326 144V146H1012.95V144V142H1326V144Z" fill="black"/>
<path d="M536.111 243.295H534.111V243.991L534.543 244.536L536.111 243.295ZM537.257 244.711L535.718 245.989L535.718 245.989L537.257 244.711ZM558.911 258.115L559.518 256.21L559.51 256.207L558.911 258.115ZM559 258.144L559.157 260.137L559.607 256.238L559 258.144ZM535.094 255.77L535.765 253.886L533.84 253.199L533.196 255.139L535.094 255.77ZM295 269.459L295 271.459H295V269.459ZM275 249.459L273 249.459L273 249.459L275 249.459ZM516.111 162V164C526.052 164 534.111 172.059 534.111 182H536.111H538.111C538.111 169.85 528.262 160 516.111 160V162ZM536.111 182H534.111V243.295H536.111H538.111V182H536.111ZM536.111 243.295L534.543 244.536C534.915 245.006 535.305 245.492 535.718 245.989L537.257 244.711L538.795 243.433C538.408 242.967 538.038 242.507 537.68 242.054L536.111 243.295ZM537.257 244.711L535.718 245.989C543.552 255.421 554.561 258.847 558.313 260.024L558.911 258.115L559.51 256.207C555.789 255.04 545.816 251.886 538.795 243.433L537.257 244.711ZM558.911 258.115L558.304 260.021L558.393 260.049L559 258.144L559.607 256.238L559.518 256.21L558.911 258.115ZM559 258.144L558.843 256.15C547.426 257.049 540.696 255.643 535.765 253.886L535.094 255.77L534.422 257.653C539.931 259.617 547.23 261.077 559.157 260.137L559 258.144ZM535.094 255.77L533.196 255.139C530.817 262.299 524.064 267.459 516.111 267.459V269.459V271.459C525.839 271.459 534.086 265.146 536.992 256.4L535.094 255.77ZM516.111 269.459V267.459H295V269.459V271.459H516.111V269.459ZM295 269.459L295 267.459C285.059 267.459 277 259.4 277 249.459L275 249.459L273 249.459C273 261.609 282.85 271.459 295 271.459L295 269.459ZM275 249.459H277V182H275H273V249.459H275ZM275 182H277C277 172.059 285.059 164 295 164V162V160C282.85 160 273 169.85 273 182H275ZM295 162V164H516.111V162V160H295V162Z" fill="black"/>
<defs>
<clipPath id="clip0_4_5199">
<rect width="499" height="348" fill="white" transform="matrix(-1 0 0 1 499 246)"/>
</clipPath>
<clipPath id="clip1_4_5199">
<rect width="477" height="387" fill="white" transform="matrix(-1 0 0 1 840 375)"/>
</clipPath>
</defs>
</svg>
