<?xml version="1.0" encoding="UTF-8"?>
<svg xmlns="http://www.w3.org/2000/svg" viewBox="0 0 1915.9 1083.46">
  <defs>
    <style>
      .cls-1 {
        fill: #fff;
      }

      .cls-2 {
        stroke: #000;
        stroke-miterlimit: 10;
        stroke-width: 2px;
      }

      .cls-3 {
        font-family: Impact, Impact;
        font-size: 91px;
        letter-spacing: .05em;
      }
    </style>
  </defs>
  <g id="Layer_1">
    <g>
      <path d="M485.67,653.51c25.28,0,50.56,0,75.84,0,14.67,0,27.51-11.34,29.32-25.91.21-1.7.3-3.43.3-5.15.02-33.7.02-67.41.02-101.11,0-4.25,2.36-6.91,6.17-7.01,3.81-.1,6.48,2.63,6.49,6.67,0,25.53,0,51.07,0,76.6,0,8.68,0,17.36,0,26.04,0,21.69-16.34,40-37.84,42.38-1.96.22-3.94.31-5.92.31-49.66.02-99.33.01-148.99.02-21.52,0-39.07-14.24-42.98-34.99-.5-2.68-.76-5.45-.77-8.17-.05-50.17-.12-100.35,0-150.52.05-24.78,20.05-42.92,42.84-42.86,34.15.09,68.3.02,102.45.03,4.02,0,6.67,2.49,6.73,6.26.05,3.47-2.55,6.24-6.03,6.41-.45.02-.89,0-1.34,0-33.96,0-67.92,0-101.88,0-16.52,0-29.95,13.44-29.95,29.97,0,50.62,0,101.24,0,151.86,0,15.63,13.65,29.18,29.31,29.18,25.41,0,50.81,0,76.22,0Z"/>
      <path d="M487.67,573.57c-6.77,0-13.53,0-20.3,0-4.93,0-7.29-2.36-7.29-7.27,0-13.6.02-27.19-.04-40.79,0-2.53.84-4.5,2.63-6.29,34.33-34.27,68.63-68.58,102.94-102.88,3.07-3.07,5.98-6.34,9.32-9.07,11.05-9.03,23.56-11.2,36.8-6.1,13.54,5.21,21.29,15.55,23,29.95,1.37,11.56-2.25,21.71-10.51,29.98-36.58,36.63-73.21,73.21-109.79,109.84-1.85,1.86-3.87,2.69-6.47,2.66-6.77-.08-13.53-.03-20.3-.03ZM565.27,434.73c-.4.37-.91.83-1.4,1.31-29.95,29.95-59.89,59.91-89.87,89.84-.95.95-1.3,1.88-1.29,3.19.04,9.89.02,19.78.03,29.67,0,.67.06,1.35.09,1.99.4.08.58.14.77.14,10.59,0,21.19.03,31.78-.03.71,0,1.56-.5,2.09-1.02,5.18-5.1,10.32-10.25,15.46-15.39,22.28-22.28,44.55-44.58,66.85-66.84,3.1-3.09,6.31-6.08,9.33-8.98-11.49-11.5-22.61-22.62-33.85-33.87ZM608.16,458.7c2.74-2.63,5.72-5.16,8.31-8.04,7.16-7.96,7.76-20.2,1.6-29.09-6.14-8.87-17.57-12.45-27.64-8.84-6.77,2.42-10.92,7.95-15.77,12.53,11.25,11.23,22.39,22.36,33.49,33.44Z"/>
    </g>
    <g>
      <path d="M244.74,0c14.63,3.14,29.26,6.31,43.9,9.39,8.22,1.73,16.47,3.33,25.12,5.07,0,3.28,0,6.12,0,8.96,0,58.54.05,117.08-.09,175.61-.01,5.56.9,8.16,7.22,10.18,5.99,1.91,10.6,8.09,15.85,12.35,2.45,2,4.72,5.09,7.49,5.67,16.7,3.53,27.34,15.84,27.42,33.66.03,6.69,1.4,9.19,8.84,10.95,22.16,5.23,44.4,10.82,63.51,24.43,18.45,13.14,15.66,32.48-1.45,43.58-20.11,13.05-42.48,19.32-65.36,23.87-21.1,4.2-42.55,6.74-63.9,9.62-37.48,5.07-75.25,6.03-112.91,4.46-45.26-1.89-90.59-5.31-134.53-17.28-16.4-4.47-32.51-11.08-47.53-19.01-7.52-3.97-12.31-13.11-18.33-19.91,0-2.61,0-5.23,0-7.84,8.7-19.19,26.59-26.07,44.42-32.82,7.34-2.79,15.04-4.63,22.89-7-.39-14.67,4.74-26.87,18.16-33.31,10.96-5.26,20.41-.49,27.97,8.5,6.18-5.31,12.84-7.88,21.04-6.17,5.64,1.17,9.83-3.79,9.83-10.9.02-39.19.01-78.37.01-117.56,0-4.94,0-9.87,0-15.13,27.83-7.06,55.27-14.07,82.75-20.95,4.38-1.1,5.24-3.68,5.2-7.88-.2-23.51-.1-47.02-.1-70.54,4.18,0,8.37,0,12.55,0ZM89.43,303.61c-8.34-2.73-14.74-6.72-18.23-14.8-.89-2.07-5-4.78-6.54-4.21-14.66,5.35-29.76,10.09-43.4,17.47-15.99,8.67-16.22,19.94-1,29.47,10.93,6.84,22.92,13.18,35.3,16.28,24.55,6.15,49.57,10.96,74.65,14.34,25.33,3.42,50.97,4.79,76.51,6.38,13.02.81,26.17.64,39.2-.11,4.94-.28,10.11-2.8,14.44-5.48,3.86-2.39,6.8-6.33,10-9.73,13.98-14.85,14.03-33.37.73-48.5-11.45-13.03-26.07-21.32-40.8-29.89-12.27-7.14-24.97-9.19-38.65-8.14-5.3.41-9.22,1.01-10.38,8.09-2.01,12.22-8.76,21.69-21.58,26.01v17.17h-9.36v-10.9c-5.32,2.84-10.18,5.43-15.62,8.33v19.69c-6.93,1.9-10.13-.31-9.16-7.13,1.21-8.55.03-15.51-9.69-18.4-1.95-.58-3.2-3.18-5.1-4.29-2.29-1.34-5.8-3.58-7.22-2.76-2.25,1.32-3.98,4.7-4.51,7.48-.74,3.89-.19,8.03-.19,12.4-3.99-.34-6.58-.57-9.4-.81v-17.97ZM291.17,366.27c10.47-.79,20.86-.77,30.95-2.5,24.73-4.22,49.55-8.34,73.91-14.27,17.33-4.22,34.77-9.68,47.63-23.62,5.04-5.46,4.92-13.69-.66-18.5-2.7-2.33-5.74-4.31-8.77-6.22-18.75-11.76-40.1-16.29-61.11-21.68-1.65-.42-5.06,1.03-5.72,2.48-4.11,9.13-11.5,14.08-20.98,17.13v20.41h-9.11v-18.84c-7.04-5.07-12.86-9.26-18.38-13.23q-1.42,13.81-9.7,12.8c-.06-1.22-.27-2.51-.15-3.77.97-10.09-.61-17.02-11.45-23.12-8.43-4.74-15.41-4.6-24.7-4.99,50.62,35.25,44.4,68.92,18.24,97.89ZM285.7,258.52c-.43-2.35-.68-4.28-1.14-6.15-3.39-13.95,2.95-33.52,14.32-39.92,4.88-2.75,5.54-5.59,5.53-10.22-.09-56.14-.06-112.29-.06-168.43,0-11.56.07-11.87-11.19-14.28-16.9-3.61-33.91-6.74-51.09-10.11v116.38h31.27v132.74h12.35ZM263.05,256.94v-121.39h-69.66v121.39h69.66ZM152.38,107.12c.76,2.21,1.2,2.9,1.2,3.6.05,39.42.19,78.83-.12,118.25-.03,3.97-.66,5.82,4.27,6.59,8.19,1.27,14.65,5.78,18.54,13.49,1.69,3.36,3.72,6.56,5.59,9.83.6-.17,1.21-.35,1.81-.52V125.1h48.22v-38.73c-26.49,6.91-52.59,13.72-79.51,20.75ZM151.4,280.17c-1.18-6.13-1.61-10.5-2.9-14.6-2.11-6.68-11.69-14.77-17.43-14.39-7.73.51-13.08,4.94-16.85,11.72-6.02,10.83-5.67,21.49.34,32.02,7.73,13.53,22.61,14.37,30.55,1.38,3.2-5.24,4.58-11.59,6.29-16.14ZM364.19,264.65c-.43-.31-.86-.62-1.29-.92-.75-4.27-.81-8.82-2.39-12.76-2.77-6.95-6.62-13.08-15.33-14.23-8.49-1.12-14.08,2.42-18.28,9.35-6.53,10.78-6.72,21.63-.68,32.63,7.07,12.87,18.64,15.59,28.51,5.27,4.72-4.94,6.4-12.8,9.46-19.33ZM270.67,366.3c.37.63.74,1.25,1.11,1.88,2.93-1.58,6.36-2.65,8.7-4.86,4.28-4.05,8.55-8.36,11.7-13.29,10.31-16.11,14.2-32.8,1.24-50.07-7.84-10.45-17.81-18.28-29.03-25.06-13.11-7.91-15.74-9.34-26.36-7.48,10.68,7.55,22.59,14.74,33.06,23.65,18,15.3,28.13,39.05,10.34,62.16-3.44,4.47-7.16,8.72-10.75,13.07ZM330.54,229.72c-6.82-12.76-17.13-16.93-26.65-9.94-9.75,7.16-11.87,17.94-10.27,29.06,1.49,10.36,6.13,19.83,19.78,22.09-2.3-16.75,2.25-30.73,17.14-41.21ZM75.35,270.92c1.53,11.34,6.05,19.58,13.76,22.95,7.45,3.26,14.17.06,12.64-6.57-2.35-10.23-.03-19.25,3.89-28.44.71-1.66-.33-5.11-1.77-6.45-6.49-6.11-16.46-5.44-21.43,1.99-3.28,4.9-4.79,10.97-7.09,16.52ZM146.85,247.42c11.37,12.55,15.56,26.37,11.86,42.35,11.77-3.33,16.79-16.64,12.27-31.68-3.34-11.11-11.43-14.96-24.13-10.67Z"/>
      <path class="cls-1" d="M89.43,303.61v17.97c2.82.24,5.42.47,9.4.81,0-4.37-.56-8.51.19-12.4.53-2.78,2.26-6.17,4.51-7.48,1.42-.83,4.93,1.41,7.22,2.76,1.9,1.11,3.15,3.72,5.1,4.29,9.72,2.88,10.9,9.85,9.69,18.4-.96,6.81,2.24,9.03,9.16,7.13v-19.69c5.44-2.9,10.3-5.5,15.62-8.33v10.9h9.36v-17.17c12.82-4.32,19.57-13.79,21.58-26.01,1.16-7.08,5.08-7.68,10.38-8.09,13.69-1.05,26.38,1,38.65,8.14,14.73,8.57,29.35,16.87,40.8,29.89,13.3,15.13,13.25,33.64-.73,48.5-3.2,3.4-6.13,7.34-10,9.73-4.33,2.68-9.5,5.2-14.44,5.48-13.03.75-26.17.92-39.2.11-25.54-1.59-51.18-2.96-76.51-6.38-25.09-3.39-50.1-8.2-74.65-14.34-12.38-3.1-24.37-9.44-35.3-16.28-15.22-9.52-14.99-20.8,1-29.47,13.63-7.39,28.74-12.13,43.4-17.47,1.54-.56,5.65,2.15,6.54,4.21,3.49,8.08,9.9,12.07,18.23,14.8ZM199.38,360.46c18.57-.82,36.76-2.13,53.98-9.32,8-3.34,16.41-8.21,15.95-17.57-.49-9.75-8.81-14.98-17.76-18.25-19.12-6.99-38.86-7.78-58.53-4.25-7.07,1.27-13.54,6.23-20.12,9.82-2.94,1.6-5.36,4.13-8.21,5.95-3.22,2.06-6.95,3.42-9.93,5.76-5.58,4.37-5.81,12.96-.34,16.79,3.93,2.75,8.33,5.58,12.9,6.51,10.56,2.13,21.35,3.12,32.05,4.58Z"/>
      <path class="cls-1" d="M291.17,366.27c26.16-28.97,32.38-62.65-18.24-97.89,9.3.39,16.27.25,24.7,4.99,10.84,6.1,12.42,13.03,11.45,23.12-.12,1.26.09,2.55.15,3.77q8.28,1.01,9.7-12.8c5.51,3.97,11.34,8.16,18.38,13.23v18.84h9.11v-20.41c9.49-3.05,16.87-8,20.98-17.13.65-1.45,4.06-2.9,5.72-2.48,21.01,5.39,42.36,9.92,61.11,21.68,3.03,1.9,6.07,3.88,8.77,6.22,5.57,4.81,5.69,13.04.66,18.5-12.86,13.94-30.3,19.4-47.63,23.62-24.36,5.93-49.17,10.04-73.91,14.27-10.1,1.72-20.49,1.71-30.95,2.5Z"/>
      <path class="cls-1" d="M285.7,258.52h-12.35V125.78h-31.27V9.4c17.18,3.38,34.19,6.5,51.09,10.11,11.25,2.41,11.19,2.72,11.19,14.28,0,56.14-.03,112.29.06,168.43,0,4.64-.65,7.48-5.53,10.22-11.37,6.4-17.71,25.97-14.32,39.92.46,1.87.71,3.8,1.14,6.15ZM250.08,37.82h44.17c1.84-6.72.62-10.12-7.11-9.71-9.85.53-19.76.41-29.62.03-6.55-.25-9.42,1.9-7.44,9.68ZM247.74,47.42c2.34,4.06,3.67,8.59,5.18,8.65,13.91.55,27.85.32,41.63.32v-8.98h-46.82ZM250.57,102.33c-.78.53-1.56,1.06-2.34,1.6,1.75,2.47,3.4,6.99,5.26,7.07,13.71.61,27.46.33,41.08.33v-9h-43.99ZM294.67,83.16c-13.91,0-26.96-.16-39.99.19-1.77.05-3.47,2.69-5.2,4.14,1.49,1.68,2.94,4.78,4.48,4.83,13.5.38,27.01.22,40.71.22v-9.38ZM294.58,65.43h-43.21c-.15,2.73-.29,5.42-.46,8.52h44.37c-.27-3.29-.46-5.58-.71-8.52ZM294.68,116.86c-4.94.95-9.09,1.52-13.02,2.78-.47.15-.22,5.66.5,5.87,3.91,1.12,8.08,1.36,12.53,1.95v-10.6ZM281.62,181.76c14.48-.13,15.17-.82,11.82-9.39-3.6-.22-7.67-1.62-10.21-.23-1.66.91-1.1,5.88-1.61,9.61ZM280.85,198.44h14.14c-.15-3.03-.29-5.72-.42-8.33h-11.83c-.6,2.64-1.15,5.03-1.9,8.33ZM294.33,162.41v-8.32h-11.5c-.47,2.74-.87,5.14-1.41,8.32h12.91ZM280.03,144.97c6.32-.45,10.53-.76,14.63-1.05v-7.92c-3.83-.34-7.82-1.81-10.58-.56-2.02.91-2.43,5.39-4.05,9.53Z"/>
      <path class="cls-1" d="M263.05,256.94h-69.66v-121.39h69.66v121.39ZM243.55,235.68v8.63h14.79v-8.63h-14.79ZM259.62,225.59c-1.11-3.31-1.4-7.65-2.99-8.2-3.41-1.17-7.76-1.19-11.17-.04-1.6.54-1.94,4.86-3.12,8.25h17.28ZM258.3,162.03h-14.6c-1.78,6.79.43,9.21,7.18,9.14,6.47-.06,9.31-1.94,7.42-9.14ZM241.86,180.68c1.65,3.73,2.27,7.95,4.02,8.49,3.42,1.06,7.77.83,11.14-.44,1.46-.55,1.47-4.99,2.23-8.05h-17.39ZM259.78,151.85c-1.26-3.47-1.65-7.79-3.28-8.34-3.45-1.14-7.82-1.1-11.26.08-1.55.53-1.75,4.96-2.76,8.25h17.3ZM243.82,207.61c4.18,0,7.88.22,11.54-.06,4.23-.32,4.54-2.05,1.91-8.94q-14.13,2.18-13.44,9ZM221.53,244.6h14.05v-8.74h-14.05v8.74ZM236.14,162.25h-14.41v8.31h13.42c.34-2.82.62-5.21.99-8.31ZM213.15,235.77h-13.38v8.65h14.16c-.26-2.85-.49-5.4-.78-8.65ZM236.14,143.43h-14.41v8.32h13.28c.38-2.83.71-5.22,1.13-8.32ZM213.08,143.12h-13.41v8.57h13.41v-8.57ZM235.58,189.38c-.23-3.17-.43-5.84-.62-8.44h-13.84c.19,3.05.35,5.56.54,8.44h13.93ZM235.42,198.4c-2.62.19-4.82.57-7,.47-8.02-.36-8.59.45-5.71,8.84h12.72v-9.31ZM199.52,189.2h13.42v-8.31h-13.42v8.31ZM199.63,225.49h13.24v-8.36h-13.24v8.36ZM212.98,162.03h-13.22v8.4h13.22v-8.4ZM221.66,225.91c2.6,0,4.63.05,6.65-.01,2.23-.07,4.45-.26,7.12-.43-.17-3.26-.31-5.94-.45-8.52-13.68-1.07-13.87-.95-13.32,8.96ZM199.92,199.1v7.86h13.11v-8.54c-4.08.21-7.93.42-13.11.69Z"/>
      <path class="cls-1" d="M152.38,107.12c26.92-7.03,53.03-13.84,79.51-20.75v38.73h-48.22v133.25c-.6.17-1.21.35-1.81.52-1.87-3.27-3.9-6.47-5.59-9.83-3.89-7.71-10.34-12.22-18.54-13.49-4.93-.77-4.3-2.62-4.27-6.59.3-39.41.17-78.83.12-118.25,0-.69-.44-1.38-1.2-3.6ZM223.79,110.37h-61.83v8.86c18.5,0,36.65-.23,54.79.11,7.01.13,8.77-2.64,7.03-8.97ZM173.63,231.81v-8.38h-12.49v9.66c4.45-.46,8.21-.84,12.49-1.28ZM173.86,129h-12.7v8.62h12.7v-8.62ZM173.56,194.31v-8.87h-11.56c-.33,3.13-.63,5.95-.93,8.87h12.49ZM161.93,166.63c-.31,2.84-.59,5.45-.93,8.59h12.75v-8.59h-11.82ZM160.68,147.97c.63,3.71,1.05,6.23,1.4,8.3h11.69v-8.3h-13.09ZM173.77,204.38h-11.7v8.42h11.7v-8.42Z"/>
      <path class="cls-1" d="M151.4,280.17c-1.71,4.54-3.09,10.9-6.29,16.14-7.94,12.99-22.82,12.15-30.55-1.38-6.01-10.53-6.36-21.19-.34-32.02,3.77-6.78,9.12-11.21,16.85-11.72,5.74-.38,15.32,7.71,17.43,14.39,1.3,4.1,1.72,8.48,2.9,14.6Z"/>
      <path class="cls-1" d="M364.19,264.65c-3.06,6.54-4.74,14.39-9.46,19.33-9.87,10.32-21.44,7.6-28.51-5.27-6.04-11-5.84-21.85.68-32.63,4.2-6.93,9.79-10.47,18.28-9.35,8.71,1.15,12.56,7.28,15.33,14.23,1.57,3.94,1.64,8.49,2.39,12.76.43.31.86.62,1.29.92Z"/>
      <path class="cls-1" d="M270.67,366.3c3.59-4.35,7.31-8.6,10.75-13.07,17.79-23.11,7.66-46.86-10.34-62.16-10.47-8.9-22.39-16.1-33.06-23.65,10.63-1.87,13.25-.44,26.36,7.48,11.23,6.78,21.19,14.6,29.03,25.06,12.96,17.27,9.06,33.96-1.24,50.07-3.15,4.92-7.42,9.24-11.7,13.29-2.34,2.21-5.76,3.28-8.7,4.86-.37-.63-.74-1.25-1.11-1.88Z"/>
      <path class="cls-1" d="M330.54,229.72c-14.89,10.48-19.44,24.46-17.14,41.21-13.65-2.26-18.29-11.73-19.78-22.09-1.6-11.11.52-21.9,10.27-29.06,9.52-6.99,19.83-2.82,26.65,9.94Z"/>
      <path class="cls-1" d="M75.35,270.92c2.3-5.55,3.82-11.63,7.09-16.52,4.97-7.43,14.94-8.1,21.43-1.99,1.43,1.35,2.47,4.8,1.77,6.45-3.92,9.19-6.24,18.21-3.89,28.44,1.53,6.64-5.18,9.83-12.64,6.57-7.72-3.37-12.24-11.61-13.76-22.95Z"/>
      <path class="cls-1" d="M146.85,247.42c12.7-4.28,20.79-.44,24.13,10.67,4.52,15.04-.5,28.35-12.27,31.68,3.7-15.98-.49-29.81-11.86-42.35Z"/>
      <path d="M199.38,360.46c-10.7-1.45-21.49-2.45-32.05-4.58-4.57-.92-8.97-3.76-12.9-6.51-5.47-3.83-5.24-12.42.34-16.79,2.98-2.34,6.71-3.69,9.93-5.76,2.84-1.82,5.27-4.35,8.21-5.95,6.57-3.59,13.04-8.55,20.12-9.82,19.68-3.53,39.42-2.74,58.53,4.25,8.95,3.27,17.27,8.51,17.76,18.25.47,9.36-7.95,14.23-15.95,17.57-17.23,7.19-35.41,8.5-53.98,9.32ZM181.9,323.66c3.7,7.59-1.67,8.82-6.63,10.46-5.17,1.71-10.28,3.59-15.41,5.39.03.82.07,1.64.1,2.46,2.81,1.57,5.45,3.67,8.46,4.62,17.74,5.59,36.03,3.9,53.99,2.36,10.44-.9,20.69-5.07,30.78-8.49,2.72-.92,6.11-4.35,6.3-6.85.16-2.14-3.37-5.5-6.02-6.77-23.25-11.2-47.11-10.57-71.57-3.18Z"/>
      <path d="M250.08,37.82c-1.97-7.78.89-9.94,7.44-9.68,9.86.38,19.77.5,29.62-.03,7.73-.41,8.95,2.99,7.11,9.71h-44.17Z"/>
      <path d="M247.74,47.42h46.82v8.98c-13.78,0-27.72.23-41.63-.32-1.51-.06-2.85-4.59-5.18-8.65Z"/>
      <path d="M250.57,102.33h43.99v9c-13.61,0-27.36.28-41.08-.33-1.85-.08-3.51-4.61-5.26-7.07.78-.53,1.56-1.06,2.34-1.6Z"/>
      <path d="M294.67,83.16v9.38c-13.7,0-27.21.16-40.71-.22-1.54-.04-2.99-3.14-4.48-4.83,1.73-1.44,3.43-4.09,5.2-4.14,13.03-.36,26.07-.19,39.99-.19Z"/>
      <path d="M294.58,65.43c.24,2.94.43,5.23.71,8.52h-44.37c.17-3.1.31-5.79.46-8.52h43.21Z"/>
      <path d="M294.68,116.86v10.6c-4.44-.59-8.61-.83-12.53-1.95-.72-.21-.96-5.72-.5-5.87,3.93-1.26,8.08-1.83,13.02-2.78Z"/>
      <path d="M281.62,181.76c.51-3.74-.05-8.7,1.61-9.61,2.54-1.4,6.61,0,10.21.23,3.35,8.56,2.66,9.25-11.82,9.39Z"/>
      <path d="M280.85,198.44c.75-3.3,1.3-5.69,1.9-8.33h11.83c.13,2.61.26,5.3.42,8.33h-14.14Z"/>
      <path d="M294.33,162.41h-12.91c.54-3.18.95-5.58,1.41-8.32h11.5v8.32Z"/>
      <path d="M280.03,144.97c1.62-4.14,2.03-8.62,4.05-9.53,2.76-1.24,6.75.22,10.58.56v7.92c-4.1.29-8.31.6-14.63,1.05Z"/>
      <path d="M243.55,235.68h14.79v8.63h-14.79v-8.63Z"/>
      <path d="M259.62,225.59h-17.28c1.18-3.38,1.51-7.71,3.12-8.25,3.42-1.15,7.77-1.13,11.17.04,1.59.55,1.88,4.89,2.99,8.2Z"/>
      <path d="M258.3,162.03c1.89,7.2-.95,9.09-7.42,9.14-6.76.06-8.96-2.36-7.18-9.14h14.6Z"/>
      <path d="M241.86,180.68h17.39c-.76,3.06-.76,7.5-2.23,8.05-3.37,1.27-7.72,1.5-11.14.44-1.75-.54-2.37-4.75-4.02-8.49Z"/>
      <path d="M259.78,151.85h-17.3c1.01-3.3,1.22-7.72,2.76-8.25,3.43-1.18,7.81-1.22,11.26-.08,1.64.54,2.02,4.86,3.28,8.34Z"/>
      <path d="M243.82,207.61q-.69-6.82,13.44-9c2.63,6.89,2.32,8.62-1.91,8.94-3.66.28-7.36.06-11.54.06Z"/>
      <path d="M221.53,244.6v-8.74h14.05v8.74h-14.05Z"/>
      <path d="M236.14,162.25c-.37,3.09-.65,5.49-.99,8.31h-13.42v-8.31h14.41Z"/>
      <path d="M213.15,235.77c.29,3.25.52,5.81.78,8.65h-14.16v-8.65h13.38Z"/>
      <path d="M236.14,143.43c-.42,3.09-.74,5.49-1.13,8.32h-13.28v-8.32h14.41Z"/>
      <path d="M213.08,143.12v8.57h-13.41v-8.57h13.41Z"/>
      <path d="M235.58,189.38h-13.93c-.18-2.88-.34-5.38-.54-8.44h13.84c.19,2.6.39,5.27.62,8.44Z"/>
      <path d="M235.42,198.4v9.31h-12.72c-2.87-8.39-2.31-9.2,5.71-8.84,2.18.1,4.38-.28,7-.47Z"/>
      <path d="M199.52,189.2v-8.31h13.42v8.31h-13.42Z"/>
      <path d="M199.63,225.49v-8.36h13.24v8.36h-13.24Z"/>
      <path d="M212.98,162.03v8.4h-13.22v-8.4h13.22Z"/>
      <path d="M221.66,225.91c-.55-9.91-.37-10.03,13.32-8.96.14,2.58.28,5.26.45,8.52-2.67.17-4.89.35-7.12.43-2.02.07-4.05.01-6.65.01Z"/>
      <path d="M199.92,199.1c5.18-.27,9.04-.47,13.11-.69v8.54h-13.11v-7.86Z"/>
      <path d="M223.79,110.37c1.73,6.33-.02,9.1-7.03,8.97-18.14-.34-36.29-.11-54.79-.11v-8.86h61.83Z"/>
      <path d="M173.63,231.81c-4.27.44-8.04.82-12.49,1.28v-9.66h12.49v8.38Z"/>
      <path d="M173.86,129v8.62h-12.7v-8.62h12.7Z"/>
      <path d="M173.56,194.31h-12.49c.31-2.92.6-5.74.93-8.87h11.56v8.87Z"/>
      <path d="M161.93,166.63h11.82v8.59h-12.75c.34-3.14.62-5.74.93-8.59Z"/>
      <path d="M160.68,147.97h13.09v8.3h-11.69c-.35-2.08-.77-4.59-1.4-8.3Z"/>
      <path d="M173.77,204.38v8.42h-11.7v-8.42h11.7Z"/>
      <path class="cls-1" d="M181.9,323.66c24.47-7.39,48.33-8.02,71.57,3.18,2.64,1.27,6.18,4.63,6.02,6.77-.19,2.5-3.59,5.93-6.3,6.85-10.09,3.42-20.33,7.59-30.78,8.49-17.96,1.55-36.25,3.23-53.99-2.36-3.01-.95-5.65-3.05-8.46-4.62-.03-.82-.07-1.64-.1-2.46,5.13-1.8,10.25-3.68,15.41-5.39,4.96-1.64,10.33-2.87,6.63-10.46Z"/>
    </g>
    <g>
      <path d="M1520.74,0c14.63,3.14,29.26,6.31,43.9,9.39,8.22,1.73,16.47,3.33,25.12,5.07,0,3.28,0,6.12,0,8.96,0,58.54.05,117.08-.09,175.61-.01,5.56.9,8.16,7.22,10.18,5.99,1.91,10.6,8.09,15.85,12.35,2.45,2,4.72,5.09,7.49,5.67,16.7,3.53,27.34,15.84,27.42,33.66.03,6.69,1.4,9.19,8.84,10.95,22.16,5.23,44.4,10.82,63.51,24.43,18.45,13.14,15.66,32.48-1.45,43.58-20.11,13.05-42.48,19.32-65.36,23.87-21.1,4.2-42.55,6.74-63.9,9.62-37.48,5.07-75.25,6.03-112.91,4.46-45.26-1.89-90.59-5.31-134.53-17.28-16.4-4.47-32.51-11.08-47.53-19.01-7.52-3.97-12.31-13.11-18.33-19.91,0-2.61,0-5.23,0-7.84,8.7-19.19,26.59-26.07,44.42-32.82,7.34-2.79,15.04-4.63,22.89-7-.39-14.67,4.74-26.87,18.16-33.31,10.96-5.26,20.41-.49,27.97,8.5,6.18-5.31,12.84-7.88,21.04-6.17,5.64,1.17,9.83-3.79,9.83-10.9.02-39.19.01-78.37.01-117.56,0-4.94,0-9.87,0-15.13,27.83-7.06,55.27-14.07,82.75-20.95,4.38-1.1,5.24-3.68,5.2-7.88-.2-23.51-.1-47.02-.1-70.54,4.18,0,8.37,0,12.55,0ZM1365.43,303.61c-8.34-2.73-14.74-6.72-18.23-14.8-.89-2.07-5-4.78-6.54-4.21-14.66,5.35-29.76,10.09-43.4,17.47-15.99,8.67-16.22,19.94-1,29.47,10.93,6.84,22.92,13.18,35.3,16.28,24.55,6.15,49.57,10.96,74.65,14.34,25.33,3.42,50.97,4.79,76.51,6.38,13.02.81,26.17.64,39.2-.11,4.94-.28,10.11-2.8,14.44-5.48,3.86-2.39,6.8-6.33,10-9.73,13.98-14.85,14.03-33.37.73-48.5-11.45-13.03-26.07-21.32-40.8-29.89-12.27-7.14-24.97-9.19-38.65-8.14-5.3.41-9.22,1.01-10.38,8.09-2.01,12.22-8.76,21.69-21.58,26.01v17.17h-9.36v-10.9c-5.32,2.84-10.18,5.43-15.62,8.33v19.69c-6.93,1.9-10.13-.31-9.16-7.13,1.21-8.55.03-15.51-9.69-18.4-1.95-.58-3.2-3.18-5.1-4.29-2.29-1.34-5.8-3.58-7.22-2.76-2.25,1.32-3.98,4.7-4.51,7.48-.74,3.89-.19,8.03-.19,12.4-3.99-.34-6.58-.57-9.4-.81v-17.97ZM1567.17,366.27c10.47-.79,20.86-.77,30.95-2.5,24.73-4.22,49.55-8.34,73.91-14.27,17.33-4.22,34.77-9.68,47.63-23.62,5.04-5.46,4.92-13.69-.66-18.5-2.7-2.33-5.74-4.31-8.77-6.22-18.75-11.76-40.1-16.29-61.11-21.68-1.65-.42-5.06,1.03-5.72,2.48-4.11,9.13-11.5,14.08-20.98,17.13v20.41h-9.11v-18.84c-7.04-5.07-12.86-9.26-18.38-13.23q-1.42,13.81-9.7,12.8c-.06-1.22-.27-2.51-.15-3.77.97-10.09-.61-17.02-11.45-23.12-8.43-4.74-15.41-4.6-24.7-4.99,50.62,35.25,44.4,68.92,18.24,97.89ZM1561.7,258.52c-.43-2.35-.68-4.28-1.14-6.15-3.39-13.95,2.95-33.52,14.32-39.92,4.88-2.75,5.54-5.59,5.53-10.22-.09-56.14-.06-112.29-.06-168.43,0-11.56.07-11.87-11.19-14.28-16.9-3.61-33.91-6.74-51.09-10.11v116.38h31.27v132.74h12.35ZM1539.05,256.94v-121.39h-69.66v121.39h69.66ZM1428.38,107.12c.76,2.21,1.2,2.9,1.2,3.6.05,39.42.19,78.83-.12,118.25-.03,3.97-.66,5.82,4.27,6.59,8.19,1.27,14.65,5.78,18.54,13.49,1.69,3.36,3.72,6.56,5.59,9.83.6-.17,1.21-.35,1.81-.52V125.1h48.22v-38.73c-26.49,6.91-52.59,13.72-79.51,20.75ZM1427.4,280.17c-1.18-6.13-1.61-10.5-2.9-14.6-2.11-6.68-11.69-14.77-17.43-14.39-7.73.51-13.08,4.94-16.85,11.72-6.02,10.83-5.67,21.49.34,32.02,7.73,13.53,22.61,14.37,30.55,1.38,3.2-5.24,4.58-11.59,6.29-16.14ZM1640.19,264.65c-.43-.31-.86-.62-1.29-.92-.75-4.27-.81-8.82-2.39-12.76-2.77-6.95-6.62-13.08-15.33-14.23-8.49-1.12-14.08,2.42-18.28,9.35-6.53,10.78-6.72,21.63-.68,32.63,7.07,12.87,18.64,15.59,28.51,5.27,4.72-4.94,6.4-12.8,9.46-19.33ZM1546.67,366.3c.37.63.74,1.25,1.11,1.88,2.93-1.58,6.36-2.65,8.7-4.86,4.28-4.05,8.55-8.36,11.7-13.29,10.31-16.11,14.2-32.8,1.24-50.07-7.84-10.45-17.81-18.28-29.03-25.06-13.11-7.91-15.74-9.34-26.36-7.48,10.68,7.55,22.59,14.74,33.06,23.65,18,15.3,28.13,39.05,10.34,62.16-3.44,4.47-7.16,8.72-10.75,13.07ZM1606.54,229.72c-6.82-12.76-17.13-16.93-26.65-9.94-9.75,7.16-11.87,17.94-10.27,29.06,1.49,10.36,6.13,19.83,19.78,22.09-2.3-16.75,2.25-30.73,17.14-41.21ZM1351.35,270.92c1.53,11.34,6.05,19.58,13.76,22.95,7.45,3.26,14.17.06,12.64-6.57-2.35-10.23-.03-19.25,3.89-28.44.71-1.66-.33-5.11-1.77-6.45-6.49-6.11-16.46-5.44-21.43,1.99-3.28,4.9-4.79,10.97-7.09,16.52ZM1422.85,247.42c11.37,12.55,15.56,26.37,11.86,42.35,11.77-3.33,16.79-16.64,12.27-31.68-3.34-11.11-11.43-14.96-24.13-10.67Z"/>
      <path class="cls-1" d="M1365.43,303.61v17.97c2.82.24,5.42.47,9.4.81,0-4.37-.56-8.51.19-12.4.53-2.78,2.26-6.17,4.51-7.48,1.42-.83,4.93,1.41,7.22,2.76,1.9,1.11,3.15,3.72,5.1,4.29,9.72,2.88,10.9,9.85,9.69,18.4-.96,6.81,2.24,9.03,9.16,7.13v-19.69c5.44-2.9,10.3-5.5,15.62-8.33v10.9h9.36v-17.17c12.82-4.32,19.57-13.79,21.58-26.01,1.16-7.08,5.08-7.68,10.38-8.09,13.69-1.05,26.38,1,38.65,8.14,14.73,8.57,29.35,16.87,40.8,29.89,13.3,15.13,13.25,33.64-.73,48.5-3.2,3.4-6.13,7.34-10,9.73-4.33,2.68-9.5,5.2-14.44,5.48-13.03.75-26.17.92-39.2.11-25.54-1.59-51.18-2.96-76.51-6.38-25.09-3.39-50.1-8.2-74.65-14.34-12.38-3.1-24.37-9.44-35.3-16.28-15.22-9.52-14.99-20.8,1-29.47,13.63-7.39,28.74-12.13,43.4-17.47,1.54-.56,5.65,2.15,6.54,4.21,3.49,8.08,9.9,12.07,18.23,14.8ZM1475.38,360.46c18.57-.82,36.76-2.13,53.98-9.32,8-3.34,16.41-8.21,15.95-17.57-.49-9.75-8.81-14.98-17.76-18.25-19.12-6.99-38.86-7.78-58.53-4.25-7.07,1.27-13.54,6.23-20.12,9.82-2.94,1.6-5.36,4.13-8.21,5.95-3.22,2.06-6.95,3.42-9.93,5.76-5.58,4.37-5.81,12.96-.34,16.79,3.93,2.75,8.33,5.58,12.9,6.51,10.56,2.13,21.35,3.12,32.05,4.58Z"/>
      <path class="cls-1" d="M1567.17,366.27c26.16-28.97,32.38-62.65-18.24-97.89,9.3.39,16.27.25,24.7,4.99,10.84,6.1,12.42,13.03,11.45,23.12-.12,1.26.09,2.55.15,3.77q8.28,1.01,9.7-12.8c5.51,3.97,11.34,8.16,18.38,13.23v18.84h9.11v-20.41c9.49-3.05,16.87-8,20.98-17.13.65-1.45,4.06-2.9,5.72-2.48,21.01,5.39,42.36,9.92,61.11,21.68,3.03,1.9,6.07,3.88,8.77,6.22,5.57,4.81,5.69,13.04.66,18.5-12.86,13.94-30.3,19.4-47.63,23.62-24.36,5.93-49.17,10.04-73.91,14.27-10.1,1.72-20.49,1.71-30.95,2.5Z"/>
      <path class="cls-1" d="M1561.7,258.52h-12.35V125.78h-31.27V9.4c17.18,3.38,34.19,6.5,51.09,10.11,11.25,2.41,11.19,2.72,11.19,14.28,0,56.14-.03,112.29.06,168.43,0,4.64-.65,7.48-5.53,10.22-11.37,6.4-17.71,25.97-14.32,39.92.46,1.87.71,3.8,1.14,6.15ZM1526.08,37.82h44.17c1.84-6.72.62-10.12-7.11-9.71-9.85.53-19.76.41-29.62.03-6.55-.25-9.42,1.9-7.44,9.68ZM1523.74,47.42c2.34,4.06,3.67,8.59,5.18,8.65,13.91.55,27.85.32,41.63.32v-8.98h-46.82ZM1526.57,102.33c-.78.53-1.56,1.06-2.34,1.6,1.75,2.47,3.4,6.99,5.26,7.07,13.71.61,27.46.33,41.08.33v-9h-43.99ZM1570.67,83.16c-13.91,0-26.96-.16-39.99.19-1.77.05-3.47,2.69-5.2,4.14,1.49,1.68,2.94,4.78,4.48,4.83,13.5.38,27.01.22,40.71.22v-9.38ZM1570.58,65.43h-43.21c-.15,2.73-.29,5.42-.46,8.52h44.37c-.27-3.29-.46-5.58-.71-8.52ZM1570.68,116.86c-4.94.95-9.09,1.52-13.02,2.78-.47.15-.22,5.66.5,5.87,3.91,1.12,8.08,1.36,12.53,1.95v-10.6ZM1557.62,181.76c14.48-.13,15.17-.82,11.82-9.39-3.6-.22-7.67-1.62-10.21-.23-1.66.91-1.1,5.88-1.61,9.61ZM1556.85,198.44h14.14c-.15-3.03-.29-5.72-.42-8.33h-11.83c-.6,2.64-1.15,5.03-1.9,8.33ZM1570.33,162.41v-8.32h-11.5c-.47,2.74-.87,5.14-1.41,8.32h12.91ZM1556.03,144.97c6.32-.45,10.53-.76,14.63-1.05v-7.92c-3.83-.34-7.82-1.81-10.58-.56-2.02.91-2.43,5.39-4.05,9.53Z"/>
      <path class="cls-1" d="M1539.05,256.94h-69.66v-121.39h69.66v121.39ZM1519.55,235.68v8.63h14.79v-8.63h-14.79ZM1535.62,225.59c-1.11-3.31-1.4-7.65-2.99-8.2-3.41-1.17-7.76-1.19-11.17-.04-1.6.54-1.94,4.86-3.12,8.25h17.28ZM1534.3,162.03h-14.6c-1.78,6.79.43,9.21,7.18,9.14,6.47-.06,9.31-1.94,7.42-9.14ZM1517.86,180.68c1.65,3.73,2.27,7.95,4.02,8.49,3.42,1.06,7.77.83,11.14-.44,1.46-.55,1.47-4.99,2.23-8.05h-17.39ZM1535.78,151.85c-1.26-3.47-1.65-7.79-3.28-8.34-3.45-1.14-7.82-1.1-11.26.08-1.55.53-1.75,4.96-2.76,8.25h17.3ZM1519.82,207.61c4.18,0,7.88.22,11.54-.06,4.23-.32,4.54-2.05,1.91-8.94q-14.13,2.18-13.44,9ZM1497.53,244.6h14.05v-8.74h-14.05v8.74ZM1512.14,162.25h-14.41v8.31h13.42c.34-2.82.62-5.21.99-8.31ZM1489.15,235.77h-13.38v8.65h14.16c-.26-2.85-.49-5.4-.78-8.65ZM1512.14,143.43h-14.41v8.32h13.28c.38-2.83.71-5.22,1.13-8.32ZM1489.08,143.12h-13.41v8.57h13.41v-8.57ZM1511.58,189.38c-.23-3.17-.43-5.84-.62-8.44h-13.84c.19,3.05.35,5.56.54,8.44h13.93ZM1511.42,198.4c-2.62.19-4.82.57-7,.47-8.02-.36-8.59.45-5.71,8.84h12.72v-9.31ZM1475.52,189.2h13.42v-8.31h-13.42v8.31ZM1475.63,225.49h13.24v-8.36h-13.24v8.36ZM1488.98,162.03h-13.22v8.4h13.22v-8.4ZM1497.66,225.91c2.6,0,4.63.05,6.65-.01,2.23-.07,4.45-.26,7.12-.43-.17-3.26-.31-5.94-.45-8.52-13.68-1.07-13.87-.95-13.32,8.96ZM1475.92,199.1v7.86h13.11v-8.54c-4.08.21-7.93.42-13.11.69Z"/>
      <path class="cls-1" d="M1428.38,107.12c26.92-7.03,53.03-13.84,79.51-20.75v38.73h-48.22v133.25c-.6.17-1.21.35-1.81.52-1.87-3.27-3.9-6.47-5.59-9.83-3.89-7.71-10.34-12.22-18.54-13.49-4.93-.77-4.3-2.62-4.27-6.59.3-39.41.17-78.83.12-118.25,0-.69-.44-1.38-1.2-3.6ZM1499.79,110.37h-61.83v8.86c18.5,0,36.65-.23,54.79.11,7.01.13,8.77-2.64,7.03-8.97ZM1449.63,231.81v-8.38h-12.49v9.66c4.45-.46,8.21-.84,12.49-1.28ZM1449.86,129h-12.7v8.62h12.7v-8.62ZM1449.56,194.31v-8.87h-11.56c-.33,3.13-.63,5.95-.93,8.87h12.49ZM1437.93,166.63c-.31,2.84-.59,5.45-.93,8.59h12.75v-8.59h-11.82ZM1436.68,147.97c.63,3.71,1.05,6.23,1.4,8.3h11.69v-8.3h-13.09ZM1449.77,204.38h-11.7v8.42h11.7v-8.42Z"/>
      <path class="cls-1" d="M1427.4,280.17c-1.71,4.54-3.09,10.9-6.29,16.14-7.94,12.99-22.82,12.15-30.55-1.38-6.01-10.53-6.36-21.19-.34-32.02,3.77-6.78,9.12-11.21,16.85-11.72,5.74-.38,15.32,7.71,17.43,14.39,1.3,4.1,1.72,8.48,2.9,14.6Z"/>
      <path class="cls-1" d="M1640.19,264.65c-3.06,6.54-4.74,14.39-9.46,19.33-9.87,10.32-21.44,7.6-28.51-5.27-6.04-11-5.84-21.85.68-32.63,4.2-6.93,9.79-10.47,18.28-9.35,8.71,1.15,12.56,7.28,15.33,14.23,1.57,3.94,1.64,8.49,2.39,12.76.43.31.86.62,1.29.92Z"/>
      <path class="cls-1" d="M1546.67,366.3c3.59-4.35,7.31-8.6,10.75-13.07,17.79-23.11,7.66-46.86-10.34-62.16-10.47-8.9-22.39-16.1-33.06-23.65,10.63-1.87,13.25-.44,26.36,7.48,11.23,6.78,21.19,14.6,29.03,25.06,12.96,17.27,9.06,33.96-1.24,50.07-3.15,4.92-7.42,9.24-11.7,13.29-2.34,2.21-5.76,3.28-8.7,4.86-.37-.63-.74-1.25-1.11-1.88Z"/>
      <path class="cls-1" d="M1606.54,229.72c-14.89,10.48-19.44,24.46-17.14,41.21-13.65-2.26-18.29-11.73-19.78-22.09-1.6-11.11.52-21.9,10.27-29.06,9.52-6.99,19.83-2.82,26.65,9.94Z"/>
      <path class="cls-1" d="M1351.35,270.92c2.3-5.55,3.82-11.63,7.09-16.52,4.97-7.43,14.94-8.1,21.43-1.99,1.43,1.35,2.47,4.8,1.77,6.45-3.92,9.19-6.24,18.21-3.89,28.44,1.53,6.64-5.18,9.83-12.64,6.57-7.72-3.37-12.24-11.61-13.76-22.95Z"/>
      <path class="cls-1" d="M1422.85,247.42c12.7-4.28,20.79-.44,24.13,10.67,4.52,15.04-.5,28.35-12.27,31.68,3.7-15.98-.49-29.81-11.86-42.35Z"/>
      <path d="M1475.38,360.46c-10.7-1.45-21.49-2.45-32.05-4.58-4.57-.92-8.97-3.76-12.9-6.51-5.47-3.83-5.24-12.42.34-16.79,2.98-2.34,6.71-3.69,9.93-5.76,2.84-1.82,5.27-4.35,8.21-5.95,6.57-3.59,13.04-8.55,20.12-9.82,19.68-3.53,39.42-2.74,58.53,4.25,8.95,3.27,17.27,8.51,17.76,18.25.47,9.36-7.95,14.23-15.95,17.57-17.23,7.19-35.41,8.5-53.98,9.32ZM1457.9,323.66c3.7,7.59-1.67,8.82-6.63,10.46-5.17,1.71-10.28,3.59-15.41,5.39.03.82.07,1.64.1,2.46,2.81,1.57,5.45,3.67,8.46,4.62,17.74,5.59,36.03,3.9,53.99,2.36,10.44-.9,20.69-5.07,30.78-8.49,2.72-.92,6.11-4.35,6.3-6.85.16-2.14-3.37-5.5-6.02-6.77-23.25-11.2-47.11-10.57-71.57-3.18Z"/>
      <path d="M1526.08,37.82c-1.97-7.78.89-9.94,7.44-9.68,9.86.38,19.77.5,29.62-.03,7.73-.41,8.95,2.99,7.11,9.71h-44.17Z"/>
      <path d="M1523.74,47.42h46.82v8.98c-13.78,0-27.72.23-41.63-.32-1.51-.06-2.85-4.59-5.18-8.65Z"/>
      <path d="M1526.57,102.33h43.99v9c-13.61,0-27.36.28-41.08-.33-1.85-.08-3.51-4.61-5.26-7.07.78-.53,1.56-1.06,2.34-1.6Z"/>
      <path d="M1570.67,83.16v9.38c-13.7,0-27.21.16-40.71-.22-1.54-.04-2.99-3.14-4.48-4.83,1.73-1.44,3.43-4.09,5.2-4.14,13.03-.36,26.07-.19,39.99-.19Z"/>
      <path d="M1570.58,65.43c.24,2.94.43,5.23.71,8.52h-44.37c.17-3.1.31-5.79.46-8.52h43.21Z"/>
      <path d="M1570.68,116.86v10.6c-4.44-.59-8.61-.83-12.53-1.95-.72-.21-.96-5.72-.5-5.87,3.93-1.26,8.08-1.83,13.02-2.78Z"/>
      <path d="M1557.62,181.76c.51-3.74-.05-8.7,1.61-9.61,2.54-1.4,6.61,0,10.21.23,3.35,8.56,2.66,9.25-11.82,9.39Z"/>
      <path d="M1556.85,198.44c.75-3.3,1.3-5.69,1.9-8.33h11.83c.13,2.61.26,5.3.42,8.33h-14.14Z"/>
      <path d="M1570.33,162.41h-12.91c.54-3.18.95-5.58,1.41-8.32h11.5v8.32Z"/>
      <path d="M1556.03,144.97c1.62-4.14,2.03-8.62,4.05-9.53,2.76-1.24,6.75.22,10.58.56v7.92c-4.1.29-8.31.6-14.63,1.05Z"/>
      <path d="M1519.55,235.68h14.79v8.63h-14.79v-8.63Z"/>
      <path d="M1535.62,225.59h-17.28c1.18-3.38,1.51-7.71,3.12-8.25,3.42-1.15,7.77-1.13,11.17.04,1.59.55,1.88,4.89,2.99,8.2Z"/>
      <path d="M1534.3,162.03c1.89,7.2-.95,9.09-7.42,9.14-6.76.06-8.96-2.36-7.18-9.14h14.6Z"/>
      <path d="M1517.86,180.68h17.39c-.76,3.06-.76,7.5-2.23,8.05-3.37,1.27-7.72,1.5-11.14.44-1.75-.54-2.37-4.75-4.02-8.49Z"/>
      <path d="M1535.78,151.85h-17.3c1.01-3.3,1.22-7.72,2.76-8.25,3.43-1.18,7.81-1.22,11.26-.08,1.64.54,2.02,4.86,3.28,8.34Z"/>
      <path d="M1519.82,207.61q-.69-6.82,13.44-9c2.63,6.89,2.32,8.62-1.91,8.94-3.66.28-7.36.06-11.54.06Z"/>
      <path d="M1497.53,244.6v-8.74h14.05v8.74h-14.05Z"/>
      <path d="M1512.14,162.25c-.37,3.09-.65,5.49-.99,8.31h-13.42v-8.31h14.41Z"/>
      <path d="M1489.15,235.77c.29,3.25.52,5.81.78,8.65h-14.16v-8.65h13.38Z"/>
      <path d="M1512.14,143.43c-.42,3.09-.74,5.49-1.13,8.32h-13.28v-8.32h14.41Z"/>
      <path d="M1489.08,143.12v8.57h-13.41v-8.57h13.41Z"/>
      <path d="M1511.58,189.38h-13.93c-.18-2.88-.34-5.38-.54-8.44h13.84c.19,2.6.39,5.27.62,8.44Z"/>
      <path d="M1511.42,198.4v9.31h-12.72c-2.87-8.39-2.31-9.2,5.71-8.84,2.18.1,4.38-.28,7-.47Z"/>
      <path d="M1475.52,189.2v-8.31h13.42v8.31h-13.42Z"/>
      <path d="M1475.63,225.49v-8.36h13.24v8.36h-13.24Z"/>
      <path d="M1488.98,162.03v8.4h-13.22v-8.4h13.22Z"/>
      <path d="M1497.66,225.91c-.55-9.91-.37-10.03,13.32-8.96.14,2.58.28,5.26.45,8.52-2.67.17-4.89.35-7.12.43-2.02.07-4.05.01-6.65.01Z"/>
      <path d="M1475.92,199.1c5.18-.27,9.04-.47,13.11-.69v8.54h-13.11v-7.86Z"/>
      <path d="M1499.79,110.37c1.73,6.33-.02,9.1-7.03,8.97-18.14-.34-36.29-.11-54.79-.11v-8.86h61.83Z"/>
      <path d="M1449.63,231.81c-4.27.44-8.04.82-12.49,1.28v-9.66h12.49v8.38Z"/>
      <path d="M1449.86,129v8.62h-12.7v-8.62h12.7Z"/>
      <path d="M1449.56,194.31h-12.49c.31-2.92.6-5.74.93-8.87h11.56v8.87Z"/>
      <path d="M1437.93,166.63h11.82v8.59h-12.75c.34-3.14.62-5.74.93-8.59Z"/>
      <path d="M1436.68,147.97h13.09v8.3h-11.69c-.35-2.08-.77-4.59-1.4-8.3Z"/>
      <path d="M1449.77,204.38v8.42h-11.7v-8.42h11.7Z"/>
      <path class="cls-1" d="M1457.9,323.66c24.47-7.39,48.33-8.02,71.57,3.18,2.64,1.27,6.18,4.63,6.02,6.77-.19,2.5-3.59,5.93-6.3,6.85-10.09,3.42-20.33,7.59-30.78,8.49-17.96,1.55-36.25,3.23-53.99-2.36-3.01-.95-5.65-3.05-8.46-4.62-.03-.82-.07-1.64-.1-2.46,5.13-1.8,10.25-3.68,15.41-5.39,4.96-1.64,10.33-2.87,6.63-10.46Z"/>
    </g>
    <g>
      <path d="M807.19,1062.02c-.34,1.66-5.69,10.33-7.3,11.86-10.58,10.09-34.12,6.32-38.3-8.98v-313.77c-7.05-32.93-25.32-102.41,2.81-128.17,11.41-10.45,31.87-7.51,45.05-2.19,4.2,1.69,19.01,9.64,21.06,12.82,1.03,1.59,2.11,2.84,1.71,4.9-20.07-4.19-34.52-4.9-51.16,8.41-16.79,13.43-19.77,37.38-9.51,55.96,3.24,5.86,8.7,8.8,11.24,12.33,2.59,3.6,2.3,14.6,6.19,15.91,29.56,3.02,62.76-7.84,87.79,11.99,5.57,4.42,10.73,16.99,14.43,23.95,4.53,8.54,7.91,22.4,9.93,33.1,6.16,32.65,2.46,67.37,2.98,100.99-4.42,13.39-24.67,13.83-29.45.63-2.44-6.74.27-9.96.37-16.46.45-28.56.68-68.17-6.31-95.48-.31-1.21-3.94-7.59-5.53-8.44l-.08,280.56c-5.56,16.45-20.89,21.58-36.28,14.32-4.11-1.94-12.27-10.15-12.27-14.25v-171.62h-7.37v171.62Z"/>
      <path d="M837.54,646.45c13.83,9.33,19.37,27.56,16.14,43.7-9.2,45.9-86.12,41.58-84.88-11.19.8-34.28,41.99-50.57,68.74-32.51ZM808.9,708.95c14,3.15,25.91-16.93,14.49-27.01-14.8-3.66-21.97,16.14-14.49,27.01Z"/>
    </g>
    <g>
      <path d="M1508.06,750.84c6.34,5.45,12.31,11.4,15.31,19.4l34.34-25.91c16.84-6.3,30.75,11.18,18.68,25.47-6.32,7.48-33.54,24.05-43.46,31.07-5.66,4-8.82,11.59-18.65,6.64-11.77-5.93-11.83-19.09-21.29-27.14.62,3.48.83,7.26,1.58,10.7,16.4,75.72,30.42,174.54,11.07,251.41-4.09,16.23-9.95,37.39-30.72,35.83-16.34-1.23-24.76-13.57-22.34-29.6,1.15-7.66,6.73-17.03,8.7-23.16,7.96-24.79,7.25-80.14,5.73-107.13-.24-4.2-1.7-20.47-3.64-22.39l-18.72-2.69c-3.44.82-3.18,22.11-3.84,26.48-6.76,45.17-23.94,95.63-50.77,132.88-3.66,5.08-9.53,13.98-14.29,17.53-19.55,14.55-42.87-2.64-37.11-25.54,12.88-20.75,27.74-40.12,36.78-63,18.91-47.86,25.01-104.43,20.87-155.49,11.49-12.95,65.39-25.72,44.68-50.93-13.22-16.09-31.14,1.26-44.38,7.92-4.36,2.2-7.93-.94-10.62,6.6.14,1.43,2.27.74,3.32.43,8.66-2.55,23.52-15.72,33.25-18.85,5.01-1.62,8.65-.62,13.15,2.01,6.26,3.65,7.04,15.25,4.47,21.44-2.92,7-55.21,31.07-63.98,38.69-43.22,14.25-20.43-58.84-6.93-74.87,19.85-23.57,76-31.96,105-26.76,12.05,2.16,24.87,11.29,33.81,18.98Z"/>
      <path d="M1454.6,687.62c0,23.32-18.91,42.23-42.23,42.23s-42.23-18.91-42.23-42.23,18.91-42.23,42.23-42.23,42.23,18.91,42.23,42.23ZM1442.36,696.51c-1.4-1.42-42.72,9.44-43.38,10.12,2,22.48,45.81,10.06,43.38-10.12Z"/>
      <path d="M1479.18,621.95c5.03-4.85,9.3-10.44,14.71-15,1.89-.33,7.53,4.67,5.69,7.16l-44.94,36.09c-1.75-1.59-2.76-1.8-1.47-4.33.98-1.93,22.12-20.16,26.01-23.92Z"/>
      <path d="M1519,645.87c-16.51,3.09-32.47,9.13-48.88,12.59-2.84.6-6.99,2.76-8.94-.29l53.08-17.82c2.85-.15,3.66,3.36,4.74,5.51Z"/>
      <path d="M1464.04,589.5l-19.51,53.47c-3.51-2.37-1.45-2.96-.98-5.27,3.15-15.48,9.92-31.65,13.11-47.34l7.38-.85Z"/>
    </g>
    <g>
      <path d="M1071.5,589.66c-51.64.39-95.88-41.4-95.8-95.9.08-52.99,43.21-95.53,96.21-95.26,53.01.27,95.75,43.45,95.26,96.24-.49,52.74-43.37,95.29-95.68,94.93ZM1071.23,566.6c40.09.13,72.82-32.2,72.99-72.1.17-39.75-32.31-72.91-71.57-73.07-40.99-.17-73.75,31.89-73.94,72.34-.18,40.13,32.24,72.69,72.52,72.83Z"/>
      <path d="M1259.52,652.37c-9.57,9.54-19.43,19.36-29.14,29.04-14.71-14.75-29.58-29.66-44.36-44.48,9.62-9.57,19.49-19.39,29.15-29,14.62,14.64,29.48,29.54,44.35,44.44Z"/>
      <path d="M1182.26,583.84c-6.64,6.6-13.49,13.41-20.07,19.95-9.24-9.24-18.65-18.65-27.78-27.79,6.43-6.49,13.24-13.38,20-20.2,9.09,9.15,18.49,18.62,27.85,28.04Z"/>
      <path d="M1192.5,584.84c5.59,5.61,11.48,11.53,17.24,17.31-9.68,9.68-19.6,19.59-29.39,29.37-5.71-5.71-11.61-11.61-17.31-17.32,9.75-9.72,19.66-19.6,29.46-29.37Z"/>
      <path d="M1235.42,687.03c9.98-9.97,19.84-19.83,29.84-29.83,6.14,5.21,10.71,11.32,9.43,19.98-1.39,9.4-6.92,15.7-15.95,18.55-9.83,3.11-17.05-1.48-23.33-8.7Z"/>
      <path d="M1106.49,464.06c8.67,8.87,13.49,18.94,14.61,31.23-8.61-2.07-15.63.97-22.28,5.38-3.22,2.13-5.18,5.06-5.36,8.96-.19,4.12-2.43,6.96-5.61,9.14-2.67,1.83-5.5,3.45-8.32,5.07-5.99,3.43-10.71,7.94-11.35,15.18-.29,3.33.47,6.76.76,10.15-7.4.86-21.04-4.04-28.65-10.77.42-.12.83-.14,1.14-.33,7.92-4.83,10.87-11.26,9.39-20.51-.55-3.39-1.44-6.74-1.71-10.15-.25-3.19-.37-6.54.3-9.64,1.39-6.5-1.05-11.64-5.37-15.87-4.08-3.99-8.8-7.32-13.41-11.07,6.2-8.75,14.64-15.17,25.63-18.74,0,9.66-.02,19.04.02,28.43,0,1.48.08,2.98.38,4.43.97,4.76,5.13,8.09,9.98,8.11,5.01.02,9.28-3.31,10.1-8.25.44-2.63.33-5.36.39-8.05.06-2.69.01-5.39.01-8.55,1.11,0,2.09,0,3.06,0,7.07,0,14.14-.05,21.21.02,2.71.03,4.78-.6,5.09-4.17ZM1054.87,511.24c.04.65.05,1.3.11,1.95.54,5.54,4.93,10.13,11.19,11.7,4.75,1.2,8.12-.44,11.65-5.5,2.38-3.42,4.84-6.79,7.36-10.11,4.5-5.92,2.46-12.67-4.73-14.61-8.42-2.27-15.56.6-21.57,6.49-2.74,2.69-4.13,6.14-4.01,10.07Z"/>
      <path d="M1063.34,437.96h35.88v23.1h-29.17c0,6.41,0,12.51,0,18.62,0,.93.02,1.86-.01,2.79-.08,2.21-1.29,3.59-3.44,3.56-2.03-.03-3.23-1.42-3.23-3.48-.03-14.77-.02-29.53-.02-44.58Z"/>
      <path d="M1077.34,549.05c-4.35-8.3-2.56-14.21,5.3-18.92,4.2-2.51,8.32-5.21,12.19-8.2,3.34-2.58,5.22-6.22,5.42-10.57.12-2.63,1.35-4.54,3.7-5.79,3.86-2.06,7.71-4.08,12.3-3.84,4.14.22,5.22,1.43,4.58,5.47-3.74,23.79-23.28,40.01-43.49,41.85Z"/>
      <path d="M1026.95,477.62c5.36,3.02,10.45,6.34,14.01,11.55,1.59,2.32,2.13,4.78,1.3,7.65-1.64,5.65-.22,11.22.7,16.82.54,3.28.97,6.64.92,9.95-.07,4.49-3.84,8.62-8.2,9.38-.69.12-1.78-.46-2.27-1.05-8.71-10.48-12.78-22.54-11.68-36.14.68-8.35,2.64-14.4,5.23-18.15Z"/>
      <path d="M1069.13,518c-4.46.15-7.68-3.73-7.2-7.62.44-3.62,2.3-6.59,5.65-7.65,3.34-1.05,7.02-1.36,10.54-1.35,2.51.01,2.96,1.53,1.55,3.54-2.4,3.41-4.71,6.88-7.25,10.18-1.01,1.31-2.53,2.24-3.29,2.89Z"/>
    </g>
    <g>
      <path d="M952.97,361.23c0,3.51.03,6.91,0,10.31-.06,5.58-1.37,6.91-6.96,6.92-46.03.02-92.05.02-138.08.03-33.14,0-66.29.01-99.43.01-6.82,0-7.86-1.04-7.87-7.92-.02-92.52-.03-185.04-.05-277.57,0-6.29,1.29-7.58,7.83-7.58,28.75,0,57.49-.03,86.24.12,3.36.02,4.85-1.01,6.06-4.18,9.4-24.79,19.01-49.51,28.57-74.24,2.42-6.27,3.43-6.7,9.82-4.24,73.64,28.37,147.29,56.74,220.93,85.11,6.52,2.51,6.96,3.49,4.39,10.16-33.07,85.95-66.15,171.89-99.24,257.83-2.73,7.1-2.89,7.14-12.2,5.23ZM710.04,94.91v274.6h233.71V94.91h-233.71ZM834.44,85.47c2.66,0,4.52,0,6.38,0,34.54,0,69.09,0,103.63,0,7.46,0,8.47.94,8.47,8.33.02,60.92.03,121.85-.06,182.77,0,3.8.84,6,5.29,5.62,22.2-57.64,44.38-115.21,66.66-173.04-58.18-22.41-115.78-44.58-173.72-66.89-5.64,14.63-11.02,28.6-16.66,43.2ZM955.53,352.61c.54-.22,1.08-.45,1.62-.67,32.83-85.26,65.67-170.52,98.63-256.11-73.19-28.19-145.85-56.18-218.74-84.25-9.56,24.82-18.88,49.05-28.43,73.84,4.52,0,8.29-.23,12.02.07,3.21.26,4.72-.93,5.84-3.91,5.49-14.69,11.2-29.3,16.83-43.94,2.27-5.91,3.53-6.5,9.54-4.19,58.86,22.63,117.72,45.28,176.57,67.93,5.91,2.27,6.52,3.6,4.21,9.59-22.09,57.39-44.19,114.77-66.32,172.14-3.88,10.05-3.96,10.01-14.37,8.1,0,19.22-.05,38.36.11,57.5.01,1.3,1.62,2.59,2.48,3.89Z"/>
      <path class="cls-1" d="M710.04,94.91h233.71v274.6h-233.71V94.91ZM724.8,211.16c0,31.26,0,62.51,0,93.77,0,7.22,1.01,8.34,8.04,8.34,62.99.03,125.97.03,188.96,0,5.48,0,6.97-1.51,6.97-7.03.02-63.3.02-126.6,0-189.9,0-5.98-1.22-7.17-7.12-7.32-1.73-.04-3.46-.04-5.18-.04-61.42,0-122.83.01-184.25.02-6.17,0-7.41,1.19-7.41,7.44-.02,31.57,0,63.14-.01,94.72Z"/>
      <path class="cls-1" d="M834.44,85.47c5.63-14.61,11.02-28.58,16.66-43.2,57.94,22.31,115.53,44.49,173.72,66.89-22.28,57.83-44.45,115.4-66.66,173.04-4.45.38-5.3-1.82-5.29-5.62.09-60.92.08-121.85.06-182.77,0-7.39-1.01-8.33-8.47-8.33-34.54,0-69.09,0-103.63,0-1.86,0-3.71,0-6.38,0Z"/>
      <path class="cls-1" d="M955.53,352.61c-.86-1.3-2.47-2.58-2.48-3.89-.16-19.14-.11-38.29-.11-57.5,10.41,1.91,10.49,1.94,14.37-8.1,22.13-57.37,44.23-114.75,66.32-172.14,2.3-5.99,1.69-7.32-4.21-9.59-58.85-22.65-117.71-45.3-176.57-67.93-6.01-2.31-7.27-1.72-9.54,4.19-5.63,14.64-11.34,29.25-16.83,43.94-1.12,2.99-2.63,4.17-5.84,3.91-3.73-.3-7.51-.07-12.02-.07,9.54-24.79,18.87-49.02,28.43-73.84,72.89,28.07,145.55,56.06,218.74,84.25-32.96,85.59-65.79,170.85-98.63,256.11-.54.22-1.08.45-1.62.67Z"/>
      <path d="M724.8,211.16c0-31.57,0-63.14,0-94.72,0-6.24,1.24-7.43,7.41-7.44,61.42,0,122.83-.01,184.25-.02,1.73,0,3.46,0,5.18.04,5.9.15,7.12,1.34,7.12,7.32.02,63.3.02,126.6,0,189.9,0,5.51-1.49,7.02-6.97,7.03-62.99.02-125.97.03-188.96,0-7.03,0-8.03-1.13-8.04-8.34-.02-31.26,0-62.51,0-93.77ZM842.59,248.66c2.13-.25,3.83-.49,5.53-.66,13.31-1.3,24.92,7.38,27.43,20.49,1.22,6.4-.33,8.32-6.86,8.33-36.43.01-72.87.01-109.3,0-5.94,0-7.34-1.3-8.07-7.29-1.34-11.04,5.3-20.54,16.12-23.26,1.68-.42,3.77-1.05,4.69-2.3,4.22-5.72,8.09-11.7,12.39-18.05-15.18-26.37-13.57-51.3,5.1-68.88,8.63-8.12,18.74-13.06,30.56-14.28,16.83-1.73,31.08,3.96,42.96,15.42.67-.26,1-.32,1.24-.49,16.2-11.31,28.45-10.71,43.85,2.09.73.61,1.91,1.12,2.81,1.02,2.9-.32,5.77-.95,8.62-1.46v-40.83h-185.65v185.37h185.49c.15-.83.36-1.42.36-2.01.03-36.59.02-73.18.12-109.77,0-3.18-1.49-3.55-4.04-3.53-11.62.07-23.24.02-34.86.05-1.18,0-2.35.31-3.44.47.37,26.98-11.64,45.28-36.62,54.92.54,1.58.98,2.88,1.58,4.65ZM849.36,158.91c-.82-.76-1.19-1.23-1.67-1.54-16.67-10.79-40.64-6.98-54.3,8.61-13.47,15.38-14.2,39.74-1.41,54.51.97,1.12,3.52,1.68,5.1,1.35,14.57-3.05,26.92.56,37.3,11.35,1.14,1.18,4.13,1.98,5.46,1.33,5.15-2.55,10.59-5.07,14.8-8.85,10.8-9.71,15.15-22.14,13.55-36.49-.81-.28-1.1-.46-1.39-.47-9.57-.05-19.13-.05-28.7-.14-5.59-.05-7.2-1.67-7.58-7.26-.66-9.52,4.98-17.94,14.09-20.98,1.42-.48,2.88-.86,4.75-1.42ZM865.66,267.93c-2.64-9.75-12.93-13.86-22.74-9.31-5.58,2.59-7.71,1.45-8.6-4.61-1.97-13.43-11.98-22.98-25.5-24.34-12.66-1.27-24.87,6.75-28.89,19.47-1.31,4.13-3.13,5.99-7.65,5.62-5.97-.49-13.13,5.1-11.92,13.18h105.31ZM839.78,179.23h79.79v-10.67c-2.5.44-4.86.32-6.63,1.28-4.48,2.4-7.18,1.24-10.3-2.68-9.36-11.76-26.88-11.08-35.71,1.01-3.81,5.22-4.33,5.33-9.75,2.03-7.86-4.79-16.67-.31-17.4,9.04Z"/>
      <path class="cls-1" d="M842.59,248.66c-.6-1.77-1.05-3.07-1.58-4.65,24.98-9.64,36.99-27.94,36.62-54.92,1.09-.16,2.27-.46,3.44-.47,11.62-.04,23.24.02,34.86-.05,2.55-.02,4.05.35,4.04,3.53-.11,36.59-.09,73.18-.12,109.77,0,.59-.21,1.18-.36,2.01h-185.49V118.52h185.65v40.83c-2.86.51-5.72,1.14-8.62,1.46-.9.1-2.07-.41-2.81-1.02-15.39-12.8-27.65-13.41-43.85-2.09-.25.17-.57.23-1.24.49-11.88-11.46-26.14-17.15-42.96-15.42-11.82,1.21-21.93,6.15-30.56,14.28-18.66,17.58-20.27,42.51-5.1,68.88-4.31,6.35-8.18,12.32-12.39,18.05-.92,1.25-3.01,1.88-4.69,2.3-10.81,2.73-17.45,12.23-16.12,23.26.73,5.99,2.12,7.29,8.07,7.29,36.43.01,72.87.01,109.3,0,6.53,0,8.08-1.92,6.86-8.33-2.5-13.11-14.12-21.79-27.43-20.49-1.7.17-3.4.4-5.53.66Z"/>
      <path class="cls-1" d="M849.36,158.91c-1.87.56-3.33.94-4.75,1.42-9.11,3.05-14.75,11.46-14.09,20.98.39,5.59,2,7.2,7.58,7.26,9.57.09,19.13.09,28.7.14.29,0,.58.19,1.39.47,1.6,14.34-2.75,26.78-13.55,36.49-4.21,3.78-9.65,6.3-14.8,8.85-1.33.66-4.32-.15-5.46-1.33-10.37-10.79-22.73-14.39-37.3-11.35-1.58.33-4.12-.23-5.1-1.35-12.79-14.77-12.07-39.13,1.41-54.51,13.66-15.59,37.63-19.4,54.3-8.61.48.31.85.78,1.67,1.54Z"/>
      <path class="cls-1" d="M865.66,267.93h-105.31c-1.2-8.08,5.95-13.67,11.92-13.18,4.52.37,6.35-1.49,7.65-5.62,4.02-12.72,16.23-20.74,28.89-19.47,13.52,1.36,23.53,10.91,25.5,24.34.89,6.06,3.02,7.2,8.6,4.61,9.81-4.55,20.1-.44,22.74,9.31Z"/>
      <path class="cls-1" d="M839.78,179.23c.72-9.36,9.54-13.83,17.4-9.04,5.42,3.3,5.93,3.19,9.75-2.03,8.83-12.09,26.36-12.77,35.71-1.01,3.12,3.92,5.82,5.09,10.3,2.68,1.78-.95,4.13-.83,6.63-1.28v10.67h-79.79Z"/>
    </g>
    <g>
      <path class="cls-2" d="M1812.34,515.47v-1.57c0-14.48,0-28.96,0-43.44,0-11.27-10.22-19.69-21.32-17.59-8.77,1.66-14.76,8.9-14.76,17.87,0,38.08,0,76.16,0,114.23,0,.49,0,.98,0,1.71-.56-.45-.92-.72-1.27-1.02-7.66-6.51-15.31-13.04-22.98-19.55-7.06-5.99-17.22-4.59-22.32,3.07-3.36,5.05-3.23,11.38.57,16.7,18.9,26.49,37.84,52.96,56.75,79.44.62.87,1.38,1.17,2.39,1.16,3.99-.02,7.98,0,11.98-.01,1.77,0,2.78-.9,2.77-2.45-.01-1.3-.98-2.03-2.74-2.03-3.37,0-6.73-.03-10.1.02-.86.01-1.4-.21-1.93-.95-16.44-22.96-32.92-45.9-49.38-68.85-2.26-3.15-4.59-6.24-6.74-9.46-2.92-4.37-2.13-10.07,1.75-13.53,4-3.57,9.57-3.66,13.69-.18,7.17,6.07,14.32,12.16,21.47,18.24,2.24,1.9,4.45,3.83,6.72,5.69,1.41,1.16,3.27.56,3.54-1.1.07-.46.06-.94.06-1.41,0-16.36,0-32.72,0-49.08,0-23.56,0-47.12,0-70.68,0-4.23,1.44-7.85,4.68-10.59,4.43-3.76,9.5-4.35,14.71-2.04,5.24,2.33,7.94,6.66,7.96,12.38.06,25.79.03,51.58.03,77.37,0,.47-.02.94.02,1.41.12,1.19,1.03,1.98,2.22,1.97,1.43,0,2.24-.97,2.24-2.7,0-9.24,0-18.47,0-27.71,0-.45,0-.9,0-1.36,6.65,0,13.11-.06,19.56.03,3.37.05,6.57,2.69,7.4,6.05.35,1.42.34,2.94.35,4.42.04,6.07.01,12.13.02,18.2,0,1.46.62,2.4,1.76,2.72,1.64.46,2.77-.59,2.77-2.63.01-5.56,0-11.11,0-16.67,0-.45.04-.91.06-1.4.47-.02.81-.06,1.16-.06,5.71,0,11.43-.02,17.14,0,5.4.02,8.95,3.61,8.95,9.01,0,6.54,0,13.07,0,19.61,0,.43-.01.87.11,1.27.33,1.1,1.56,1.84,2.67,1.66,1.03-.17,1.71-1.11,1.71-2.47.01-5.67,0-11.35,0-17.02,0-.42,0-.83,0-1.26.3-.04.45-.07.6-.07,4.62,0,9.24-.1,13.85.06,1.64.06,3.37.47,4.86,1.16,5.45,2.54,8,7.04,8.05,12.96.06,9.08.12,18.16-.02,27.24-.09,6.02-.22,12.06-.92,18.03-.63,5.33-1.5,10.76-3.24,15.81-5.2,15.11-10.88,30.05-16.34,45.06-.24.67-.56.87-1.25.87-3.91-.03-7.83-.02-11.74-.01-1.77,0-2.79.89-2.8,2.43,0,1.33.93,2.06,2.7,2.06,4.5,0,9,0,13.5,0,1.83,0,2.26-.31,2.89-2.09,4.92-13.8,9.72-27.64,14.81-41.38,4.18-11.29,6.25-22.9,6.32-34.89.07-11.51.03-23.01.02-34.52,0-.82-.05-1.65-.19-2.45-1.52-8.75-8.58-14.74-17.49-14.81-4.19-.03-8.37,0-12.56,0-.42,0-.83,0-1.13,0-.51-1.32-.84-2.55-1.44-3.63-2.55-4.66-6.63-6.79-11.86-6.82-5.87-.03-11.74,0-17.61,0-.57,0-1.05.09-1.3-.75-1.8-6.21-6.44-9.64-12.93-9.65-5.67-.01-11.35,0-17.02,0h-1.41ZM1756.74,465.59c-.1.02-.2.03-.3.05.53,3.23.8,6.53,1.67,9.67.87,3.14,2.35,6.1,3.56,9.14.49,1.23,1.08,1.61,2.08,1.29,1.16-.38,1.77-1.46,1.39-2.58-.17-.51-.47-.99-.71-1.48-3.38-6.86-4.44-14.08-2.95-21.57,3.81-19.06,22.13-31.07,41.11-26.8,17.99,4.05,29.15,21.45,25.84,39.52-.6,3.29-1.74,6.4-3.26,9.38-.73,1.43-.52,2.33.6,3.05,1.23.78,2.64.22,3.52-1.44,3.84-7.23,5.26-14.9,4.22-23.03-2.71-21.33-22.63-36.38-43.95-33.18-18.75,2.81-32.83,19.1-32.83,37.98ZM1887.55,416.27c-.39.15-.68.26-.97.36-9.81,3.44-19.61,6.87-29.42,10.31-6.71,2.35-13.42,4.69-20.13,7.05-1.21.42-1.85,1.5-1.63,2.63.2,1.03,1.11,1.68,2.38,1.61.53-.03,1.08-.18,1.58-.36,16.24-5.74,32.48-11.48,48.71-17.25.87-.31,1.34-.2,1.96.53,4.06,4.75,10.88,6.2,16.55,3.58,6.05-2.78,9.06-8.09,8.14-14.36-.9-6.17-6.57-11.46-12.67-11.84-6.88-.42-12.79,3.68-14.61,10.08-.72,2.53-.48,5.03.08,7.66ZM1709.08,499c-.06.03.15-.07.37-.15,8.91-2.92,17.81-5.84,26.72-8.77,3.78-1.24,7.57-2.48,11.35-3.74,1.53-.51,2.03-1.68,1.31-3-.7-1.3-1.55-1.61-3.03-1.12-12.37,4.15-24.74,8.3-37.09,12.48-1.02.34-1.57.33-2.25-.69-3.31-4.97-9.63-7.05-15.56-5.27-5.64,1.7-9.58,7.04-9.67,13.03-.1,6.3,4.7,12.97,12,13.89,6.91.86,13.44-3.21,15.17-9.91.53-2.07.46-4.31.68-6.74ZM1725.58,438.01c.44.18.84.34,1.23.51,6.73,2.92,13.47,5.86,20.21,8.76,1.15.5,2.11.12,2.65-.93.57-1.11.31-2.17-.75-2.85-.36-.23-.76-.39-1.16-.56-6.43-2.75-12.86-5.49-19.28-8.24-.31-.13-.61-.29-.89-.43,2.3-7.82-1.87-14.92-8.79-17.31-6.47-2.24-13.71.56-16.68,6.35-3.51,6.85-1.08,14.73,4.69,18.43,5.9,3.78,14.42,2.46,18.78-3.74ZM1866.12,479.95c-2.62,7.87,2.08,14.91,7.88,17.26,6.49,2.63,13.99.15,17.63-5.96,3.42-5.76,1.94-13.52-3.39-17.77-2.74-2.18-5.85-3.3-9.36-3.07-4.46.29-8.07,2.25-10.72,5.87-.56-.23-1.04-.41-1.5-.61-6.41-2.7-12.81-5.4-19.22-8.09-1.56-.65-2.96-.22-3.48,1.07-.42,1.02.34,2.27,1.78,2.87,2.89,1.2,5.78,2.38,8.66,3.58,3.89,1.61,7.78,3.22,11.73,4.85Z"/>
      <path class="cls-2" d="M1812.34,515.47h1.41c5.67,0,11.35,0,17.02,0,6.49.01,11.12,3.44,12.93,9.65.25.85.73.75,1.3.75,5.87,0,11.74-.02,17.61,0,5.23.03,9.31,2.15,11.86,6.82.59,1.08.92,2.31,1.44,3.63.3,0,.71,0,1.13,0,4.19,0,8.38-.03,12.56,0,8.91.07,15.98,6.06,17.49,14.81.14.8.18,1.64.19,2.45,0,11.51.04,23.01-.02,34.52-.07,11.99-2.14,23.61-6.32,34.89-5.08,13.74-9.88,27.58-14.81,41.38-.64,1.79-1.06,2.09-2.89,2.09-4.5,0-9,0-13.5,0-1.76,0-2.71-.73-2.7-2.06.01-1.54,1.03-2.43,2.8-2.43,3.91,0,7.83-.02,11.74.01.69,0,1.01-.2,1.25-.87,5.47-15.01,11.15-29.95,16.34-45.06,1.74-5.05,2.61-10.48,3.24-15.81.7-5.97.83-12.01.92-18.03.14-9.08.08-18.16.02-27.24-.04-5.91-2.6-10.42-8.05-12.96-1.48-.69-3.22-1.1-4.86-1.16-4.61-.16-9.23-.06-13.85-.06-.15,0-.3.04-.6.07,0,.43,0,.85,0,1.26,0,5.67,0,11.35,0,17.02,0,1.36-.68,2.3-1.71,2.47-1.1.18-2.34-.56-2.67-1.66-.12-.4-.11-.85-.11-1.27,0-6.54,0-13.07,0-19.61,0-5.4-3.56-8.99-8.95-9.01-5.71-.02-11.43,0-17.14,0-.35,0-.69.03-1.16.06-.02.5-.06.95-.06,1.4,0,5.56,0,11.11,0,16.67,0,2.04-1.13,3.09-2.77,2.63-1.14-.32-1.76-1.25-1.76-2.72,0-6.07.02-12.13-.02-18.2,0-1.48,0-3-.35-4.42-.82-3.36-4.02-6-7.4-6.05-6.45-.09-12.91-.03-19.56-.03,0,.47,0,.92,0,1.36,0,9.24,0,18.47,0,27.71,0,1.72-.82,2.69-2.24,2.7-1.19,0-2.1-.79-2.22-1.97-.05-.47-.02-.94-.02-1.41,0-25.79.03-51.58-.03-77.37-.01-5.72-2.72-10.05-7.96-12.38-5.2-2.31-10.27-1.72-14.71,2.04-3.23,2.74-4.68,6.36-4.68,10.59,0,23.56,0,47.12,0,70.68,0,16.36,0,32.72,0,49.08,0,.47.02.95-.06,1.41-.27,1.66-2.13,2.26-3.54,1.1-2.27-1.86-4.48-3.79-6.72-5.69-7.16-6.08-14.3-12.17-21.47-18.24-4.12-3.49-9.69-3.4-13.69.18-3.88,3.46-4.67,9.16-1.75,13.53,2.15,3.22,4.48,6.32,6.74,9.46,16.47,22.94,32.94,45.88,49.38,68.85.53.74,1.07.96,1.93.95,3.37-.04,6.73-.02,10.1-.02,1.76,0,2.73.73,2.74,2.03.01,1.55-.99,2.45-2.77,2.45-3.99,0-7.98-.01-11.98.01-1.02,0-1.78-.29-2.39-1.16-18.91-26.49-37.85-52.95-56.75-79.44-3.79-5.32-3.93-11.65-.57-16.7,5.1-7.66,15.26-9.07,22.32-3.07,7.67,6.51,15.32,13.03,22.98,19.55.34.29.71.57,1.27,1.02,0-.73,0-1.22,0-1.71,0-38.08,0-76.16,0-114.23,0-8.97,6-16.21,14.76-17.87,11.09-2.1,21.31,6.32,21.32,17.59,0,14.48,0,28.96,0,43.44v1.57Z"/>
      <path class="cls-2" d="M1756.74,465.59c0-18.88,14.08-35.17,32.83-37.98,21.32-3.19,41.24,11.85,43.95,33.18,1.03,8.13-.39,15.8-4.22,23.03-.88,1.66-2.28,2.22-3.52,1.44-1.13-.71-1.34-1.62-.6-3.05,1.53-2.98,2.66-6.09,3.26-9.38,3.31-18.07-7.84-35.47-25.84-39.52-18.98-4.27-37.31,7.73-41.11,26.8-1.5,7.49-.43,14.71,2.95,21.57.24.49.53.96.71,1.48.38,1.12-.23,2.2-1.39,2.58-1.01.33-1.6-.06-2.08-1.29-1.2-3.04-2.68-6.01-3.56-9.14-.87-3.14-1.14-6.44-1.67-9.67.1-.02.2-.03.3-.05Z"/>
      <path class="cls-2" d="M1887.55,416.27c-.56-2.63-.8-5.13-.08-7.66,1.82-6.4,7.73-10.5,14.61-10.08,6.1.38,11.77,5.67,12.67,11.84.92,6.27-2.09,11.58-8.14,14.36-5.68,2.61-12.5,1.17-16.55-3.58-.62-.73-1.1-.84-1.96-.53-16.23,5.77-32.47,11.51-48.71,17.25-.51.18-1.05.33-1.58.36-1.28.07-2.18-.58-2.38-1.61-.22-1.13.43-2.21,1.63-2.63,6.71-2.35,13.42-4.7,20.13-7.05,9.81-3.43,19.61-6.87,29.42-10.31.29-.1.58-.21.97-.36ZM1910.6,412.76c.06-4.92-3.7-9.34-9.09-9.68-5.17-.33-9.86,4.41-9.99,9.76-.12,5.06,3.94,9.17,9.17,9.29,5.26.11,9.8-4.17,9.91-9.37Z"/>
      <path class="cls-2" d="M1709.08,499c-.23,2.44-.15,4.67-.68,6.74-1.73,6.7-8.26,10.77-15.17,9.91-7.31-.91-12.1-7.58-12-13.89.09-5.98,4.03-11.33,9.67-13.03,5.93-1.78,12.24.3,15.56,5.27.68,1.03,1.24,1.04,2.25.69,12.36-4.18,24.73-8.33,37.09-12.48,1.47-.49,2.33-.18,3.03,1.12.72,1.32.22,2.49-1.31,3-3.78,1.26-7.56,2.5-11.35,3.74-8.91,2.92-17.81,5.84-26.72,8.77-.22.07-.43.17-.37.15ZM1695.37,492.39c-5.22,0-9.59,4.35-9.59,9.54,0,5.2,4.54,9.71,9.78,9.71,5.17,0,9.43-4.24,9.46-9.39.03-5.48-4.25-9.86-9.64-9.86Z"/>
      <path class="cls-2" d="M1725.58,438.01c-4.35,6.19-12.87,7.51-18.78,3.74-5.78-3.7-8.2-11.57-4.69-18.43,2.97-5.8,10.21-8.59,16.68-6.35,6.92,2.4,11.09,9.49,8.79,17.31.29.14.58.3.89.43,6.43,2.75,12.86,5.49,19.28,8.24.39.17.8.33,1.16.56,1.06.68,1.32,1.74.75,2.85-.54,1.05-1.5,1.42-2.65.93-6.74-2.91-13.47-5.84-20.21-8.76-.39-.17-.79-.33-1.23-.51ZM1714.66,420.54c-5.39-.05-9.75,4.19-9.83,9.57-.08,5.41,4.25,9.89,9.61,9.94,5.4.05,9.76-4.23,9.79-9.6.03-5.32-4.35-9.86-9.57-9.91Z"/>
      <path class="cls-2" d="M1866.12,479.95c-3.95-1.63-7.84-3.25-11.73-4.85-2.89-1.19-5.78-2.38-8.66-3.58-1.44-.6-2.2-1.84-1.78-2.87.53-1.28,1.93-1.72,3.48-1.07,6.41,2.69,12.81,5.39,19.22,8.09.47.2.94.38,1.5.61,2.65-3.62,6.26-5.58,10.72-5.87,3.51-.23,6.62.88,9.36,3.07,5.34,4.25,6.82,12.01,3.39,17.77-3.64,6.12-11.14,8.6-17.63,5.96-5.8-2.35-10.5-9.4-7.88-17.26ZM1877.79,494.17c.03.1.06.19.09.29,1.66-.5,3.38-.88,4.98-1.53,5.11-2.08,7.37-8.15,4.74-13-3.23-5.93-9.05-6.67-14.92-3.37-3.73,2.1-5.22,6.74-3.97,10.95,1.16,3.92,4.87,6.63,9.09,6.65Z"/>
      <path class="cls-2" d="M1910.6,412.76c-.11,5.19-4.65,9.48-9.91,9.37-5.22-.11-9.29-4.23-9.17-9.29.13-5.36,4.82-10.09,9.99-9.76,5.38.34,9.14,4.76,9.09,9.68Z"/>
      <path class="cls-2" d="M1695.37,492.39c5.39,0,9.67,4.38,9.64,9.86-.03,5.15-4.29,9.38-9.46,9.39-5.24,0-9.78-4.5-9.78-9.71,0-5.19,4.38-9.54,9.59-9.54Z"/>
      <path class="cls-2" d="M1714.66,420.54c5.21.05,9.59,4.59,9.57,9.91-.03,5.37-4.39,9.65-9.79,9.6-5.36-.05-9.7-4.53-9.61-9.94.08-5.38,4.44-9.62,9.83-9.57Z"/>
    </g>
    <text class="cls-3" transform="translate(272.99 1053.38)"><tspan x="0" y="0">CAPTURE</tspan></text>
    <text class="cls-3" transform="translate(879.06 1053.38)"><tspan x="0" y="0">DISCOVER</tspan></text>
    <text class="cls-3" transform="translate(1527.72 1053.38)"><tspan x="0" y="0">INTERACT</tspan></text>
  </g>
  <g id="Layer_2">
    <g>
      <path d="M284.19,609.27l11.76,29.3c1.78,1.56,15.91-5.34,23.14,5.92,19.97,31.09,5.97,67.14-23.67,85.18-14.77,8.99-35.15,14.57-49.21,23.05-1.74,1.05-4.96,2.31-5.38,4.47l10.78,45.59c9.29,66.06,21.12,133.39,14.46,200.77-1.5,15.13-9.08,59.66-19.27,70-9.99,10.14-32.58,7.05-38.12-6.94-5.48-13.85,4.14-29.51,7.14-43.88,5.9-28.26,6.7-65.36,4.97-94.33-.26-4.33-1.99-24.09-3.57-26.18-2.87-1.59-17.05-3.18-18.81-1.04-2.43,10.6-1.95,21.6-3.59,32.53-6,39.88-28.77,99.9-54.23,131.39-9.9,12.24-26.8,17.56-38.93,5.1-11.7-12.02-4.9-27.84,3.54-39.11,19.39-25.9,29.59-47.54,38.31-79.26,14.05-51.15,12.48-106.81,4.95-158.69-3.65-2.63-28,21.35-31.18,24.78-3.16,3.41-7.25,8.71-10.1,12.62-1.09,1.49-3.71,2.03-4.06,3.29l-1.49,71.87c-.69,11.71-26.16,10.17-27.91,1.23,1.05-24.5-2.57-52.17-.4-76.3,1.85-20.6,25.2-36.74,39.75-49.52,6.35-5.57,10.98-12.69,18.77-16.71,44.81-23.15,102.61-32.12,142.96-59.21,1.65-1.11,15.65-12.28,16.34-13.09,4.71-5.52,9.93-18.48,4.57-24.96-2.76-1.99-12.4,7.47-19.19,2.79-3.4-13.38-20.91-34.9-21.41-47.77-.19-5.03,16.3-12.91,20.87-14.04,3.03-.75,5.54-.71,8.2,1.15Z"/>
      <path d="M209.8,698.19c0,22.59-18.31,40.9-40.9,40.9s-40.9-18.31-40.9-40.9,18.31-40.9,40.9-40.9,40.9,18.31,40.9,40.9ZM189.07,717.55c1.28-1.49,5.76-9.6,4.73-10.85-9.69,7.16-20.33,10.28-32.57,9.93,7.71,9.93,19.59,10.55,27.85.92Z"/>
      <path d="M243.4,590.5c-1.18,12.3,7.58,15.55,18.43,14.19v5.66c-13.94-1.34-20.43,4.12-18.43,18.43h-4.24c1.18-6.42-2.13-13.84-7.97-16.84-2.93-1.5-11.25-1.21-10.45-5.11.42-2.03,10.21-1.24,14.15-4.29,3.54-2.74,4.24-7.83,4.27-12.03h4.24Z"/>
    </g>
  </g>
</svg>